<?xml version="1.0" standalone="no"?>
<!DOCTYPE svg PUBLIC "-//W3C//DTD SVG 1.1//EN" "http://www.w3.org/Graphics/SVG/1.1/DTD/svg11.dtd" >
<svg>
<metadata>
Created by FontForge 20090914 at Sun Feb 23 16:36:27 2014
 By www-data
monofur &#194;&#169; 2000 tobias b k&#195;&#182;hler (unci@tigerden.com)
</metadata>
<defs>
<font id="Monofur" horiz-adv-x="1200" >
  <font-face 
    font-family="monofur"
    font-weight="400"
    font-stretch="normal"
    units-per-em="2400"
    panose-1="2 15 4 9 2 2 3 2 2 4"
    ascent="1920"
    descent="-480"
    x-height="1050"
    cap-height="1500"
    bbox="-0.00195312 -452 1200 1952"
    underline-thickness="150"
    underline-position="-150"
    unicode-range="U+0020-U+FB02"
  />
<missing-glyph 
d="M150 0v1950h900v-1950h-900zM300 150h600v1650h-600v-1650z" />
    <glyph glyph-name=".notdef" 
d="M150 0v1950h900v-1950h-900zM300 150h600v1650h-600v-1650z" />
    <glyph glyph-name="space" unicode=" " 
 />
    <glyph glyph-name="exclam" unicode="!" 
d="M675 450c0 -50 -25 -75 -75 -75s-75 25 -75 75v975c0 50 25 75 75 75s75 -25 75 -75v-975zM714 114c0 -31.333 -11.167 -58.166 -33.5 -80.499s-49.166 -33.5 -80.499 -33.5s-58.166 11.167 -80.499 33.5s-33.5 49.166 -33.5 80.499s11.167 57.666 33.5 78.999
s49.166 32 80.499 32s58.166 -10.667 80.499 -32s33.5 -47.666 33.5 -78.999z" />
    <glyph glyph-name="quotedbl" unicode="&#x22;" 
d="M938 1428c0 -10 -2 -20.333 -6 -31l-150 -375c-12.667 -32 -35 -48 -67 -48c-20.667 0 -38.834 7.16699 -54.501 21.5s-23.5 31.5 -23.5 51.5c0 10 2 20.333 6 31l150 375c12.667 32 35 48 67 48c20.667 0 38.834 -7.16699 54.501 -21.5s23.5 -31.5 23.5 -51.5zM563 1428
c0 -10 -2 -20.333 -6 -31l-150 -375c-12.667 -32 -35 -48 -67 -48c-20.667 0 -38.834 7.16699 -54.501 21.5s-23.5 31.5 -23.5 51.5c0 10 2 20.333 6 31l150 375c12.667 32 35 48 67 48c20.667 0 38.834 -7.16699 54.501 -21.5s23.5 -31.5 23.5 -51.5z" />
    <glyph glyph-name="numbersign" unicode="#" 
d="M1125 375c0 -50 -25 -75 -75 -75h-125v-225c0 -50 -25 -75 -75 -75s-75 25 -75 75v225h-350v-225c0 -50 -25 -75 -75 -75s-75 25 -75 75v225h-125c-50 0 -75 25 -75 75s25 75 75 75h125v600h-125c-50 0 -75 25 -75 75s25 75 75 75h125v225c0 50 25 75 75 75
s75 -25 75 -75v-225h350v225c0 50 25 75 75 75s75 -25 75 -75v-225h125c50 0 75 -25 75 -75s-25 -75 -75 -75h-125v-600h125c50 0 75 -25 75 -75zM775 450v600h-350v-600h350z" />
    <glyph glyph-name="dollar" unicode="$" 
d="M1125 450c0 -122.667 -51.0029 -226.001 -153.003 -310.001c-90.667 -75.333 -200.334 -120.666 -329.001 -135.999v-229c0 -50 -25 -75 -75 -75s-75 25 -75 75v229c-78.667 9.33301 -153.667 31.333 -225 66c-81.333 40 -140.666 89.333 -177.999 148
c-10.667 17.333 -16 32.666 -16 45.999c0 20 7.83301 37.5 23.5 52.5s33.834 22.5 54.501 22.5c18.667 0 37.667 -9.66699 57 -29l45 -50c60.667 -56.667 140.334 -91.667 239.001 -105v600c-104 15.333 -192.333 54 -265 116c-80.667 69.333 -121 154 -121 254
s40.333 184.667 121 254c72.667 62 161 100.667 265 116v230c0 50 25 75 75 75s75 -25 75 -75v-230c150 -20.667 256 -78.667 318 -174c11.333 -16.667 17 -32 17 -46c0 -20 -8 -37.5 -24 -52.5s-34 -22.5 -54 -22.5c-18 0 -37.667 10.333 -59 31
c-64 63.333 -130 101 -198 113v-448c128.667 -15.333 238.334 -60.666 329.001 -135.999c102 -84 153 -187.333 153 -310zM492.997 907.999v434c-62.667 -12 -115.667 -35 -159 -69c-51.333 -40.667 -77 -90 -77 -148s25.667 -107.333 77 -148
c43.333 -34 96.333 -57 159 -69zM974.997 449.999c0 80.667 -36.333 148.667 -109 204c-61.333 46.667 -135.666 76.667 -222.999 90v-588c87.333 13.333 161.666 43.333 222.999 90c72.667 55.333 109 123.333 109 204z" />
    <glyph glyph-name="percent" unicode="%" 
d="M625 1125c0 -92 -22.333 -174.333 -67 -247c-52.667 -85.333 -122 -128 -208 -128s-155.333 42.667 -208 128c-44.667 72.667 -67 155 -67 247s22.333 174.333 67 247c52.667 85.333 122 128 208 128s155.333 -42.667 208 -128c44.667 -72.667 67 -155 67 -247z
M1126 1426c0 -14.667 -4.66699 -29 -14 -43l-900 -1350c-15.333 -22.667 -35.333 -34 -60 -34c-20 0 -38 7.5 -54 22.5s-24 32.5 -24 52.5c0 14.667 4.66699 29 14 43l900 1350c15.333 22.667 35.333 34 60 34c20 0 38 -7.5 54 -22.5s24 -32.5 24 -52.5zM1125 375
c0 -92 -22.333 -174.333 -67 -247c-52.667 -85.333 -122 -128 -208 -128s-155.333 42.667 -208 128c-44.667 72.667 -67 155 -67 247s22.333 174.333 67 247c52.667 85.333 122 128 208 128s155.333 -42.667 208 -128c44.667 -72.667 67 -155 67 -247zM475 1125
c0 100.667 -28 170.667 -84 210c-14.667 10 -28.334 15 -41.001 15c-15.333 0 -31.666 -7 -48.999 -21c-50.667 -41.333 -76 -109.333 -76 -204s25.333 -162.667 76 -204c17.333 -14 33.666 -21 48.999 -21c12.667 0 26.334 5 41.001 15c56 39.333 84 109.333 84 210z
M975 375c0 94.667 -25.333 162.667 -76 204c-17.333 14 -33.666 21 -48.999 21c-12.667 0 -26.334 -5 -41.001 -15c-56 -39.333 -84 -109.333 -84 -210s28 -170.667 84 -210c14.667 -10 28.334 -15 41.001 -15c15.333 0 31.666 7 48.999 21c50.667 41.333 76 109.333 76 204
z" />
    <glyph glyph-name="ampersand" unicode="&#x26;" 
d="M1126 75c0 -20 -7.83301 -37.667 -23.5 -53s-33.5 -23 -53.5 -23c-20.667 0 -39 8.66699 -55 26l-161 179c-81.333 -136 -196.333 -204 -345 -204c-118.667 0 -218 46 -298 138c-76.667 88 -115 192 -115 312c0 166 64.667 293.333 194 382c-84 93.333 -126 191 -126 293
c0 100 32 186.667 96 260c67.333 76.667 150.333 115 249 115c98 0 180.667 -38.333 248 -115c64 -73.333 96 -160 96 -260c0 -89.333 -26.333 -169.333 -79 -240c-55.333 -73.333 -126.333 -117 -213 -131l566 -629c13.333 -15.333 20 -32 20 -50zM682 1125
c0 58 -17.333 109.333 -52 154c-38 47.333 -85.333 71 -142 71c-57.333 0 -105 -23.667 -143 -71c-34.667 -44.667 -52 -96 -52 -154c0 -48 11.667 -91 35 -129c11.333 -16.667 40.333 -51 87 -103c24 4.66699 48.333 7 73 7c56.667 0 104 23.667 142 71
c34.667 44.667 52 96 52 154zM726 324l-355 393.999c-97.333 -55.333 -146 -144.666 -146 -267.999c0 -78 24 -146.333 72 -205c50.667 -63.333 114.334 -95 191.001 -95c111.333 0 190.666 58 237.999 174z" />
    <glyph glyph-name="quotesingle" unicode="'" 
d="M751 1428c0 -10 -2 -20.333 -6 -31l-150 -375c-12.667 -32 -35.334 -48 -68.001 -48c-20 0 -38 7.16699 -54 21.5s-24 31.5 -24 51.5c0 10 2 20.333 6 31l150 375c12.667 32 35.334 48 68.001 48c20 0 38 -7.16699 54 -21.5s24 -31.5 24 -51.5z" />
    <glyph glyph-name="parenleft" unicode="(" 
d="M796 1426c0 -11.333 -3.66699 -24.3311 -11 -38.998c-80 -158 -137 -296.667 -171 -416c-39.333 -138.667 -59 -287.334 -59 -446.001s19.667 -307.334 59 -446.001c34 -119.333 91 -257.666 171 -414.999c7.33301 -14.667 11 -28 11 -40c0 -20 -8 -37.333 -24 -52
s-34 -22 -54 -22c-28 0 -55.667 23 -83 69c-5.33301 9.33301 -22.333 44.666 -51 105.999c-119.333 256 -179 522.667 -179 800s59.667 544 179 800c28.667 61.333 45.667 97 51 107c27.333 45.333 55 68 83 68c20 0 38 -7.33301 54 -22s24 -32 24 -52z" />
    <glyph glyph-name="parenright" unicode=")" 
d="M795 525c0 -277.333 -59.334 -544.001 -178.001 -800.001c-29.333 -61.333 -46.666 -96.666 -51.999 -105.999c-27.333 -46 -55 -69 -83 -69c-20 0 -38 7.33301 -54 22s-24 32 -24 52c0 11.333 3.66699 24.666 11 39.999c80 157.333 137 295.666 171 414.999
c39.333 138.667 59 287.334 59 446.001s-19.667 307.334 -59 446.001c-34 119.333 -91 258 -171 416c-7.33301 14.667 -11 27.667 -11 39c0 20 8 37.333 24 52s34 22 54 22c28 0 55.667 -22.667 83 -68c5.33301 -10 22.333 -45.667 51 -107
c119.333 -256 179 -522.667 179 -800z" />
    <glyph glyph-name="asterisk" unicode="*" 
d="M1125 975c0 -50 -22.667 -75 -68 -75c-3.33301 0 -110.333 6.33301 -321 19l235 -209c16 -14 24 -31.667 24 -53c0 -20 -7.83301 -37.833 -23.5 -53.5s-33.5 -23.5 -53.5 -23.5c-21.333 0 -39 8 -53 24l-209 235c12.667 -210.667 19 -317.667 19 -321
c0 -45.333 -25 -68 -75 -68s-75 22.667 -75 68c0 3.33301 6.33301 110.333 19 321l-209 -235c-14 -16 -31.667 -24 -53 -24c-20 0 -37.833 7.83301 -53.5 23.5s-23.5 33.5 -23.5 53.5c0 21.333 8 39 24 53l235 209c-210.667 -12.667 -317.667 -19 -321 -19
c-45.333 0 -68 25 -68 75s22.667 75 68 75c3.33301 0 110.333 -6.33301 321 -19l-235 209c-16 14 -24 31.667 -24 53c0 20 7.83301 37.833 23.5 53.5s33.5 23.5 53.5 23.5c21.333 0 39 -8 53 -24l209 -235c-12.667 210.667 -19 317.667 -19 321c0 45.333 25 68 75 68
s75 -22.667 75 -68c0 -3.33301 -6.33301 -110.333 -19 -321l209 235c14 16 31.667 24 53 24c20 0 37.833 -7.83301 53.5 -23.5s23.5 -33.5 23.5 -53.5c0 -21.333 -8 -39 -24 -53l-235 -209c210.667 12.667 317.667 19 321 19c45.333 0 68 -25 68 -75z" />
    <glyph glyph-name="plus" unicode="+" 
d="M1125 638c0 -50 -25 -75 -75 -75h-375v-375c0 -50 -25 -75 -75 -75s-75 25 -75 75v375h-375c-50 0 -75 25 -75 75s25 75 75 75h375v375c0 49.333 25 74 75 74s75 -24.667 75 -74v-375h375c50 0 75 -25 75 -75z" />
    <glyph glyph-name="comma" unicode="," 
d="M741 75c0 -154 -51.333 -278.001 -154 -372.001c-17.333 -15.333 -35 -23 -53 -23c-20 0 -37.833 7.66699 -53.5 23s-23.5 33.333 -23.5 54c0 16.667 8 34 24 52c73.333 84.667 110 173.334 110 266.001c0 50 25 75 75 75s75 -25 75 -75z" />
    <glyph glyph-name="hyphen" unicode="-" 
d="M900 525c0 -50 -25 -75 -75 -75h-450c-50 0 -75 25 -75 75s25 75 75 75h450c50 0 75 -25 75 -75z" />
    <glyph glyph-name="hyphen" unicode="&#x2010;" 
d="M900 525c0 -50 -25 -75 -75 -75h-450c-50 0 -75 25 -75 75s25 75 75 75h450c50 0 75 -25 75 -75z" />
    <glyph glyph-name="period" unicode="." 
d="M714 114c0 -31.333 -11.167 -58.166 -33.5 -80.499s-49.166 -33.5 -80.499 -33.5s-58.166 11.167 -80.499 33.5s-33.5 49.166 -33.5 80.499s11.167 57.666 33.5 78.999s49.166 32 80.499 32s58.166 -10.667 80.499 -32s33.5 -47.666 33.5 -78.999z" />
    <glyph glyph-name="slash" unicode="/" 
d="M1126 1427c0 -12 -3 -24 -9 -36l-900 -1801c-14 -28 -35.667 -42 -65 -42c-20 0 -38 7.16699 -54 21.5s-24 31.833 -24 52.5c0 12 3 24 9 36l900 1801c14 28 35.667 42 65 42c20 0 38 -7.16699 54 -21.5s24 -31.833 24 -52.5z" />
    <glyph glyph-name="zero" unicode="0" 
d="M1125 638c0 -162.667 -46 -306.334 -138 -431.001c-101.333 -138 -230.333 -207 -387 -207s-285.667 69 -387 207c-92 124.667 -138 268.334 -138 431.001c0 162 46 305.333 138 430c101.333 138 230.333 207 387 207s285.667 -69 387 -207
c92 -124.667 138 -268 138 -430zM975 638c0 119.333 -32 227 -96 323c-72 109.333 -165 164 -279 164s-207 -54.667 -279 -164c-64 -96 -96 -203.667 -96 -323c0 -120 32 -228 96 -324c72 -109.333 165 -164 279 -164s207 54.667 279 164c64 96 96 204 96 324zM676 637
c0 -20.667 -7.5 -38.5 -22.5 -53.5s-32.833 -22.5 -53.5 -22.5s-38.5 7.5 -53.5 22.5s-22.5 32.833 -22.5 53.5c0 49.333 25.333 74 76 74s76 -24.667 76 -74z" />
    <glyph glyph-name="one" unicode="1" 
d="M1000 75c0 -50 -25.001 -74.999 -75.001 -74.999h-550c-50 0 -75 25 -75 75s25 75 75 75h200v869l-247 -247c-15.333 -15.333 -32.666 -23 -51.999 -23c-20.667 0 -38.667 7.66699 -54 23s-23 33.333 -23 54c0 19.333 7.66699 36.666 23 51.999l365 365
c22 22 42.667 33 62 33c50.667 0 76 -30 76 -90v-1036h200c50 0 75 -25 75 -75z" />
    <glyph glyph-name="two" unicode="2" 
d="M1050 825c0 -104 -34.665 -200 -103.998 -288c-51.333 -65.333 -130.666 -135.333 -237.999 -210l-260 -177h527c50 0 75 -25 75 -75s-25 -75 -75 -75h-750c-57.333 0 -86 22 -86 66c0 21.333 13.667 44.333 41 69c21.333 18.667 51.666 39 90.999 61l98 53
c354 210 531 402 531 576c0 82.667 -29.333 153.334 -88 212.001s-129.334 88 -212.001 88s-153.334 -29.333 -212.001 -88s-88 -129.334 -88 -212.001c0 -50 -25 -75 -75 -75s-75 25 -75 75c0 124 44 230 132 318s194 132 318 132s230 -44 318 -132s132 -194 132 -318z" />
    <glyph glyph-name="three" unicode="3" 
d="M1070 1211c0 -23.333 -11.334 -45.333 -34.001 -66l-432 -396c128 -8 236 -59 324 -153s132 -205 132 -333c0 -134.667 -47.667 -249.667 -143 -345s-210 -143 -344 -143c-85.333 0 -166.666 22 -243.999 66c-80.667 44.667 -140.334 103.667 -179.001 177
c-7.33301 14.667 -11 28 -11 40c0 20 8 37.333 24 52s34.333 22 55 22c22.667 0 43.334 -12.667 62.001 -38c84 -112.667 181.667 -169 293 -169c92.667 0 172 33 238 99s99 145.667 99 239c0 92.667 -33 172 -99 238s-145.333 99 -238 99c-63.333 0 -126 -20.5 -188 -61.5
s-97.667 -61.5 -107 -61.5c-20 0 -37.5 7.5 -52.5 22.5s-22.5 32.5 -22.5 52.5c0 22 9.33301 41.333 28 58l561 515h-577c-50 0 -75 25 -75 75s25 75 75 75h770c56.667 0 85 -21.333 85 -64z" />
    <glyph glyph-name="four" unicode="4" 
d="M1125 300c0 -50 -25 -75 -75 -75h-225v-375c0 -50 -25 -75 -75 -75s-75 25 -75 75v375h-525c-54 0 -81 21 -81 63c0 17.333 6.33301 35.333 19 54l600 900c20 30 43.333 45 70 45c44.667 0 67 -29 67 -87v-825h225c50 0 75 -25 75 -75zM675 375v577l-385 -577h385z" />
    <glyph glyph-name="five" unicode="5" 
d="M1095 300c0 -144.667 -51.332 -268.33 -153.999 -370.997s-226.334 -154 -371.001 -154c-91.333 0 -179 23.667 -263 71c-86 48.667 -150 112.334 -192 191.001c-7.33301 14.667 -11 28 -11 40c0 20 8 37.333 24 52s34 22 54 22c23.333 0 44.333 -12.667 63 -38
c9.33301 -14.667 24.333 -35.667 45 -63c74 -83.333 167.333 -125 280 -125c103.333 0 191.666 36.667 264.999 110s110 161.666 110 264.999s-36.667 191.666 -110 264.999s-161.666 110 -264.999 110c-126.667 0 -235 -62.667 -325 -188c-23.333 -32 -47.333 -48 -72 -48
c-45.333 0 -68 26.333 -68 79c0 6 0.333008 12.333 1 19l105 675c2 15.333 10.833 29.666 26.5 42.999s31.5 20 47.5 20h735c50 0 75 -25 75 -75s-25 -75 -75 -75h-671l-59 -381c85.333 54 178.666 81 279.999 81c144.667 0 268.334 -51.333 371.001 -154
s154 -226.334 154 -371.001z" />
    <glyph glyph-name="six" unicode="6" 
d="M1125 1425c0 -50 -25.001 -75 -75.001 -75c-134 0 -260.667 -31 -380 -93s-217.666 -148 -294.999 -258c70.667 34 145.667 51 225 51c144.667 0 268.334 -51.333 371.001 -154s154 -226.334 154 -371.001s-51.333 -268.334 -154 -371.001s-226.334 -154 -371.001 -154
s-268.334 51.333 -371.001 154s-154 226.334 -154 371.001c0 268.667 95.333 498.334 286 689.001s420.334 286 689.001 286c50 0 75 -25 75 -75zM974.999 525c0 103.333 -36.667 191.666 -110 264.999s-161.666 110 -264.999 110s-191.666 -36.667 -264.999 -110
s-110 -161.666 -110 -264.999s36.667 -191.666 110 -264.999s161.666 -110 264.999 -110s191.666 36.667 264.999 110s110 161.666 110 264.999z" />
    <glyph glyph-name="seven" unicode="7" 
d="M1129 1211c0 -14.667 -4.33301 -30 -13 -46l-725 -1350c-14.667 -27.333 -36 -41 -64 -41c-20 0 -38 7.33301 -54 22s-24 32 -24 52c0 12.667 3.33301 25 10 37l666 1240h-775c-50 0 -75 25 -75 75s25 75 75 75h900c52.667 0 79 -21.333 79 -64z" />
    <glyph glyph-name="eight" unicode="8" 
d="M1050 450c0 -124 -43.998 -230 -131.998 -318s-194 -132 -318 -132s-230 44 -318 132s-132 194 -132 318c0 167.333 71.333 295 214 383c-92.667 75.333 -139 172.666 -139 291.999c0 103.333 36.667 191.666 110 264.999s161.666 110 264.999 110
s191.666 -36.667 264.999 -110s110 -161.666 110 -264.999c0 -119.333 -46.333 -216.666 -139 -291.999c142.667 -88 214 -215.667 214 -383zM825.002 1125c0 62 -22 115 -66 159s-97 66 -159 66s-115 -22 -159 -66s-66 -97 -66 -159s22 -115 66 -159s97 -66 159 -66
s115 22 159 66s66 97 66 159zM900.002 450c0 82.667 -29.333 153.334 -88 212.001s-129.334 88 -212.001 88s-153.334 -29.333 -212.001 -88s-88 -129.334 -88 -212.001s29.333 -153.334 88 -212.001s129.334 -88 212.001 -88s153.334 29.333 212.001 88
s88 129.334 88 212.001z" />
    <glyph glyph-name="nine" unicode="9" 
d="M1125 750c0 -268.667 -95.332 -498.334 -285.999 -689.001s-420.334 -286 -689.001 -286c-50 0 -75 25 -75 75s25 75 75 75c134 0 260.667 31 380 93s217.666 148 294.999 258c-70.667 -34 -145.667 -51 -225 -51c-144.667 0 -268.334 51.333 -371.001 154
s-154 226.334 -154 371.001s51.333 268.334 154 371.001s226.334 154 371.001 154s268.334 -51.333 371.001 -154s154 -226.334 154 -371.001zM975.001 750c0 103.333 -36.667 191.666 -110 264.999s-161.666 110 -264.999 110s-191.666 -36.667 -264.999 -110
s-110 -161.666 -110 -264.999s36.667 -191.666 110 -264.999s161.666 -110 264.999 -110s191.666 36.667 264.999 110s110 161.666 110 264.999z" />
    <glyph glyph-name="colon" unicode=":" 
d="M714 939c0 -31.333 -11.167 -58.166 -33.5 -80.499s-49.166 -33.5 -80.499 -33.5s-58.166 11.167 -80.499 33.5s-33.5 49.166 -33.5 80.499s11.167 57.666 33.5 78.999s49.166 32 80.499 32s58.166 -10.667 80.499 -32s33.5 -47.666 33.5 -78.999zM714 114
c0 -31.333 -11.167 -58.166 -33.5 -80.499s-49.166 -33.5 -80.499 -33.5s-58.166 11.167 -80.499 33.5s-33.5 49.166 -33.5 80.499s11.167 57.666 33.5 78.999s49.166 32 80.499 32s58.166 -10.667 80.499 -32s33.5 -47.666 33.5 -78.999z" />
    <glyph glyph-name="semicolon" unicode=";" 
d="M761 939c0 -31.333 -11.166 -58.166 -33.499 -80.499s-49.166 -33.5 -80.499 -33.5c-30.667 0 -57.334 11.167 -80.001 33.5s-34 49.166 -34 80.499s11.167 57.666 33.5 78.999s49.166 32 80.499 32c32 0 59 -10.667 81 -32s33 -47.666 33 -78.999zM722.001 75
c0 -154 -51.334 -278.001 -154.001 -372.001c-17.333 -15.333 -34.666 -23 -51.999 -23c-20.667 0 -38.667 7.66699 -54 23s-23 33.333 -23 54c0 16.667 7.66699 34 23 52c73.333 84.667 110 173.334 110 266.001c0 50 25 75 75 75s75 -25 75 -75z" />
    <glyph glyph-name="less" unicode="&#x3c;" 
d="M1126 190c0 -20.667 -7.16699 -38.999 -21.5 -54.999s-31.833 -24 -52.5 -24c-12 0 -24 3 -36 9l-887 444c-36.667 18.667 -55 43.334 -55 74.001c0 30 18.333 54.333 55 73l887 444c12 6 24 9 36 9c20.667 0 38.167 -8 52.5 -24s21.5 -34.333 21.5 -55
c0 -28.667 -14 -50.334 -42 -65.001l-766 -382l766 -383c28 -14.667 42 -36.334 42 -65.001z" />
    <glyph glyph-name="equal" unicode="=" 
d="M1125 863c0 -50 -25 -75 -75 -75h-900c-50 0 -75 25 -75 75s25 75 75 75h900c50 0 75 -25 75 -75zM1125 413c0 -50 -25 -75 -75 -75h-900c-50 0 -75 25 -75 75s25 75 75 75h900c50 0 75 -25 75 -75z" />
    <glyph glyph-name="greater" unicode="&#x3e;" 
d="M1126 638c0 -30.667 -18.333 -55.335 -55 -74.002l-887 -444c-12 -6 -24 -9 -36 -9c-20.667 0 -38.167 8 -52.5 24s-21.5 34.333 -21.5 55c0 28.667 14 50.334 42 65.001l766 383l-766 382c-28 14.667 -42 36.334 -42 65.001c0 20.667 7.16699 39 21.5 55
s31.833 24 52.5 24c12 0 24 -3 36 -9l887 -444c36.667 -18.667 55 -43 55 -73z" />
    <glyph glyph-name="question" unicode="?" 
d="M1125 1125c0 -118 -60.332 -212.666 -180.999 -283.999c-102.667 -60.667 -217.334 -91 -344.001 -91c-90.667 0 -154.667 -25.333 -192 -76c-9.33301 -12.667 -14 -25 -14 -37c0 -16 9.33301 -33.333 28 -52c39.333 -40 98.666 -60 177.999 -60
c22 0 49.167 4.33301 81.5 13s53.166 13 62.499 13c20 0 37.167 -7.83301 51.5 -23.5s21.5 -33.834 21.5 -54.501c0 -65.333 -72.333 -98 -217 -98c-87.333 0 -165.666 21.333 -234.999 64c-80.667 50 -121 116 -121 198c0 82.667 40.333 149 121 199
c69.333 42.667 147.666 64 234.999 64c164.667 0 279.667 47 345 141c20 28.667 30 56.667 30 84s-10 55.333 -30 84c-65.333 94 -180.333 141 -345 141s-279.667 -47 -345 -141c-20 -28.667 -30 -56.667 -30 -84c0 -50 -25 -75 -75 -75s-75 25 -75 75
c0 118 60.333 212.667 181 284c102.667 60.667 217.334 91 344.001 91s241.334 -30.333 344.001 -91c120.667 -71.333 181 -166 181 -284zM714.001 114.001c0 -31.333 -11.167 -58.166 -33.5 -80.499s-49.166 -33.5 -80.499 -33.5s-58.166 11.167 -80.499 33.5
s-33.5 49.166 -33.5 80.499s11.167 57.666 33.5 78.999s49.166 32 80.499 32s58.166 -10.667 80.499 -32s33.5 -47.666 33.5 -78.999z" />
    <glyph glyph-name="at" unicode="@" 
d="M1125 925c0 -144.667 -39.3359 -273.329 -118.003 -385.996c-88 -126 -201.333 -189 -340 -189c-97.333 0 -177.333 43.333 -240 130c-56 78.667 -84 168.667 -84 270s28 191.333 84 270c62.667 86.667 142.667 130 240 130c74.667 0 140.334 -27.333 197.001 -82
c52 -49.333 88.333 -112.333 109 -189c1.33301 15.333 2 30.666 2 45.999c0 101.333 -25.667 194 -77 278c-59.333 98 -136.333 147 -231 147c-94 0 -179.333 -37.667 -256 -113c-67.333 -66 -117 -147.667 -149 -245c-24.667 -76 -37 -156.667 -37 -242
s12.333 -166 37 -242c32 -97.333 81.667 -179 149 -245c76.667 -75.333 162 -113 256 -113c92 0 176.667 36.667 254 110l53 59c18.667 20.667 37.667 31 57 31c20.667 0 38.834 -7.66699 54.501 -23s23.5 -33 23.5 -53c0 -15.333 -5.33301 -30.666 -16 -45.999
c-49.333 -68.667 -111.666 -123.334 -186.999 -164.001c-77.333 -42.667 -157 -64 -239 -64c-179.333 0 -326 82.667 -440 248c-101.333 147.333 -152 314.666 -152 501.999s50.667 354.666 152 501.999c114 165.333 260.667 248 440 248c138.667 0 252 -63 340 -189
c78.667 -112.667 118 -241.334 118 -386.001zM840.997 750.005c0 58 -14.333 112 -43 162c-33.333 58.667 -77 88 -131 88s-97.667 -29.333 -131 -88c-28.667 -50 -43 -104 -43 -162s14.333 -112 43 -162c33.333 -58.667 77 -88 131 -88s97.667 29.333 131 88
c28.667 50 43 104 43 162z" />
    <glyph glyph-name="A" unicode="A" 
d="M1126 72c0 -48 -26 -72 -78 -72c-34.667 0 -57.667 17 -69 51l-133 399h-492l-133 -399c-11.333 -34 -34.333 -51 -69 -51c-52 0 -78 24 -78 72c0 8.66699 1.66699 17.667 5 27l446 1338c14 42 39 63 75 63s61 -21 75 -63l446 -1338c3.33301 -9.33301 5 -18.333 5 -27z
M796 600l-196 588l-196 -588h392z" />
    <glyph glyph-name="B" unicode="B" 
d="M1125 449c0 -124 -43.999 -230.002 -131.999 -318.002s-194.333 -132 -319 -132l-424 1c-20 0 -37.5 7.5 -52.5 22.5s-22.5 32.5 -22.5 52.5v1350c0 20 7.5 37.5 22.5 52.5s32.5 22.5 52.5 22.5h425c103.333 0 191.666 -36.667 264.999 -110s110 -161.666 110 -264.999
c0 -119.333 -46.333 -216.666 -139 -291.999c142.667 -88 214 -216 214 -384zM900.001 1125c0 62 -22 115 -66 159s-97 66 -159 66h-350v-450h350c62 0 115 22 159 66s66 97 66 159zM975.001 448.998c0 82.667 -29.333 153.499 -88 212.499s-129.334 88.5 -212.001 88.5
h-350v-600l350 -1c82.667 0 153.334 29.333 212.001 88s88 129.334 88 212.001z" />
    <glyph glyph-name="C" unicode="C" 
d="M1126 273c0 -14.667 -5.66602 -30.3311 -16.999 -46.998c-46.667 -66.667 -109.834 -121 -189.501 -163s-160.5 -63 -242.5 -63c-180.667 0 -329.334 82 -446.001 246c-104 147.333 -156 315.333 -156 504s52 356.667 156 504c116.667 164 265.334 246 446.001 246
c82 0 162.833 -21 242.5 -63s142.834 -96.333 189.501 -163c11.333 -16.667 17 -32.334 17 -47.001c0 -20 -7.83301 -37.667 -23.5 -53s-33.834 -23 -54.501 -23c-12.667 0 -27.834 6.16699 -45.501 18.5s-28.167 24.166 -31.5 35.499c-0.666992 1.33301 -7.66699 9 -21 23
c-81.333 81.333 -172.333 122 -273 122c-92.667 0 -177.667 -35.667 -255 -107c-68.667 -62.667 -120 -141.667 -154 -237c-28.667 -80 -43 -165.333 -43 -256s14.333 -176 43 -256c34 -95.333 85 -174.333 153 -237c77.333 -71.333 162.666 -107 255.999 -107
c100 0 191 40.667 273 122c6 4.66699 13 12 21 22c0.666992 10 10.834 21.667 30.501 35s35.167 20 46.5 20c20.667 0 38.834 -7.66699 54.501 -23s23.5 -33 23.5 -53z" />
    <glyph glyph-name="D" unicode="D" 
d="M1125 750c0 -206.667 -73.333 -383.332 -220 -529.999s-323.334 -220 -530.001 -220h-125c-20 0 -37.5 7.5 -52.5 22.5s-22.5 32.5 -22.5 52.5v1350c0 20 7.5 37.5 22.5 52.5s32.5 22.5 52.5 22.5h125c206.667 0 383.334 -73.333 530.001 -220s220 -323.334 220 -530.001
zM975 750.002c0 165.333 -58.667 306.668 -176 424.001s-258.666 176 -423.999 176h-50v-1200h50c165.333 0 306.666 58.667 423.999 176s176 258.666 176 423.999z" />
    <glyph glyph-name="E" unicode="E" 
d="M1125 75c0 -50 -25 -75 -75 -75h-800c-20 0 -37.5 7.5 -52.5 22.5s-22.5 32.5 -22.5 52.5v1350c0 20 7.5 37.5 22.5 52.5s32.5 22.5 52.5 22.5h800c50 0 75 -25 75 -75s-25 -75 -75 -75h-725v-525h725c50 0 75 -25 75 -75s-25 -75 -75 -75h-725v-525h725
c50 0 75 -25 75 -75z" />
    <glyph glyph-name="F" unicode="F" 
d="M1125 750c0 -50 -25 -75 -75 -75h-725v-600c0 -50 -25 -75 -75 -75s-75 25 -75 75v1351c0 49.333 24.667 74 74 74h801c50 0 75 -25 75 -75s-25 -75 -75 -75h-725v-525h725c50 0 75 -25 75 -75z" />
    <glyph glyph-name="G" unicode="G" 
d="M1076 1227c0 -20 -7.83203 -37.667 -23.499 -53s-33.834 -23 -54.501 -23c-20 0 -39.333 10.667 -58 32l-42 50c-76 78 -159.333 117 -250 117s-173 -38.333 -247 -115c-63.333 -65.333 -110 -146 -140 -242c-24 -76 -36 -157 -36 -243s12 -167 36 -243
c30 -96 76.667 -176.667 140 -242c74 -76.667 156.333 -115 247 -115c104.667 0 197 49.333 277 148v452c0 50 25 75 75 75s75 -25 75 -75v-478c0 -68.667 -55.333 -133 -166 -193c-98 -52.667 -185 -79 -261 -79c-175.333 0 -318 84 -428 252
c-96.667 146.667 -145 312.667 -145 498s48.333 351.333 145 498c110 168 252.667 252 428 252c79.333 0 157 -21.333 233 -64c74 -42 133.667 -96.667 179 -164c10.667 -15.333 16 -30.333 16 -45z" />
    <glyph glyph-name="H" unicode="H" 
d="M1025 75c0 -50 -25 -75 -75 -75s-75 25 -75 75v600h-550v-600c0 -50 -25 -75 -75 -75s-75 25 -75 75v1350c0 50 25 75 75 75s75 -25 75 -75v-600h550v600c0 50 25 75 75 75s75 -25 75 -75v-1350z" />
    <glyph glyph-name="I" unicode="I" 
d="M975 75c0 -50 -25 -75 -75 -75h-600c-50 0 -75 25 -75 75s25 75 75 75h225v1200h-225c-50 0 -75 25 -75 75s25 75 75 75h600c50 0 75 -25 75 -75s-25 -75 -75 -75h-225v-1200h225c50 0 75 -25 75 -75z" />
    <glyph glyph-name="J" unicode="J" 
d="M1025 75c0 -144.667 -51.333 -268.332 -154 -370.999s-226.334 -154 -371.001 -154c-76 0 -151.667 17.333 -227 52c-79.333 36 -139.666 83.667 -180.999 143c-12 17.333 -18 33 -18 47c0 20.667 7.83301 38.5 23.5 53.5s33.834 22.5 54.501 22.5
c18 0 36.667 -9.33301 56 -28c94.667 -93.333 192 -140 292 -140c103.333 0 191.666 36.667 264.999 110s110 161.666 110 264.999v1275h-725c-50 0 -75 25 -75 75s25 75 75 75h801c49.333 0 74 -24.667 74 -74v-1351z" />
    <glyph glyph-name="K" unicode="K" 
d="M1126 75c0 -20 -7.66699 -37.6689 -23 -53.002s-33.333 -23 -54 -23c-20 0 -37.667 8 -53 24l-650 675c-13.333 14 -20.333 26.667 -21 38v-661c0 -50 -25 -75 -75 -75s-75 25 -75 75v1350c0 50 25 75 75 75s75 -25 75 -75v-661c2.66699 14 9.66699 26.667 21 38l650 675
c15.333 16 33 24 53 24c20.667 0 38.667 -7.66699 54 -23s23 -33 23 -53c0 -19.333 -7.33301 -36.666 -22 -51.999l-600 -623l600 -623c14.667 -15.333 22 -32.666 22 -51.999zM333 715.998c-4 6.66699 -6.66699 13.667 -8 21v-1c0 -4 2.66699 -10.667 8 -20zM342 701.998
c-3.33301 4.66699 -7.33301 11 -12 19c3.33301 -6.66699 7.33301 -13 12 -19z" />
    <glyph glyph-name="L" unicode="L" 
d="M1125 75c0 -50 -25 -75 -75 -75h-800c-50 0 -75 24.667 -75 74v1351c0 50 25 75 75 75s75 -25 75 -75v-1275h725c50 0 75 -25 75 -75z" />
    <glyph glyph-name="M" unicode="M" 
d="M1125 73c0 -48.667 -25.334 -73 -76.001 -73c-43.333 0 -67.666 21.667 -72.999 65l-129 968l-172 -666c-11.333 -44.667 -36.333 -67 -75 -67s-63.667 22.333 -75 67l-172 666l-129 -968c-5.33301 -43.333 -29.666 -65 -72.999 -65c-50.667 -0 -76 24.333 -76 73
c0 4 0.333008 8 1 12l179 1341c6 49.333 31 74 75 74c38.667 0 63.667 -21.667 75 -65l195 -759l195 759c11.333 43.333 35.666 65 72.999 65c45.333 0 71 -24.667 77 -74l179 -1341c0.666992 -4 1 -8 1 -12z" />
    <glyph glyph-name="N" unicode="N" 
d="M1026 74c0 -50 -26 -75 -78 -75c-28.667 0 -51.667 17 -69 51l-554 1067v-1042c0 -50 -25 -75 -75 -75s-75 25 -75 75l-1 1351c0 50 26 75 78 75c28.667 0 51.667 -17 69 -51l554 -1067v1042c0 50 25 75 75 75s75 -25 75 -75z" />
    <glyph glyph-name="O" unicode="O" 
d="M1125 750c0 -179.333 -42 -342.333 -126 -489c-100 -174 -233 -261 -399 -261s-299 87 -399 261c-84 146.667 -126 309.667 -126 489s42 342.333 126 489c100 174 233 261 399 261s299 -87 399 -261c84 -146.667 126 -309.667 126 -489zM975 750
c0 87.333 -11 169.333 -33 246c-26 90.667 -66 168.667 -120 234c-66.667 80 -140.667 120 -222 120s-155.333 -40 -222 -120c-54 -65.333 -94 -143.333 -120 -234c-22 -76.667 -33 -158.667 -33 -246s11 -169.333 33 -246c26 -90.667 66 -168.667 120 -234
c66.667 -80 140.667 -120 222 -120s155.333 40 222 120c54 65.333 94 143.333 120 234c22 76.667 33 158.667 33 246z" />
    <glyph glyph-name="P" unicode="P" 
d="M1125 1050c0 -124 -44 -230 -132 -318s-194 -132 -318 -132h-350v-525c0 -50 -25 -75 -75 -75s-75 25 -75 75v1350c0 20 7.5 37.5 22.5 52.5s32.5 22.5 52.5 22.5h425c124 0 230 -44 318 -132s132 -194 132 -318zM975 1050c0 82.667 -29.333 153.332 -88 211.999
s-129.334 88 -212.001 88h-350v-600h350c82.667 0 153.334 29.333 212.001 88s88 129.334 88 212.001z" />
    <glyph glyph-name="Q" unicode="Q" 
d="M1125 -375c0 -50 -25 -75 -75 -75c-117.333 0 -221 47.667 -311 143c-76 80.667 -133 183.334 -171 308.001c-156.667 12.667 -281.667 104 -375 274c-78.667 144 -118 302.333 -118 475c0 179.333 42 342.333 126 489c100 174 233 261 399 261s299 -87 399 -261
c84 -146.667 126 -309.667 126 -489c0 -155.333 -32 -299.666 -96 -432.999c-74.667 -156.667 -178 -256.334 -310 -299.001c28 -82.667 68.333 -153.334 121 -212.001c64 -70.667 134 -106 210 -106c50 0 75 -25 75 -75zM975 750c0 87.333 -11 169.329 -33 245.996
c-26 90.667 -66 168.667 -120 234c-66.667 80 -140.667 120 -222 120s-155.333 -40 -222 -120c-54 -65.333 -94 -143 -120 -233c-22 -77.333 -33 -159.666 -33 -246.999c0 -124 23.333 -239.667 70 -347c57.333 -130.667 137 -211.667 239 -243
c-6 46.667 -9 93.334 -9 140.001c0 50 25 75 75 75s75 -25 75 -75c0 -45.333 3 -89.666 9 -132.999c96.667 38 171.667 119.667 225 245c44 104.667 66 217.334 66 338.001z" />
    <glyph glyph-name="R" unicode="R" 
d="M1126 76c0 -20.667 -7.66797 -38.6699 -23.001 -54.0029s-33.333 -23 -54 -23c-19.333 0 -36.666 7.66699 -51.999 23l-590 590c-22 22 -33 42.667 -33 62c0 50.667 30 76 90 76h211c82.667 0 153.334 29.333 212.001 88s88 129.334 88 212.001
s-29.333 153.334 -88 212.001s-129.334 88 -212.001 88h-350v-1275c0 -50 -25 -75 -75 -75s-75 25 -75 75v1351c0 49.333 24.667 74 74 74h426c124 0 230 -44 318 -132s132 -194 132 -318s-44 -230 -132 -318s-194 -132 -318 -132h-44l472 -472
c15.333 -15.333 23 -32.666 23 -51.999z" />
    <glyph glyph-name="S" unicode="S" 
d="M1125 450c0 -135.333 -60.665 -246.335 -181.998 -333.002c-109.333 -78 -234.333 -117 -375 -117c-91.333 0 -180 18 -266 54c-94 40 -164.667 94.667 -212 164c-10.667 16 -16 31.333 -16 46c0 20 7.83301 37.5 23.5 52.5s33.834 22.5 54.501 22.5
c19.333 0 38.666 -10.333 57.999 -31c9.33301 -11.333 24 -27.333 44 -48c81.333 -73.333 186 -110 314 -110c98 0 187.333 25 268 75c92.667 58 139 133 139 225s-46.333 167 -139 225c-80.667 50 -170 75 -268 75c-116.667 0 -220.334 32.667 -311.001 98
c-100 72 -150 164.333 -150 277s50 205 150 277c90.667 65.333 194.334 98 311.001 98c75.333 0 148 -15 218 -45c77.333 -32.667 135.666 -77.334 174.999 -134.001c11.333 -15.333 17 -30.666 17 -45.999c0 -20 -8 -37.5 -24 -52.5s-34 -22.5 -54 -22.5
c-18.667 0 -38.334 10.333 -59.001 31c-78 79.333 -169 119 -273 119c-74 0 -141.667 -18.667 -203 -56c-72 -43.333 -108 -99.666 -108 -168.999s36 -125.666 108 -168.999c61.333 -37.333 129 -56 203 -56c140.667 0 265.667 -39 375 -117
c121.333 -86.667 182 -197.667 182 -333z" />
    <glyph glyph-name="T" unicode="T" 
d="M1125 1425c0 -50 -25 -75 -75 -75h-375v-1275c0 -50 -25 -75 -75 -75s-75 25 -75 75v1275h-375c-50 0 -75 25 -75 75s25 75 75 75h900c50 0 75 -25 75 -75z" />
    <glyph glyph-name="U" unicode="U" 
d="M1075 475c0 -131.333 -46.333 -243.333 -139 -336s-204.667 -139 -336 -139s-243.333 46.333 -336 139s-139 204.667 -139 336v950c0 50 25 75 75 75s75 -25 75 -75v-950c0 -89.333 31.833 -165.833 95.5 -229.5s140.167 -95.5 229.5 -95.5s165.833 31.833 229.5 95.5
s95.5 140.167 95.5 229.5v950c0 50 25 75 75 75s75 -25 75 -75v-950z" />
    <glyph glyph-name="V" unicode="V" 
d="M1126 1428c0 -8.66699 -1.66699 -17.667 -5 -27l-446 -1338c-14 -42 -39 -63 -75 -63s-61 21 -75 63l-446 1338c-3.33301 9.33301 -5 18.333 -5 27c0 48 26 72 78 72c34.667 0 57.667 -17 69 -51l379 -1137l379 1137c11.333 34 34.333 51 69 51c52 0 78 -24 78 -72z" />
    <glyph glyph-name="W" unicode="W" 
d="M1125 1428c0 -5.33301 -0.333008 -10.333 -1 -15l-224 -1341c-8 -48 -33.333 -72 -76 -72c-38 0 -62.667 22 -74 66l-150 600l-150 -600c-10.667 -44 -35.334 -66 -74.001 -66c-43.333 0 -68.666 24 -75.999 72l-224 1341c-0.666992 4.66699 -1 9.66699 -1 15
c0 48 25.333 72 76 72c42 0 66.333 -21 73 -63l166 -994l135 540c10.667 44.667 35.667 67 75 67c38.667 0 63.667 -22.333 75 -67l135 -540l166 994c6.66699 42 31 63 73 63c50.667 0 76 -24 76 -72z" />
    <glyph glyph-name="X" unicode="X" 
d="M1126 74c0 -20 -8 -37.5 -24 -52.5s-34 -22.5 -54 -22.5c-24.667 0 -44.667 11.333 -60 34l-388 582l-388 -582c-15.333 -22.667 -35.333 -34 -60 -34c-20 0 -38 7.5 -54 22.5s-24 32.5 -24 52.5c0 14.667 4.66699 29 14 43l422 633l-422 633
c-9.33301 14 -14 28.333 -14 43c0 20 8 37.5 24 52.5s34 22.5 54 22.5c24.667 0 44.667 -11.333 60 -34l388 -582l388 582c15.333 22.667 35.333 34 60 34c20 0 38 -7.5 54 -22.5s24 -32.5 24 -52.5c0 -14.667 -4.66699 -29 -14 -43l-422 -633l422 -633
c9.33301 -14 14 -28.333 14 -43z" />
    <glyph glyph-name="Y" unicode="Y" 
d="M1126 1426c0 -14.667 -4.66699 -29 -14 -43l-437 -656v-652c0 -50 -25 -75 -75 -75s-75 25 -75 75v652l-437 656c-9.33301 14 -14 28.333 -14 43c0 20 8 37.5 24 52.5s34 22.5 54 22.5c24.667 0 44.667 -11.333 60 -34l388 -582l388 582c15.333 22.667 35.333 34 60 34
c20 0 38 -7.5 54 -22.5s24 -32.5 24 -52.5z" />
    <glyph glyph-name="Z" unicode="Z" 
d="M1126 1426c0 -14.667 -7 -32.667 -21 -54l-815 -1222h760c50 0 75 -25 75 -75s-25 -75 -75 -75l-897 -1c-52.667 0 -79 25 -79 75c0 14.667 7 32.667 21 54l815 1222h-760c-50 0 -75 25 -75 75s25 75 75 75l897 1c52.667 0 79 -25 79 -75z" />
    <glyph glyph-name="bracketleft" unicode="[" 
d="M900 -375c0 -50 -25 -75 -75 -75h-450c-20 0 -37.5 7.5 -52.5 22.5s-22.5 32.5 -22.5 52.5v1800c0 20 7.5 37.5 22.5 52.5s32.5 22.5 52.5 22.5h450c50 0 75 -25 75 -75s-25 -75 -75 -75h-375v-1650h375c50 0 75 -25 75 -75z" />
    <glyph glyph-name="backslash" unicode="\" 
d="M1126 -378c0 -20.667 -8 -38.167 -24 -52.5s-34 -21.5 -54 -21.5c-29.333 0 -51 14 -65 42l-900 1801c-6 12 -9 24 -9 36c0 20.667 8 38.167 24 52.5s34 21.5 54 21.5c29.333 0 51 -14 65 -42l900 -1801c6 -12 9 -24 9 -36z" />
    <glyph glyph-name="bracketright" unicode="]" 
d="M900 1425v-1800c0 -20 -7.5 -37.5 -22.5 -52.5s-32.5 -22.5 -52.5 -22.5h-450c-50 0 -75 25 -75 75s25 75 75 75h375v1650h-375c-50 0 -75 25 -75 75s25 75 75 75h450c20 0 37.5 -7.5 52.5 -22.5s22.5 -32.5 22.5 -52.5z" />
    <glyph glyph-name="asciicircum" unicode="^" 
d="M976 1126c0 -20.667 -7.66797 -38.667 -23.001 -54s-33.333 -23 -54 -23c-19.333 0 -36.666 7.66699 -51.999 23l-247 247l-247 -247c-15.333 -15.333 -32.666 -23 -51.999 -23c-20.667 0 -38.667 7.66699 -54 23s-23 33.333 -23 54c0 19.333 7.66699 36.666 23 51.999
l300 300c15.333 15.333 32.666 23 51.999 23c20.667 0 38.667 -7.66699 54 -23l300 -300c15.333 -15.333 23 -32.666 23 -51.999z" />
    <glyph glyph-name="underscore" unicode="_" 
d="M1125 75c0 -50 -25 -75 -75 -75h-900c-50 0 -75 25 -75 75s25 75 75 75h900c50 0 75 -25 75 -75z" />
    <glyph glyph-name="grave" unicode="`" 
d="M451 1047c0 -20 -8 -37.167 -24 -51.5s-34 -21.5 -54 -21.5c-32.667 0 -55.334 16 -68.001 48l-150 375c-4 10.667 -6 21 -6 31c0 20 8 37.167 24 51.5s34 21.5 54 21.5c32.667 0 55.334 -16 68.001 -48l150 -375c4 -10.667 6 -21 6 -31z" />
    <glyph glyph-name="a" unicode="a" 
d="M1075 75c0 -50 -25 -75.001 -75 -75.001c-51.333 0 -76.333 35.333 -75 106c-98.667 -70.667 -215.334 -106 -350.001 -106c-123.333 0 -233.666 31 -330.999 93c-112.667 72 -169 166 -169 282s56.333 210 169 282c98 62 208.333 93 331 93
c134.667 0 251.334 -35.333 350.001 -106v31c0 29.333 -10.333 59 -31 89c-61.333 90.667 -167.666 136 -318.999 136c-86.667 0 -172.334 -24.667 -257.001 -74c-17.333 -10 -32.333 -15 -45 -15c-20 0 -37.5 7.83301 -52.5 23.5s-22.5 33.834 -22.5 54.501
c0 49.333 52.333 90.333 157 123c81.333 25.333 154.666 38 219.999 38c122.667 0 233 -31 331 -93c112.667 -72 169 -166 169 -282v-600zM925 374.999c0 47.333 -22.667 91.002 -68 131.002c-38 33.333 -83 57.666 -135 72.999c-45.333 14 -94.333 21 -147 21
c-154.667 0 -262.334 -47.333 -323.001 -142c-18 -28 -27 -55.667 -27 -83s9 -55 27 -83c60.667 -94.667 168.334 -142 323.001 -142c52.667 0 101.667 7 147 21c52 15.333 97 39.666 135 72.999c45.333 40 68 83.667 68 131z" />
    <glyph glyph-name="b" unicode="b" 
d="M1125 525c0 -142 -47.668 -264.333 -143.001 -367c-97.333 -105.333 -216.333 -158 -357 -158s-259.667 52.667 -357 158c-95.333 102.667 -143 225 -143 367v900c0 50 25 75 75 75s75 -25 75 -75v-525c96.667 100 213.334 150 350.001 150
c140.667 0 259.667 -52.667 357 -158c95.333 -102.667 143 -225 143 -367zM974.999 525c0 100.667 -33 187.667 -99 261c-68 76 -151.667 114 -251 114s-183 -38 -251 -114c-66 -73.333 -99 -160.333 -99 -261s33 -187.667 99 -261c68 -76 151.667 -114 251 -114
s183 38 251 114c66 73.333 99 160.333 99 261z" />
    <glyph glyph-name="c" unicode="c" 
d="M1126 845c0 -20.667 -7.66895 -38.8291 -23.002 -54.4961s-33 -23.5 -53 -23.5c-14 0 -30.333 6.33301 -49 19c-107.333 76 -215.333 114 -324 114c-114.667 0 -216.667 -33.333 -306 -100c-97.333 -72.667 -146 -164.334 -146 -275.001s49 -202.334 147 -275.001
c88.667 -66.667 190.334 -100 305.001 -100c108 0 216 37.667 324 113c18 12.667 34 19 48 19c20.667 0 38.667 -7.83301 54 -23.5s23 -33.5 23 -53.5c0 -19.333 -9.33301 -38 -28 -56c-46.667 -46.667 -112 -83.667 -196 -111c-76.667 -25.333 -151.667 -38 -225 -38
c-156.667 0 -294 47.667 -412 143c-126.667 101.333 -190 228.666 -190 381.999s63.333 280.666 190 381.999c118 95.333 255.333 143 412 143c73.333 0 148.333 -12.667 225 -38c84.667 -28 150.334 -65.333 197.001 -112c18 -18 27 -36.333 27 -55z" />
    <glyph glyph-name="d" unicode="d" 
d="M1025 75c0 -50 -25 -75 -75 -75c-36.667 0 -59.667 16 -69 48c-4 14 -6 45.333 -6 94c-90.667 -94.667 -199 -142 -325 -142c-136.667 0 -251 54 -343 162c-88 103.333 -132 224.333 -132 363s44 259.667 132 363c92 108 206.333 162 343 162
c126 0 234.333 -47.333 325 -142v517c0 50 25 75 75 75s75 -25 75 -75v-1350zM875 525c0 97.333 -29.333 182.666 -88 255.999c-63.333 79.333 -142.333 119 -237 119s-173.667 -39.667 -237 -119c-58.667 -73.333 -88 -158.666 -88 -255.999s29.333 -182.666 88 -255.999
c63.333 -79.333 142.333 -119 237 -119s173.667 39.667 237 119c58.667 73.333 88 158.666 88 255.999z" />
    <glyph glyph-name="e" unicode="e" 
d="M1126 301c0 -12.667 -4 -26.332 -12 -40.999c-46 -80 -115 -143.667 -207 -191c-87.333 -46 -179 -69 -275 -69c-150 0 -279.333 49.667 -388 149c-112.667 102 -169 227.333 -169 376s56.333 274 169 376c108.667 99.333 238 149 388 149
c54.667 0 111.667 -9.66699 171 -29c66.667 -22 133 -57 199 -105c82 -60 123 -117 123 -171c0 -26.667 -13 -47 -39 -61l-758 -408c82 -84 183.333 -126 304 -126c128.667 0 232.667 44.667 312 134l42.5 55c19 24.667 39.5 37 61.5 37c20 0 38 -7.33301 54 -22
s24 -32.334 24 -53.001zM937 774.002c-81.333 84 -183 126.001 -305 126.001c-108 0 -202 -35 -282 -105c-83.333 -73.333 -125 -163.333 -125 -270c0 -42.667 7.33301 -83.334 22 -122.001z" />
    <glyph glyph-name="f" unicode="f" 
d="M1126 1274c0 -20 -7.83008 -37.499 -23.4971 -52.499s-33.834 -22.5 -54.501 -22.5c-16.667 0 -38.334 13 -65.001 39c-37.333 36 -66 60.333 -86 73c-42 26 -91 39 -147 39c-82.667 0 -153.334 -29.333 -212.001 -88s-88 -129.334 -88 -212.001h375c50 0 75 -25 75 -75
s-25 -75 -75 -75h-375v-825c0 -50 -25 -75 -75 -75s-75 25 -75 75v825h-150c-50 0 -75 25 -75 75s25 75 75 75h150c0 124 44 230 132 318s194 132 318 132c68 0 135.333 -16 202 -48c70 -33.333 122.667 -77.333 158 -132c10.667 -16.667 16 -32 16 -46z" />
    <glyph glyph-name="g" unicode="g" 
d="M1125 975c0 -40.667 -21.667 -65 -65 -73c-10.667 -2 -47.667 -2.66699 -111 -2c57.333 -65.333 86 -140.333 86 -225c0 -120 -53.667 -217 -161 -291c167.333 -87.333 251 -215.333 251 -384c0 -132 -55.667 -241.667 -167 -329c-102.667 -80.667 -222 -121 -358 -121
s-255.333 40.333 -358 121c-111.333 87.333 -167 197 -167 329c0 50 25 75 75 75s75 -25 75 -75c0 -90 41.333 -164 124 -222c74 -52 157.667 -78 251 -78s177 26 251 78c82.667 58 124 132 124 222s-41.333 164 -124 222c-74 52 -157.667 78 -251 78
c-112.667 0 -211.667 33.667 -297 101c-92 72.667 -138 164 -138 274s46 201.333 138 274c85.333 67.333 184.333 101 297 101h450c50 0 75 -25 75 -75zM885 675c0 67.333 -31.667 123 -95 167c-56 38.667 -119.333 58 -190 58s-134 -19.333 -190 -58
c-63.333 -44 -95 -99.667 -95 -167s31.667 -123 95 -167c56 -38.667 119.333 -58 190 -58s134 19.333 190 58c63.333 44 95 99.667 95 167z" />
    <glyph glyph-name="h" unicode="h" 
d="M1075 75c0 -50 -24.998 -75 -74.998 -75s-75 25 -75 75v525c0 82.667 -29.333 153.334 -88 212.001s-129.334 88 -212.001 88s-153.334 -29.333 -212.001 -88s-88 -129.334 -88 -212.001v-525c0 -50 -25 -75 -75 -75s-75 25 -75 75v1350c0 50 25 75 75 75s75 -25 75 -75
v-490c85.333 76.667 185.333 115 300 115c124 0 230 -44 318 -132s132 -194 132 -318v-525z" />
    <glyph glyph-name="i" unicode="i" 
d="M714 1386c0 -31.333 -11.167 -57.666 -33.5 -78.999s-49.166 -32 -80.499 -32s-58.166 10.667 -80.499 32s-33.5 47.666 -33.5 78.999s11.167 58.166 33.5 80.499s49.166 33.5 80.499 33.5s58.166 -11.167 80.499 -33.5s33.5 -49.166 33.5 -80.499zM975 75
c0 -50 -25 -75 -75 -75h-300c-50 0 -75 25 -75 75v825h-225c-50 0 -75 25 -75 75s25 75 75 75h301c49.333 0 74 -25 74 -75v-825h225c50 0 75 -25 75 -75z" />
    <glyph glyph-name="j" unicode="j" 
d="M1064 1386c0 -31.333 -11.167 -57.666 -33.5 -78.999s-49.166 -32 -80.499 -32s-58.166 10.667 -80.499 32s-33.5 47.666 -33.5 78.999s11.167 58.166 33.5 80.499s49.166 33.5 80.499 33.5s58.166 -11.167 80.499 -33.5s33.5 -49.166 33.5 -80.499zM1025 75
c0 -144.667 -51.333 -268.332 -154 -370.999s-226.334 -154 -371.001 -154c-76 0 -151.667 17.333 -227 52c-79.333 36 -139.666 83.667 -180.999 143c-12 17.333 -18 33 -18 47c0 20.667 7.83301 38.5 23.5 53.5s33.834 22.5 54.501 22.5c18 0 36.667 -9.33301 56 -28
c94.667 -93.333 192 -140 292 -140c103.333 0 191.666 36.667 264.999 110s110 161.666 110 264.999v825h-225c-50 0 -75 25 -75 75s25 75 75 75h301c49.333 0 74 -24.667 74 -74v-901z" />
    <glyph glyph-name="k" unicode="k" 
d="M1126 77c0 -20 -7.5 -38 -22.5 -54s-32.5 -24 -52.5 -24c-15.333 0 -30 4.66699 -44 14l-640 444c-24.667 16.667 -38.667 34.667 -42 54v-436c0 -50 -25 -75 -75 -75s-75 25 -75 75v1350c0 50 25 75 75 75s75 -25 75 -75v-886c3.33301 19.333 17.333 37.333 42 54
l640 444c14 9.33301 28.667 14 44 14c20 0 37.5 -8 52.5 -24s22.5 -34 22.5 -54c0 -24.667 -11 -44.667 -33 -60l-561 -388l561 -388c22 -15.333 33 -35.333 33 -60z" />
    <glyph glyph-name="l" unicode="l" 
d="M1126 226c0 -14 -5.33496 -29.332 -16.002 -45.999c-35.333 -54 -88 -98 -158 -132c-66.667 -32 -134 -48 -202 -48c-124 0 -230 44 -318 132s-132 194 -132 318v975c0 50 25 75 75 75s75 -25 75 -75v-975c0 -82.667 29.333 -153.334 88 -212.001
s129.334 -88 212.001 -88c72.667 0 137.5 25.167 194.5 75.5s91.5 75.5 103.5 75.5c20.667 0 38.834 -7.5 54.501 -22.5s23.5 -32.5 23.5 -52.5z" />
    <glyph glyph-name="m" unicode="m" 
d="M1125 75c0 -50 -25.0049 -74.999 -75.0049 -74.999s-75 25 -75 75v675c0 41.333 -14.667 76.666 -44 105.999s-64.666 44 -105.999 44s-76.666 -14.667 -105.999 -44s-44 -64.666 -44 -105.999v-675c0 -50 -25 -75 -75 -75s-75 25 -75 75v675
c0 41.333 -14.667 76.666 -44 105.999s-64.666 44 -105.999 44s-76.666 -14.667 -105.999 -44s-44 -64.666 -44 -105.999v-675c0 -50 -25 -75 -75 -75s-75 25 -75 75v900c0 50 25 75 75 75c34 0 57 -14.667 69 -44c48 29.333 100 44 156 44c90 0 165 -34 225 -102
c60 68 135 102 225 102c82.667 0 153.334 -29.333 212.001 -88s88 -129.334 88 -212.001v-675z" />
    <glyph glyph-name="n" unicode="n" 
d="M1075 75c0 -50 -24.998 -75 -74.998 -75s-75 25 -75 75v525c0 82.667 -29.333 153.334 -88 212.001s-129.334 88 -212.001 88s-153.334 -29.333 -212.001 -88s-88 -129.334 -88 -212.001v-525c0 -50 -25 -75 -75 -75s-75 25 -75 75v900c0 50 25 75 75 75
c50.667 0 75.667 -38.333 75 -115c85.333 76.667 185.333 115 300 115c124 0 230 -44 318 -132s132 -194 132 -318v-525z" />
    <glyph glyph-name="o" unicode="o" 
d="M1125 525c0 -144.667 -51.333 -268.334 -154 -371.001s-226.334 -154 -371.001 -154s-268.334 51.333 -371.001 154s-154 226.334 -154 371.001s51.333 268.334 154 371.001s226.334 154 371.001 154s268.334 -51.333 371.001 -154s154 -226.334 154 -371.001zM975 525
c0 103.333 -36.667 191.666 -110 264.999s-161.666 110 -264.999 110s-191.666 -36.667 -264.999 -110s-110 -161.666 -110 -264.999s36.667 -191.666 110 -264.999s161.666 -110 264.999 -110s191.666 36.667 264.999 110s110 161.666 110 264.999z" />
    <glyph glyph-name="p" unicode="p" 
d="M1125 525c0 -138.667 -44 -259.667 -132 -363c-92 -108 -206.333 -162 -343 -162c-126 -0 -234.333 47.333 -325 142v-517c0 -50 -25 -75 -75 -75s-75 25 -75 75v1350c0 50 25 75 75 75c36.667 0 59.667 -16 69 -48c4 -14 6 -45.333 6 -94c90.667 94.667 199 142 325 142
c136.667 0 251 -54 343 -162c88 -103.333 132 -224.333 132 -363zM975 525c0 97.333 -29.333 182.666 -88 255.999c-63.333 79.333 -142.333 119 -237 119s-173.667 -39.667 -237 -119c-58.667 -73.333 -88 -158.666 -88 -255.999s29.333 -182.666 88 -255.999
c63.333 -79.333 142.333 -119 237 -119s173.667 39.667 237 119c58.667 73.333 88 158.666 88 255.999z" />
    <glyph glyph-name="q" unicode="q" 
d="M1025 -375c0 -50 -25 -75 -75 -75s-75 25 -75 75v517c-90.667 -94.667 -199 -142 -325 -142c-136.667 0 -251 54 -343 162c-88 103.333 -132 224.333 -132 363s44 259.667 132 363c92 108 206.333 162 343 162c126 0 234.333 -47.333 325 -142v38
c-1.33301 69.333 23.667 104 75 104c50 0 75 -25 75 -75v-1350zM875 525c0 97.333 -29.333 182.666 -88 255.999c-63.333 79.333 -142.333 119 -237 119s-173.667 -39.667 -237 -119c-58.667 -73.333 -88 -158.666 -88 -255.999s29.333 -182.666 88 -255.999
c63.333 -79.333 142.333 -119 237 -119s173.667 39.667 237 119c58.667 73.333 88 158.666 88 255.999z" />
    <glyph glyph-name="r" unicode="r" 
d="M1126 808c0 -20.667 -7.83105 -38.501 -23.498 -53.501s-33.834 -22.5 -54.501 -22.5c-18.667 0 -37.334 9.66699 -56.001 29c-92 92.667 -189.333 139 -292 139c-103.333 0 -191.666 -36.667 -264.999 -110s-110 -161.666 -110 -264.999v-450c0 -50 -25 -75 -75 -75
s-75 25 -75 75v900c0 50 25 75 75 75c38.667 0 62.667 -18.667 72 -56c2.66699 -12 3.66699 -46 3 -102c102.667 105.333 227.667 158 375 158c76 0 151.667 -17.333 227 -52c79.333 -36 139.666 -83.667 180.999 -143c12 -17.333 18 -33 18 -47z" />
    <glyph glyph-name="s" unicode="s" 
d="M1056 338c0 -106.667 -53.666 -192.002 -160.999 -256.002c-91.333 -54.667 -194 -82 -308 -82c-85.333 0 -167 16.333 -245 49c-90 38 -152.667 90.667 -188 158c-7.33301 14 -11 27 -11 39c0 20 8 37.333 24 52s34 22 54 22c22.667 0 43.667 -13 63 -39
c66 -87.333 167 -131 303 -131c134.667 0 230.667 37 288 111c20.667 26.667 31 52.334 31 77.001c0 40.667 -23.333 78.334 -70 113.001c-37.333 26.667 -80 46 -128 58c-40 10.667 -85.333 16 -136 16c-86 0 -163 21.667 -231 65c-78.667 50 -118 116 -118 198
s40.333 148 121 198c69.333 42.667 148 64 236 64c54.667 0 109 -9.66699 163 -29c62 -22 107.333 -52 136 -90c13.333 -17.333 20 -33.666 20 -48.999c0 -20 -7.83301 -37.667 -23.5 -53s-33.834 -23 -54.501 -23c-8.66699 0 -36.167 15.667 -82.5 47
s-99.166 47 -158.499 47c-90.667 0 -154.334 -24.667 -191.001 -74c-10.667 -14 -16 -26.667 -16 -38c0 -48 41.667 -82.333 125 -103c28 -6.66699 61.333 -10 100 -10c112 0 212.667 -27.667 302 -83c104 -64.667 156 -149.334 156 -254.001z" />
    <glyph glyph-name="t" unicode="t" 
d="M1126 226c0 -14 -5.33594 -29.332 -16.0029 -45.999c-35.333 -54 -88 -98 -158 -132c-66.667 -32 -134 -48 -202 -48c-124 0 -230 44 -318 132s-132 194 -132 318v450h-150c-50 0 -75 25 -75 75s25 75 75 75h150v375c0 50 25 75 75 75s75 -25 75 -75v-375h375
c50 0 75 -25 75 -75s-25 -75 -75 -75h-375v-450c0 -82.667 29.333 -153.334 88 -212.001s129.334 -88 212.001 -88c56 0 105 13 147 39c20 12.667 48.667 37 86 73c26.667 26 48.334 39 65.001 39c20.667 0 38.834 -7.5 54.501 -22.5s23.5 -32.5 23.5 -52.5z" />
    <glyph glyph-name="u" unicode="u" 
d="M1075 475c0 -131.333 -46.333 -243.333 -139 -336s-204.667 -139 -336 -139s-243.333 46.333 -336 139s-139 204.667 -139 336v500c0 50 25 75 75 75s75 -25 75 -75v-500c0 -89.333 31.833 -165.833 95.5 -229.5s140.167 -95.5 229.5 -95.5s165.833 31.833 229.5 95.5
s95.5 140.167 95.5 229.5v500c0 50 25 75 75 75s75 -25 75 -75v-500z" />
    <glyph glyph-name="v" unicode="v" 
d="M1126 977c0 -12 -2.99805 -24 -8.99805 -36l-443 -887c-18.667 -36.667 -43.334 -55 -74.001 -55s-55.334 18.333 -74.001 55l-443 887c-6 12 -9 24 -9 36c0 20.667 8 38.167 24 52.5s34 21.5 54 21.5c29.333 0 51 -14 65 -42l383 -766l383 766c14 28 35.667 42 65 42
c20 0 38 -7.16699 54 -21.5s24 -31.833 24 -52.5z" />
    <glyph glyph-name="w" unicode="w" 
d="M1126 978c0 -8 -1.33301 -16.333 -4 -25l-267 -888c-12.667 -43.333 -37.667 -65 -75 -65s-62.333 21.667 -75 65l-105 348l-105 -348c-12.667 -43.333 -37.667 -65 -75 -65s-62.333 21.667 -75 65l-267 888c-2.66699 8.66699 -4 17 -4 25c0 48 26 72 78 72
c36 0 59.333 -17.667 70 -53l198 -661l102 338c-58.667 194.667 -88 296 -88 304c0 48 26 72 78 72c36 0 59.333 -17.667 70 -53l198 -661l198 661c10.667 35.333 34 53 70 53c52 0 78 -24 78 -72z" />
    <glyph glyph-name="x" unicode="x" 
d="M1126 974c0 -19.333 -7.66699 -36.666 -23 -51.999l-397 -397l397 -397c15.333 -15.333 23 -32.666 23 -51.999c0 -20.667 -7.66699 -38.667 -23 -54s-33.333 -23 -54 -23c-19.333 0 -36.666 7.66699 -51.999 23l-397 397l-397 -397
c-15.333 -15.333 -32.666 -23 -51.999 -23c-20.667 0 -38.667 7.66699 -54 23s-23 33.333 -23 54c0 19.333 7.66699 36.666 23 51.999l397 397l-397 397c-15.333 15.333 -23 32.666 -23 51.999c0 20.667 7.66699 38.667 23 54s33.333 23 54 23
c19.333 0 36.666 -7.66699 51.999 -23l397 -397l397 397c15.333 15.333 32.666 23 51.999 23c20.667 0 38.667 -7.66699 54 -23s23 -33.333 23 -54z" />
    <glyph glyph-name="y" unicode="y" 
d="M1025 975l-0.00195312 -974.999c0 -124 -44 -230 -132 -318s-194 -132 -318 -132c-78.667 0 -153.334 20 -224.001 60c-73.333 41.333 -128.333 95.666 -165 162.999c-7.33301 14.667 -11 28 -11 40c0 20 8 37.333 24 52s34 22 54 22c22.667 0 43.667 -12.667 63 -38
c74.667 -99.333 161 -149 259 -149c82.667 0 153.334 29.333 212.001 88s88 129.334 88 212.001v115c-85.333 -76.667 -185.333 -115 -300 -115c-124 0 -230 44 -318 132s-132 194 -132 318v525c0 50 25 75 75 75s75 -25 75 -75v-525c0 -82.667 29.333 -153.334 88 -212.001
s129.334 -88 212.001 -88s153.334 29.333 212.001 88s88 129 88 211v526c0 50 25 75 75 75s75 -25 75 -75z" />
    <glyph glyph-name="z" unicode="z" 
d="M1126 974c0 -19.333 -11 -40 -33 -62l-762 -762h719c50 0 75 -25 75 -75s-25 -75 -75 -75l-898 -1c-52 0 -78 25.667 -78 77c0 19.333 11 40 33 62l762 762h-719c-50 0 -75 25 -75 75s25 75 75 75l898 1c52 0 78 -25.667 78 -77z" />
    <glyph glyph-name="braceleft" unicode="{" 
d="M900 -375c0 -50 -25 -75.002 -75 -75.002c-82.667 0 -153.334 29.333 -212.001 88s-88 129.334 -88 212.001v450c0 41.333 -14.667 76.666 -44 105.999s-64.666 44 -105.999 44c-50 0 -75 25 -75 75s25 75 75 75c41.333 0 76.666 14.667 105.999 44s44 64.666 44 105.999
v450c0 82.667 29.333 153.334 88 212.001s129.334 88 212.001 88c50 0 75 -25 75 -75s-25 -75 -75 -75c-41.333 0 -76.666 -14.667 -105.999 -44s-44 -64.666 -44 -105.999v-450c0 -90 -34 -165 -102 -225c68 -60 102 -135 102 -225v-450
c0 -41.333 14.667 -76.666 44 -105.999s64.666 -44 105.999 -44c50 0 75 -25 75 -75z" />
    <glyph glyph-name="bar" unicode="|" 
d="M675 -375c0 -50 -25 -75 -75 -75s-75 25 -75 75v1800c0 50 25 75 75 75s75 -25 75 -75v-1800z" />
    <glyph glyph-name="braceright" unicode="}" 
d="M900 525c0 -50 -25 -74.998 -75 -74.998c-41.333 0 -76.666 -14.667 -105.999 -44s-44 -64.666 -44 -105.999v-450c0 -82.667 -29.333 -153.334 -88 -212.001s-129.334 -88 -212.001 -88c-50 0 -75 25 -75 75s25 75 75 75c41.333 0 76.666 14.667 105.999 44
s44 64.666 44 105.999v450c0 90 34 165 102 225c-68 60 -102 135 -102 225v450c0 41.333 -14.667 76.666 -44 105.999s-64.666 44 -105.999 44c-50 0 -75 25 -75 75s25 75 75 75c82.667 0 153.334 -29.333 212.001 -88s88 -129.334 88 -212.001v-450
c0 -41.333 14.667 -76.666 44 -105.999s64.666 -44 105.999 -44c50 0 75 -25 75 -75z" />
    <glyph glyph-name="asciitilde" unicode="~" 
d="M976 528c0 -16 -6 -34 -18 -54c-38.667 -66 -108 -99 -208 -99c-56.667 0 -115.5 25 -176.5 75s-102.167 75 -123.5 75c-34 0 -60.333 -8 -79 -24c-11.333 -34 -34.333 -51 -69 -51c-52 0 -78 24 -78 72c0 16 6 34 18 54c38.667 66 108 99 208 99
c56.667 0 115.5 -25 176.5 -75s102.167 -75 123.5 -75c40.667 0 69.5 12.5 86.5 37.5s37.5 37.5 61.5 37.5c52 0 78 -24 78 -72z" />
    <glyph glyph-name="exclamdown" unicode="&#xa1;" 
d="M714 936c0 -31.333 -11.167 -57.666 -33.5 -78.999s-49.166 -32 -80.499 -32s-58.166 10.667 -80.499 32s-33.5 47.666 -33.5 78.999s11.167 58.166 33.5 80.499s49.166 33.5 80.499 33.5s58.166 -11.167 80.499 -33.5s33.5 -49.166 33.5 -80.499zM675 -375
c0 -50 -25 -75 -75 -75s-75 25 -75 75v975c0 50 25 75 75 75s75 -25 75 -75v-975z" />
    <glyph glyph-name="cent" unicode="&#xa2;" 
d="M1126 845c0 -20.667 -7.66797 -38.8311 -23.001 -54.498s-33 -23.5 -53 -23.5c-14 0 -30.333 6.33301 -49 19c-88 62 -171 98.333 -249 109v-740c78 10.667 161 46.667 249 108c18 12.667 34 19 48 19c20.667 0 38.667 -7.83301 54 -23.5s23 -33.5 23 -53.5
c0 -19.333 -9.33301 -38 -28 -56c-82.667 -80.667 -198 -129 -346 -145v-179c0 -50 -25 -75 -75 -75s-75 25 -75 75v179c-142.667 16 -264.334 70.333 -365.001 163c-108 99.333 -162 218.666 -162 357.999s54 258.666 162 357.999c100.667 92.667 222.334 147 365.001 163
v179c0 50 25 75 75 75s75 -25 75 -75v-179c148.667 -16 264.334 -64.667 347.001 -146c18 -18 27 -36.333 27 -55zM601.999 155.003v740c-100.667 -14 -187 -53.333 -259 -118c-78.667 -70.667 -118 -154.667 -118 -252s39.333 -181.333 118 -252
c72 -64.667 158.333 -104 259 -118z" />
    <glyph glyph-name="sterling" unicode="&#xa3;" 
d="M1125 75c0 -50 -25.001 -75.001 -75.001 -75.001h-900c-52 0 -78 25 -78 75s26 75 78 75c41.333 0 76.666 14.667 105.999 44s44 64.666 44 105.999v300h-150c-50 0 -75 25 -75 75s25 75 75 75h150v150h-150c-50 0 -75 25 -75 75s25 75 75 75h150v150
c0 82.667 29.333 153.334 88 212.001s129.334 88 212.001 88c56.667 0 105.334 -10.333 146.001 -31c52.667 -26 79 -64.333 79 -115c0 -52 -20 -78 -60 -78c-14.667 0 -37.334 12.333 -68.001 37s-63 37 -97 37c-41.333 0 -76.666 -14.667 -105.999 -44
s-44 -64.666 -44 -105.999v-150h150c50 0 75 -25 75 -75s-25 -75 -75 -75h-150v-150h150c50 0 75 -25 75 -75s-25 -75 -75 -75h-150v-300c0 -54 -13.333 -104 -40 -150h640c50 0 75 -25 75 -75z" />
    <glyph glyph-name="currency" unicode="&#xa4;" 
d="M1126 974c0 -20 -35.333 -65 -106 -135c70 -92.667 105 -197.334 105 -314.001s-35 -221.334 -105 -314.001c70.667 -70 106 -115 106 -135c0 -20.667 -7.66699 -38.667 -23 -54s-33.333 -23 -54 -23c-20 0 -65 35.333 -135 106c-92.667 -70 -197.334 -105 -314.001 -105
s-221.334 35 -314.001 105c-70 -70.667 -115 -106 -135 -106c-20.667 0 -38.667 7.66699 -54 23s-23 33.333 -23 54c0 20 35.333 65 106 135c-70 92.667 -105 197.334 -105 314.001s35 221.334 105 314.001c-70.667 70 -106 115 -106 135c0 20.667 7.66699 38.667 23 54
s33.333 23 54 23c20 0 65 -35.333 135 -106c92.667 70 197.334 105 314.001 105s221.334 -35 314.001 -105c70 70.667 115 106 135 106c20.667 0 38.667 -7.66699 54 -23s23 -33.333 23 -54zM975 525c0 103.333 -36.667 191.666 -110 264.999s-161.666 110 -264.999 110
s-191.666 -36.667 -264.999 -110s-110 -161.666 -110 -264.999s36.667 -191.666 110 -264.999s161.666 -110 264.999 -110s191.666 36.667 264.999 110s110 161.666 110 264.999z" />
    <glyph glyph-name="yen" unicode="&#xa5;" 
d="M1126 1426c0 -14.667 -4.66699 -29 -14 -43l-372 -558h160c50 0 75 -25 75 -75s-25 -75 -75 -75h-225v-150h225c50 0 75 -25 75 -75s-25 -75 -75 -75h-225v-300c0 -50 -25 -75 -75 -75s-75 25 -75 75v300h-225c-50 0 -75 25 -75 75s25 75 75 75h225v150h-225
c-50 0 -75 25 -75 75s25 75 75 75h160l-372 558c-9.33301 14 -14 28.333 -14 43c0 20 8 37.5 24 52.5s34 22.5 54 22.5c24.667 0 44.667 -11.333 60 -34l388 -582l388 582c15.333 22.667 35.333 34 60 34c20 0 38 -7.5 54 -22.5s24 -32.5 24 -52.5z" />
    <glyph glyph-name="brokenbar" unicode="&#xa6;" 
d="M675 675c0 -50 -25 -75 -75 -75s-75 25 -75 75v750c0 50 25 75 75 75s75 -25 75 -75v-750zM675 -375c0 -50 -25 -75 -75 -75s-75 25 -75 75v750c0 50 25 75 75 75s75 -25 75 -75v-750z" />
    <glyph glyph-name="section" unicode="&#xa7;" 
d="M1125 -75c0 -118 -60.333 -212.667 -181 -284c-102.667 -60.667 -217.334 -91 -344.001 -91c-82.667 0 -164 14.333 -244 43c-91.333 32 -159.333 76.667 -204 134c-12.667 16.667 -19 33 -19 49c0 20 7.83301 37.667 23.5 53s33.834 23 54.501 23c16.667 0 35 -9 55 -27
c92.667 -83.333 204 -125 334 -125c167.333 0 283 48 347 144c18.667 28 28 55 28 81s-9.33301 53 -28 81c-64 96 -179.667 144 -347 144c-126.667 0 -241.334 30.333 -344.001 91c-120.667 71.333 -181 166 -181 284c0 126.667 69.667 226.667 209 300
c-139.333 73.333 -209 173.333 -209 300c0 118 60.333 212.667 181 284c102.667 60.667 217.334 91 344.001 91c82.667 0 164 -14.333 244 -43c91.333 -32 159.333 -76.667 204 -134c12.667 -16.667 19 -33 19 -49c0 -20 -7.83301 -37.667 -23.5 -53
s-33.834 -23 -54.501 -23c-16.667 0 -35 9 -55 27c-92.667 83.333 -204 125 -334 125c-167.333 0 -283 -48 -347 -144c-18.667 -28 -28 -55 -28 -81s9.33301 -53 28 -81c64 -96 179.667 -144 347 -144c126.667 0 241.334 -30.333 344.001 -91
c120.667 -71.333 181 -166 181 -284c0 -126.667 -69.667 -226.667 -209 -300c139.333 -73.333 209 -173.333 209 -300zM975 525c0 47.333 -25 91.333 -75 132c-40.667 32.667 -87.667 56.667 -141 72c-49.333 14 -102.333 21 -159 21s-109.667 -7 -159 -21
c-53.333 -15.333 -100.333 -39.333 -141 -72c-50 -40.667 -75 -84.667 -75 -132s25 -91.333 75 -132c40.667 -32.667 87.667 -56.667 141 -72c49.333 -14 102.333 -21 159 -21s109.667 7 159 21c53.333 15.333 100.333 39.333 141 72c50 40.667 75 84.667 75 132z" />
    <glyph glyph-name="dieresis" unicode="&#xa8;" 
d="M938 1313c0 -31.333 -11.167 -58 -33.5 -80s-48.833 -33 -79.5 -33c-31.333 0 -57.833 11 -79.5 33s-32.5 48.667 -32.5 80s10.833 57.833 32.5 79.5s48.167 32.5 79.5 32.5s58 -10.833 80 -32.5s33 -48.167 33 -79.5zM488 1313c0 -31.333 -11.167 -58 -33.5 -80
s-48.833 -33 -79.5 -33c-31.333 0 -57.833 11 -79.5 33s-32.5 48.667 -32.5 80s10.833 57.833 32.5 79.5s48.167 32.5 79.5 32.5s58 -10.833 80 -32.5s33 -48.167 33 -79.5z" />
    <glyph glyph-name="copyright" unicode="&#xa9;" 
d="M1125 750c0 -179.333 -42 -342.333 -126 -489c-100 -174 -233 -261 -399 -261s-299 87 -399 261c-84 146.667 -126 309.667 -126 489s42 342.333 126 489c100 174 233 261 399 261s299 -87 399 -261c84 -146.667 126 -309.667 126 -489zM975 750
c0 87.333 -11 169.333 -33 246c-26 90.667 -66 168.667 -120 234c-66.667 80 -140.667 120 -222 120s-155.333 -40 -222 -120c-54 -65.333 -94 -143.333 -120 -234c-22 -76.667 -33 -158.667 -33 -246s11 -169.333 33 -246c26 -90.667 66 -168.667 120 -234
c66.667 -80 140.667 -120 222 -120s155.333 40 222 120c54 65.333 94 143.333 120 234c22 76.667 33 158.667 33 246zM835 512c0 -12.667 -4.66699 -26.667 -14 -42c-51.333 -88 -125 -132 -221 -132c-94 0 -169.667 46.667 -227 140
c-48.667 80.667 -73 171.334 -73 272.001s24.333 191.334 73 272.001c57.333 94 133 141 227 141c96 0 169.667 -44.333 221 -133c9.33301 -15.333 14 -29.333 14 -42c0 -20.667 -8 -38.334 -24 -53.001s-34 -22 -54 -22c-21.333 0 -45.833 16.667 -73.5 50
s-55.5 50 -83.5 50c-17.333 0 -36 -7.66699 -56 -23c-62.667 -46.667 -94 -126.667 -94 -240s31.333 -193.333 94 -240c20 -14.667 38.667 -22 56 -22c28 0 55.833 16.5 83.5 49.5s52.167 49.5 73.5 49.5c20 0 38 -7.33301 54 -22s24 -32.334 24 -53.001z" />
    <glyph glyph-name="ordfeminine" unicode="&#xaa;" 
d="M1013 795c0 -50 -24.999 -75 -74.999 -75c-45.333 0 -70.333 21.333 -75 64c-78 -42.667 -165.667 -64 -263 -64c-99.333 0 -189 22.333 -269 67c-95.333 54 -143 126.667 -143 218s47.667 164 143 218c80 44.667 169.667 67 269 67c96.667 0 183.667 -21 261 -63
c-11.333 41.333 -47.666 73.333 -108.999 96c-48.667 18 -99.334 27 -152.001 27c-66.667 0 -133 -16.667 -199 -50c-16.667 -8.66699 -30.334 -13 -41.001 -13c-20.667 0 -38.334 8 -53.001 24s-22 34.333 -22 55c0 43.333 43.333 78.333 130 105
c64.667 19.333 126.334 29 185.001 29c99.333 0 189 -22.333 269 -67c96 -54 144 -126.667 144 -218v-420zM1012 525c0 -50 -25 -75 -75 -75h-675c-50 0 -75 25 -75 75s25 75 75 75h675c50 0 75 -25 75 -75zM863.001 1005c0 16 -8.66699 33.668 -26 53.001
c-48 54.667 -127 82 -237 82c-118 0 -199.667 -30.333 -245 -91c-11.333 -16.667 -17 -31.334 -17 -44.001c0 -20 12 -41.667 36 -65c50.667 -46.667 126 -70 226 -70c110.667 0 190 27.667 238 83c16.667 18.667 25 36 25 52z" />
    <glyph glyph-name="guillemotleft" unicode="&#xab;" 
d="M1051 73c0 -20.667 -8 -38.167 -24 -52.5s-34 -21.5 -54 -21.5c-29.333 0 -51 14 -65 42l-220 441c-9.33301 18 -14 32.333 -14 43s4.66699 25 14 43l220 441c14 28 35.667 42 65 42c20 0 38 -7.16699 54 -21.5s24 -31.833 24 -52.5c0 -12 -3 -24 -9 -36l-208 -416
l208 -416c6 -12 9 -24 9 -36zM526 73c0 -20.667 -8 -38.167 -24 -52.5s-34 -21.5 -54 -21.5c-29.333 0 -51 14 -65 42l-220 441c-9.33301 18 -14 32.333 -14 43s4.66699 25 14 43l220 441c14 28 35.667 42 65 42c20 0 38 -7.16699 54 -21.5s24 -31.833 24 -52.5
c0 -12 -3 -24 -9 -36l-208 -416l208 -416c6 -12 9 -24 9 -36z" />
    <glyph glyph-name="logicalnot" unicode="&#xac;" 
d="M1025 75c0 -50 -25 -75 -75 -75s-75 25 -75 75v375h-725c-50 0 -75 25 -75 75s25 75 75 75h800c20 0 37.5 -7.5 52.5 -22.5s22.5 -32.5 22.5 -52.5v-450z" />
    <glyph glyph-name="minus" unicode="&#xad;" 
d="M1125 638c0 -50 -25 -75 -75 -75h-900c-50 0 -75 25 -75 75s25 75 75 75h900c50 0 75 -25 75 -75z" />
    <glyph glyph-name="minus" unicode="&#x2212;" 
d="M1125 638c0 -50 -25 -75 -75 -75h-900c-50 0 -75 25 -75 75s25 75 75 75h900c50 0 75 -25 75 -75z" />
    <glyph glyph-name="registered" unicode="&#xae;" 
d="M1125 750c0 -179.333 -42 -342.333 -126 -489c-100 -174 -233 -261 -399 -261s-299 87 -399 261c-84 146.667 -126 309.667 -126 489s42 342.333 126 489c100 174 233 261 399 261s299 -87 399 -261c84 -146.667 126 -309.667 126 -489zM975 750
c0 87.333 -11 169.333 -33 246c-26 90.667 -66 168.667 -120 234c-66.667 80 -140.667 120 -222 120s-155.333 -40 -222 -120c-54 -65.333 -94 -143.333 -120 -234c-22 -76.667 -33 -158.667 -33 -246s11 -169.333 33 -246c26 -90.667 66 -168.667 120 -234
c66.667 -80 140.667 -120 222 -120s155.333 40 222 120c54 65.333 94 143.333 120 234c22 76.667 33 158.667 33 246zM901 413c0 -20 -7.66699 -37.8311 -23 -53.498s-33.333 -23.5 -54 -23.5c-19.333 0 -36.666 7.66699 -51.999 23l-247 247v-193c0 -50 -25 -75 -75 -75
s-75 25 -75 75v675c0 19.333 7.5 36.666 22.5 51.999s32.5 23 52.5 23h188c72 0 133.667 -25.833 185 -77.5s77 -113.5 77 -185.5c0 -60.667 -18.833 -114.834 -56.5 -162.501s-85.834 -78.5 -144.501 -92.5l179 -179c15.333 -16 23 -33.667 23 -53zM750 900.002
c0 30.667 -11 57.167 -33 79.5s-48.333 33.5 -79 33.5h-113v-225h113c30.667 0 57 11 79 33s33 48.333 33 79z" />
    <glyph glyph-name="macron" unicode="&#xaf;" 
d="M1125 1800c0 -50 -25 -75 -75 -75h-900c-50 0 -75 25 -75 75s25 75 75 75h900c50 0 75 -25 75 -75z" />
    <glyph glyph-name="macron" unicode="&#x2c9;" 
d="M1125 1800c0 -50 -25 -75 -75 -75h-900c-50 0 -75 25 -75 75s25 75 75 75h900c50 0 75 -25 75 -75z" />
    <glyph glyph-name="degree" unicode="&#xb0;" 
d="M975 1125c0 -103.333 -36.667 -191.666 -110 -264.999s-161.666 -110 -264.999 -110s-191.666 36.667 -264.999 110s-110 161.666 -110 264.999s36.667 191.666 110 264.999s161.666 110 264.999 110s191.666 -36.667 264.999 -110s110 -161.666 110 -264.999zM825 1125
c0 62 -22 115 -66 159s-97 66 -159 66s-115 -22 -159 -66s-66 -97 -66 -159s22 -115 66 -159s97 -66 159 -66s115 22 159 66s66 97 66 159z" />
    <glyph glyph-name="plusminus" unicode="&#xb1;" 
d="M1125 825c0 -50 -25 -75 -75 -75h-375v-375c0 -50 -25 -75 -75 -75s-75 25 -75 75v375h-375c-50 0 -75 25 -75 75s25 75 75 75h375v375c0 50 25 75 75 75s75 -25 75 -75v-375h375c50 0 75 -25 75 -75zM1125 75c0 -50 -25 -75 -75 -75h-900c-50 0 -75 25 -75 75
s25 75 75 75h900c50 0 75 -25 75 -75z" />
    <glyph glyph-name="twosuperior" unicode="&#xb2;" 
d="M956 637c0 -50 -24.998 -74.999 -74.998 -74.999h-562c-58 0 -87 22.333 -87 67c0 23.333 14.333 46.666 43 69.999l135 69c264 142.667 396 274 396 394c0 54 -21 99.333 -63 136c-40.667 34.667 -88.334 52 -143.001 52s-102.334 -17.333 -143.001 -52
c-42 -36.667 -63 -82 -63 -136c0 -50 -25 -75 -75 -75s-75 25 -75 75c0 95.333 35.667 176 107 242c70 64 153 96 249 96s179 -32 249 -96c71.333 -66 107 -146.667 107 -242c0 -101.333 -46 -191.333 -138 -270l-263 -179l326 -1c50 0 75 -25 75 -75z" />
    <glyph glyph-name="threesuperior" unicode="&#xb3;" 
d="M974 1435c0 -24 -12.001 -46.333 -36.001 -67l-284 -242c88 -16.667 161.667 -58.334 221 -125.001s89 -144 89 -232c0 -102.667 -38.667 -189.667 -116 -261c-75.333 -68.667 -165 -103 -269 -103c-64.667 0 -127.667 16 -189 48
c-65.333 33.333 -112.666 77.333 -141.999 132c-8.66699 15.333 -13 29 -13 41c0 20 8 37.333 24 52s34.333 22 55 22c16 0 47.167 -24.167 93.5 -72.5s103.5 -72.5 171.5 -72.5c62 0 116.667 20.333 164 61s71 91.667 71 153c0 60.667 -24.333 112 -73 154
c-46 39.333 -100 59 -162 59c-46 0 -91.5 -14.333 -136.5 -43s-73.5 -43 -85.5 -43c-20 0 -37.333 7.5 -52 22.5s-22 32.5 -22 52.5c0 22.667 9.66699 42.334 29 59.001l374 320h-375c-50 0 -75 25 -75 75s25 75 75 75h578c56.667 0 85 -21.667 85 -65z" />
    <glyph glyph-name="acute" unicode="&#xb4;" 
d="M826 1423c0 -29.333 -14 -51 -42 -65l-300 -150c-12 -6 -24 -9 -36 -9c-20.667 0 -38.167 8 -52.5 24s-21.5 34 -21.5 54c0 29.333 14 51 42 65l300 150c12 6 24 9 36 9c20.667 0 38.167 -8 52.5 -24s21.5 -34 21.5 -54z" />
    <glyph glyph-name="mu1" unicode="&#xb5;" 
d="M1025 75c0 -50 -25 -75 -75 -75c-50.667 0 -75.667 33.667 -75 101c-79.333 -67.333 -171 -101 -275 -101s-195.667 33.667 -275 101v-476c0 -50 -25 -75 -75 -75s-75 25 -75 75v1350c0 50 25 75 75 75s75 -25 75 -75v-550c0 -76 26.833 -140.833 80.5 -194.5
s118.5 -80.5 194.5 -80.5c75.333 0 140 26.833 194 80.5s81 118.167 81 193.5v551c0 50 25 75 75 75s75 -25 75 -75v-900z" />
    <glyph glyph-name="paragraph" unicode="&#xb6;" 
d="M1075 75c0 -50 -25 -74.998 -75 -74.998s-75 25 -75 75v1275h-300v-1275c0 -50 -25 -75 -75 -75s-75 25 -75 75v675h-25c-103.333 0 -191.666 36.667 -264.999 110s-110 161.666 -110 264.999s36.667 191.666 110 264.999s161.666 110 264.999 110h550
c20 0 37.5 -7.5 52.5 -22.5s22.5 -32.5 22.5 -52.5v-1350zM475 900.002v450h-25c-62 0 -115 -22 -159 -66s-66 -97 -66 -159s22 -115 66 -159s97 -66 159 -66h25z" />
    <glyph glyph-name="middot" unicode="&#xb7;" 
d="M714 638c0 -31.333 -11.167 -58.166 -33.5 -80.499s-49.166 -33.5 -80.499 -33.5s-58.166 11.167 -80.499 33.5s-33.5 49.166 -33.5 80.499c0 30.667 11.167 56.834 33.5 78.501s49.166 32.5 80.499 32.5s58.166 -10.833 80.499 -32.5s33.5 -47.834 33.5 -78.501z" />
    <glyph glyph-name="cedilla" unicode="&#xb8;" 
d="M885 -150c0 -82.667 -29.333 -153.33 -88 -211.997s-129.334 -88 -212.001 -88c-52 0 -102 13.667 -150 41c-50 28 -86.667 64.667 -110 110c-7.33301 14 -11 27 -11 39c0 20 8 37.333 24 52s34 22 54 22s46 -19 78 -57s70.333 -57 115 -57
c41.333 0 76.666 14.667 105.999 44s44 64.666 44 105.999s-14.667 76.666 -44 105.999s-64.666 44 -105.999 44c-50 0 -75 25 -75 75s25 75 75 75c82.667 0 153.334 -29.333 212.001 -88s88 -129.334 88 -212.001z" />
    <glyph glyph-name="onesuperior" unicode="&#xb9;" 
d="M863 637c0 -50 -25 -75.001 -75 -75.001h-300c-50 0 -75 25 -75 75c0 38.667 17.333 62.334 52 71.001c11.333 3.33301 44 5 98 5v539l-99 -92c-15.333 -14 -32.333 -21 -51 -21c-20.667 0 -38.667 7.83301 -54 23.5s-23 33.5 -23 53.5s8.33301 38 25 54l215 200
c22 20.667 42.333 31 61 31c50.667 0 76 -30 76 -90v-698h22.5h22.5c70 0 105 -25.333 105 -76z" />
    <glyph glyph-name="ordmasculine" unicode="&#xba;" 
d="M1013 1110c0 -110 -41.667 -203 -125 -279c-80.667 -74 -176.667 -111 -288 -111s-207.333 37 -288 111c-82.667 76 -124 169 -124 279s41.333 203 124 279c80.667 74 176.667 111 288 111s207.333 -37 288 -111c83.333 -76 125 -169 125 -279zM1012 525
c0 -50 -24.667 -75 -74 -75h-675c-50 0 -75 25 -75 75s25 75 75 75h675c49.333 0 74 -25 74 -75zM863 1110c0 68.667 -27 126.334 -81 173.001c-52 44.667 -112.667 67 -182 67s-130 -22.333 -182 -67c-53.333 -46.667 -80 -104.334 -80 -173.001
s26.333 -125.834 79 -171.501s113.667 -68.5 183 -68.5s130.5 22.833 183.5 68.5s79.5 102.834 79.5 171.501z" />
    <glyph glyph-name="guillemotright" unicode="&#xbb;" 
d="M1051 525c0 -10.667 -4.66699 -25 -14 -43l-220 -441c-14 -28 -35.667 -42 -65 -42c-20 0 -38 7.16699 -54 21.5s-24 31.833 -24 52.5c0 12 3 24 9 36l208 416l-208 416c-6 12 -9 24 -9 36c0 20.667 8 38.167 24 52.5s34 21.5 54 21.5c29.333 0 51 -14 65 -42l220 -441
c9.33301 -18 14 -32.333 14 -43zM526 525c0 -10.667 -4.66699 -25 -14 -43l-220 -441c-14 -28 -35.667 -42 -65 -42c-20 0 -38 7.16699 -54 21.5s-24 31.833 -24 52.5c0 12 3 24 9 36l208 416l-208 416c-6 12 -9 24 -9 36c0 20.667 8 38.167 24 52.5s34 21.5 54 21.5
c29.333 0 51 -14 65 -42l220 -441c9.33301 -18 14 -32.333 14 -43z" />
    <glyph glyph-name="onequarter" unicode="&#xbc;" 
d="M506 937c0 -50 -24.999 -75.001 -74.999 -75.001h-225c-50 0 -75 25 -75 75c0 50.667 37.667 76 113 76v499c-38.667 -48.667 -69.334 -73 -92.001 -73c-20.667 0 -38.834 7.5 -54.501 22.5s-23.5 32.833 -23.5 53.5c0 16.667 6 32.334 18 47.001l160 200
c20.667 26 42.334 39 65.001 39c51.333 0 77 -29.667 77 -89v-699c74.667 0 112 -25.333 112 -76zM1126 1426c0 -14.667 -4.66699 -29 -14 -43l-900 -1350c-15.333 -22.667 -35.333 -34 -60 -34c-20 0 -38 7.5 -54 22.5s-24 32.5 -24 52.5c0 14.667 4.66699 29 14 43
l900 1350c15.333 22.667 35.333 34 60 34c20 0 38 -7.5 54 -22.5s24 -32.5 24 -52.5zM1125 -60.001c0 -40 -20.333 -64.333 -61 -73c-6.66699 -1.33301 -42.667 -2 -108 -2v-240c0 -50 -25 -75 -75 -75s-75 25 -75 75v240h-262c-52.667 0 -79 21.333 -79 64
c0 14.667 4.33301 30 13 46l337 630c18.667 34.667 43 52 73 52c45.333 0 68 -29 68 -87v-555c6.66699 0 17 0.333008 31 1s24.333 1 31 1c71.333 0 107 -25.667 107 -77zM806.001 14.999v256l-137 -256h137z" />
    <glyph glyph-name="onehalf" unicode="&#xbd;" 
d="M506 937c0 -50 -24.999 -75.001 -74.999 -75.001h-225c-50 0 -75 25 -75 75c0 50.667 37.667 76 113 76v499c-38.667 -48.667 -69.334 -73 -92.001 -73c-20.667 0 -38.834 7.5 -54.501 22.5s-23.5 32.833 -23.5 53.5c0 16.667 6 32.334 18 47.001l160 200
c20.667 26 42.334 39 65.001 39c51.333 0 77 -29.667 77 -89v-699c74.667 0 112 -25.333 112 -76zM1126 1426c0 -14.667 -4.66699 -29 -14 -43l-900 -1350c-15.333 -22.667 -35.333 -34 -60 -34c-20 0 -38 7.5 -54 22.5s-24 32.5 -24 52.5c0 14.667 4.66699 29 14 43
l900 1350c15.333 22.667 35.333 34 60 34c20 0 38 -7.5 54 -22.5s24 -32.5 24 -52.5zM1125 299.999c0 -96.667 -33.333 -182.667 -100 -258l-208 -192h233c50 0 75 -25 75 -75s-25 -75 -75 -75h-422c-56.667 0 -85 21.333 -85 64c0 29.333 37.333 73 112 131
c110 85.333 179.333 143 208 173c74.667 78 112 155.333 112 232c0 44.667 -11.333 85.667 -34 123c-26 42.667 -60 64 -102 64s-76 -21.333 -102 -64c-22.667 -37.333 -34 -78.333 -34 -123c0 -50 -25 -75 -75 -75s-75 25 -75 75c0 87.333 25.333 164 76 230
c55.333 71.333 125.333 107 210 107s154.667 -35.667 210 -107c50.667 -66 76 -142.667 76 -230z" />
    <glyph glyph-name="threequarters" unicode="&#xbe;" 
d="M1126 1426c0 -14.667 -4.66699 -29.001 -14 -43.001l-900 -1350c-15.333 -22.667 -35.333 -34 -60 -34c-20 0 -38 7.5 -54 22.5s-24 32.5 -24 52.5c0 14.667 4.66699 29 14 43l430 646c-49.333 -38.667 -105 -58 -167 -58c-56.667 0 -110 17.833 -160 53.5
s-86.333 80.5 -109 134.5c-5.33301 12.667 -8 24 -8 34c0 20 8 37.167 24 51.5s34.333 21.5 55 21.5c24 0 52 -24.167 84 -72.5s70 -72.5 114 -72.5c48 0 87.333 24.333 118 73c26 42.667 39 89.667 39 141s-13 98 -39 140c-30.667 49.333 -70 74 -118 74
c-31.333 0 -62 -14.667 -92 -44s-54.667 -44 -74 -44c-20 0 -37.667 7.5 -53 22.5s-23 32.5 -23 52.5c0 18.667 7.33301 36.334 22 53.001l287 327h-268c-50 0 -75 25 -75 75s25 75 75 75h433c54.667 0 82 -16.333 82 -49c0 -36 -33.667 -92.667 -101 -170l-145 -157
c73.333 -19.333 132.333 -64.666 177 -135.999c41.333 -66.667 62 -139.667 62 -219c0 -42.667 -6.33301 -84.334 -19 -125.001l349 523c15.333 22.667 35.333 34 60 34c20 0 38 -7.5 54 -22.5s24 -32.5 24 -52.5zM1125 -60.001c0 -40 -20.333 -64.333 -61 -73
c-6.66699 -1.33301 -42.667 -2 -108 -2v-240c0 -50 -25 -75 -75 -75s-75 25 -75 75v240h-262c-52.667 0 -79 21.333 -79 64c0 14.667 4.33301 30 13 46l337 630c18.667 34.667 43 52 73 52c45.333 0 68 -29 68 -87v-555c6.66699 0 17 0.333008 31 1s24.333 1 31 1
c71.333 0 107 -25.667 107 -77zM806 14.999v256l-137 -256h137z" />
    <glyph glyph-name="questiondown" unicode="&#xbf;" 
d="M714 936c0 -31.333 -11.167 -57.666 -33.5 -78.999s-49.166 -32 -80.499 -32s-58.166 10.667 -80.499 32s-33.5 47.666 -33.5 78.999s11.167 58.166 33.5 80.499s49.166 33.5 80.499 33.5s58.166 -11.167 80.499 -33.5s33.5 -49.166 33.5 -80.499zM1125 -75
c0 -118 -60.334 -212.668 -181.001 -284.001c-102.667 -60.667 -217.334 -91 -344.001 -91s-241.334 30.333 -344.001 91c-120.667 71.333 -181 166 -181 284s60.333 212.667 181 284c102.667 60.667 217.334 91 344.001 91c90.667 0 154.667 25.333 192 76
c9.33301 12.667 14 25 14 37c0 16 -9.33301 33.333 -28 52c-39.333 40 -98.666 60 -177.999 60c-22 0 -49.167 -4.33301 -81.5 -13s-53.166 -13 -62.499 -13c-20 0 -37.167 7.83301 -51.5 23.5s-21.5 33.834 -21.5 54.501c0 65.333 72.333 98 217 98
c87.333 0 165.666 -21.333 234.999 -64c80.667 -50 121 -116 121 -198c0 -82.667 -40.333 -149 -121 -199c-69.333 -42.667 -147.666 -64 -234.999 -64c-164.667 0 -279.667 -47 -345 -141c-20 -28.667 -30 -56.667 -30 -84s10 -55.333 30 -84
c65.333 -94 180.333 -141 345 -141s279.667 47 345 141c20 28.667 30 56.667 30 84c0 50 25 75 75 75s75 -25 75 -75z" />
    <glyph glyph-name="Agrave" unicode="&#xc0;" 
d="M826 1727c0 -20 -7.16699 -38 -21.5 -54s-31.833 -24 -52.5 -24c-12 0 -24 3 -36 9l-300 150c-28 14 -42 35.667 -42 65c0 20 7.16699 38 21.5 54s31.833 24 52.5 24c12 0 24 -3 36 -9l300 -150c28 -14 42 -35.667 42 -65zM1126 72c0 -48 -26 -72 -78 -72
c-34.667 0 -57.667 17 -69 51l-133 399h-492l-133 -399c-11.333 -34 -34.333 -51 -69 -51c-52 0 -78 24 -78 72c0 8.66699 1.66699 17.667 5 27l446 1338c14 42 39 63 75 63s61 -21 75 -63l446 -1338c3.33301 -9.33301 5 -18.333 5 -27zM796 600l-196 588l-196 -588h392z
" />
    <glyph glyph-name="Aacute" unicode="&#xc1;" 
d="M841 1873c0 -29.333 -14 -51 -42 -65l-300 -150c-12 -6 -24 -9 -36 -9c-20.667 0 -38.167 8 -52.5 24s-21.5 34 -21.5 54c0 29.333 14 51 42 65l300 150c12 6 24 9 36 9c20.667 0 38.167 -8 52.5 -24s21.5 -34 21.5 -54zM1126 72c0 -48 -26 -72 -78 -72
c-34.667 0 -57.667 17 -69 51l-133 399h-492l-133 -399c-11.333 -34 -34.333 -51 -69 -51c-52 0 -78 24 -78 72c0 8.66699 1.66699 17.667 5 27l446 1338c14 42 39 63 75 63s61 -21 75 -63l446 -1338c3.33301 -9.33301 5 -18.333 5 -27zM796 600l-196 588l-196 -588h392z
" />
    <glyph glyph-name="Acircumflex" unicode="&#xc2;" 
d="M901 1727c0 -20 -7.5 -38 -22.5 -54s-32.5 -24 -52.5 -24c-14.667 0 -29 4.66699 -43 14l-183 122l-183 -122c-14 -9.33301 -28.333 -14 -43 -14c-20 0 -37.5 8 -52.5 24s-22.5 34 -22.5 54c0 24.667 11.333 44.667 34 60l219 146c18 12 34 18 48 18s30 -6 48 -18
l219 -146c22.667 -15.333 34 -35.333 34 -60zM1126 72c0 -48 -26 -72 -78 -72c-34.667 0 -57.667 17 -69 51l-133 399h-492l-133 -399c-11.333 -34 -34.333 -51 -69 -51c-52 0 -78 24 -78 72c0 8.66699 1.66699 17.667 5 27l446 1338c14 42 39 63 75 63s61 -21 75 -63
l446 -1338c3.33301 -9.33301 5 -18.333 5 -27zM796 600l-196 588l-196 -588h392z" />
    <glyph glyph-name="Atilde" unicode="&#xc3;" 
d="M991 1803c0 -16 -6 -34 -18 -54c-38.667 -66 -108 -99 -208 -99c-56.667 0 -115.5 25 -176.5 75s-102.167 75 -123.5 75c-34 0 -60.333 -8 -79 -24c-11.333 -34 -34.333 -51 -69 -51c-52 0 -78 24 -78 72c0 16 6 34 18 54c38.667 66 108 99 208 99
c56.667 0 115.5 -25 176.5 -75s102.167 -75 123.5 -75c40.667 0 69.5 12.5 86.5 37.5s37.5 37.5 61.5 37.5c52 0 78 -24 78 -72zM1126 72c0 -48 -26 -72 -78 -72c-34.667 0 -57.667 17 -69 51l-133 399h-492l-133 -399c-11.333 -34 -34.333 -51 -69 -51c-52 0 -78 24 -78 72
c0 8.66699 1.66699 17.667 5 27l446 1338c14 42 39 63 75 63s61 -21 75 -63l446 -1338c3.33301 -9.33301 5 -18.333 5 -27zM796 600l-196 588l-196 -588h392z" />
    <glyph glyph-name="Adieresis" unicode="&#xc4;" 
d="M938 1763c0 -31.333 -11 -58 -33 -80s-48.667 -33 -80 -33s-57.833 11 -79.5 33s-32.5 48.667 -32.5 80s10.833 57.833 32.5 79.5s48.167 32.5 79.5 32.5s58 -10.833 80 -32.5s33 -48.167 33 -79.5zM488 1763c0 -31.333 -11 -58 -33 -80s-48.667 -33 -80 -33
s-57.833 11 -79.5 33s-32.5 48.667 -32.5 80s10.833 57.833 32.5 79.5s48.167 32.5 79.5 32.5s58 -10.833 80 -32.5s33 -48.167 33 -79.5zM1126 72c0 -48 -26 -72 -78 -72c-34.667 0 -57.667 17 -69 51l-133 399h-492l-133 -399c-11.333 -34 -34.333 -51 -69 -51
c-52 0 -78 24 -78 72c0 8.66699 1.66699 17.667 5 27l446 1338c14 42 39 63 75 63s61 -21 75 -63l446 -1338c3.33301 -9.33301 5 -18.333 5 -27zM796 600l-196 588l-196 -588h392z" />
    <glyph glyph-name="Aring" unicode="&#xc5;" 
d="M818 1731c0 -60 -21.333 -110.667 -64 -152s-94 -62 -154 -62s-111.167 20.667 -153.5 62s-63.5 92 -63.5 152c0 59.333 21.167 110.333 63.5 153s93.5 64 153.5 64s111.333 -21.333 154 -64s64 -93.667 64 -153zM1126 72c0 -48 -26 -72 -78 -72
c-34.667 0 -57.667 17 -69 51l-133 399h-492l-133 -399c-11.333 -34 -34.333 -51 -69 -51c-52 0 -78 24 -78 72c0 8.66699 1.66699 17.667 5 27l446 1338c14 42 39 63 75 63s61 -21 75 -63l446 -1338c3.33301 -9.33301 5 -18.333 5 -27zM668 1731
c0 44.667 -22.667 67 -68 67c-44.667 0 -67 -22.333 -67 -67c0 -42.667 22.333 -64 67 -64c45.333 0 68 21.333 68 64zM796 600l-196 588l-196 -588h392z" />
    <glyph glyph-name="AE" unicode="&#xc6;" 
d="M1125 750c0 -50 -24.999 -75.001 -74.999 -75.001h-285v-525h285c50 0 75 -25 75 -75s-25 -75 -75 -75h-360c-50 0 -75 25 -75 75v375h-234l-161 -403c-12.667 -32 -35.334 -48 -68.001 -48c-20 0 -38 7.16699 -54 21.5s-24 31.5 -24 51.5c0 10 2 20.333 6 31l537 1342
c6.66699 16.667 14.334 29.334 23.001 38.001l-4 -4c15.333 14.667 32.666 22 51.999 22l362 -1c50 0 75 -25 75 -75s-25 -75 -75 -75h-285v-525h285c50 0 75 -25 75 -75zM647.001 1488c-1.33301 -0.666992 -3.66699 -2.33301 -7 -5zM615 600v436l-174 -436h174z" />
    <glyph glyph-name="Ccedilla" unicode="&#xc7;" 
d="M1126 273c0 -32 -29.999 -73.9971 -89.999 -125.997c-49.333 -42 -95 -73.667 -137 -95c52 -57.333 78 -124.666 78 -201.999c0 -82.667 -29.333 -153.334 -88 -212.001s-129.334 -88 -212.001 -88c-118 0 -204.667 50.333 -260 151c-7.33301 13.333 -11 26.333 -11 39
c0 20 8 37.333 24 52s34.333 22 55 22c19.333 0 45.166 -19 77.499 -57s70.5 -57 114.5 -57c41.333 0 76.666 14.667 105.999 44s44 64.666 44 105.999s-14.667 76.666 -44 105.999s-64.666 44 -105.999 44c-180.667 0 -329.334 82 -446.001 246
c-104 147.333 -156 315.333 -156 504s52 356.667 156 504c116.667 164 265.334 246 446.001 246c82 0 162.833 -21 242.5 -63s142.834 -96.333 189.501 -163c11.333 -16.667 17 -32.334 17 -47.001c0 -20 -7.83301 -37.667 -23.5 -53s-33.834 -23 -54.501 -23
c-18.667 0 -37.667 10 -57 30c-9.33301 11.333 -24 28 -44 50c-78.667 79.333 -168.667 119 -270 119c-94 0 -180 -36.333 -258 -109c-69.333 -64.667 -120.666 -145.667 -153.999 -243c-26.667 -78 -40 -160.667 -40 -248s13.333 -170 40 -248
c33.333 -97.333 84.666 -178.333 153.999 -243c78 -72.667 164 -109 258 -109c101.333 0 191.333 39.667 270 119c9.33301 11.333 24 28 44 50c19.333 20 38.333 30 57 30c20.667 0 38.834 -7.66699 54.501 -23s23.5 -33 23.5 -53z" />
    <glyph glyph-name="Egrave" unicode="&#xc8;" 
d="M901 1727c0 -20 -7.16699 -38 -21.5 -54s-31.833 -24 -52.5 -24c-12 0 -24 3 -36 9l-300 150c-28 14 -42 35.667 -42 65c0 20 7.16699 38 21.5 54s31.833 24 52.5 24c12 0 24 -3 36 -9l300 -150c28 -14 42 -35.667 42 -65zM1125 75c0 -50 -25 -75 -75 -75h-800
c-20 0 -37.5 7.5 -52.5 22.5s-22.5 32.5 -22.5 52.5v1350c0 20 7.5 37.5 22.5 52.5s32.5 22.5 52.5 22.5h800c50 0 75 -25 75 -75s-25 -75 -75 -75h-725v-525h725c50 0 75 -25 75 -75s-25 -75 -75 -75h-725v-525h725c50 0 75 -25 75 -75z" />
    <glyph glyph-name="Eacute" unicode="&#xc9;" 
d="M901 1873c0 -29.333 -14 -51 -42 -65l-300 -150c-12 -6 -24 -9 -36 -9c-20.667 0 -38.167 8 -52.5 24s-21.5 34 -21.5 54c0 29.333 14 51 42 65l300 150c12 6 24 9 36 9c20.667 0 38.167 -8 52.5 -24s21.5 -34 21.5 -54zM1125 75c0 -50 -25 -75 -75 -75h-800
c-20 0 -37.5 7.5 -52.5 22.5s-22.5 32.5 -22.5 52.5v1350c0 20 7.5 37.5 22.5 52.5s32.5 22.5 52.5 22.5h800c50 0 75 -25 75 -75s-25 -75 -75 -75h-725v-525h725c50 0 75 -25 75 -75s-25 -75 -75 -75h-725v-525h725c50 0 75 -25 75 -75z" />
    <glyph glyph-name="Ecircumflex" unicode="&#xca;" 
d="M976 1727c0 -20 -7.5 -38 -22.5 -54s-32.5 -24 -52.5 -24c-14.667 0 -29 4.66699 -43 14l-183 122l-183 -122c-14 -9.33301 -28.333 -14 -43 -14c-20 0 -37.5 8 -52.5 24s-22.5 34 -22.5 54c0 24.667 11.333 44.667 34 60l219 146c18 12 34 18 48 18s30 -6 48 -18
l219 -146c22.667 -15.333 34 -35.333 34 -60zM1125 75c0 -50 -25 -75 -75 -75h-800c-20 0 -37.5 7.5 -52.5 22.5s-22.5 32.5 -22.5 52.5v1350c0 20 7.5 37.5 22.5 52.5s32.5 22.5 52.5 22.5h800c50 0 75 -25 75 -75s-25 -75 -75 -75h-725v-525h725c50 0 75 -25 75 -75
s-25 -75 -75 -75h-725v-525h725c50 0 75 -25 75 -75z" />
    <glyph glyph-name="Edieresis" unicode="&#xcb;" 
d="M1012 1763c0 -31.333 -11 -58 -33 -80s-48.667 -33 -80 -33c-30.667 0 -57 11 -79 33s-33 48.667 -33 80s11 57.833 33 79.5s48.333 32.5 79 32.5c31.333 0 58 -10.833 80 -32.5s33 -48.167 33 -79.5zM562 1763c0 -31.333 -11 -58 -33 -80s-48.667 -33 -80 -33
c-30.667 0 -57 11 -79 33s-33 48.667 -33 80s11 57.833 33 79.5s48.333 32.5 79 32.5c31.333 0 58 -10.833 80 -32.5s33 -48.167 33 -79.5zM1125 75c0 -50 -25 -75 -75 -75h-800c-20 0 -37.5 7.5 -52.5 22.5s-22.5 32.5 -22.5 52.5v1350c0 20 7.5 37.5 22.5 52.5
s32.5 22.5 52.5 22.5h800c50 0 75 -25 75 -75s-25 -75 -75 -75h-725v-525h725c50 0 75 -25 75 -75s-25 -75 -75 -75h-725v-525h725c50 0 75 -25 75 -75z" />
    <glyph glyph-name="Igrave" unicode="&#xcc;" 
d="M826 1727c0 -20 -7.16699 -38 -21.5 -54s-31.833 -24 -52.5 -24c-12 0 -24 3 -36 9l-300 150c-28 14 -42 35.667 -42 65c0 20 7.16699 38 21.5 54s31.833 24 52.5 24c12 0 24 -3 36 -9l300 -150c28 -14 42 -35.667 42 -65zM975 75c0 -50 -25 -75 -75 -75h-600
c-50 0 -75 25 -75 75s25 75 75 75h222v1200h-222c-50 0 -75 25 -75 75s25 75 75 75h600c50 0 75 -25 75 -75s-25 -75 -75 -75h-228v-1200h228c50 0 75 -25 75 -75z" />
    <glyph glyph-name="Iacute" unicode="&#xcd;" 
d="M826 1873c0 -29.333 -14 -51 -42 -65l-300 -150c-12 -6 -24 -9 -36 -9c-20.667 0 -38.167 8 -52.5 24s-21.5 34 -21.5 54c0 29.333 14 51 42 65l300 150c12 6 24 9 36 9c20.667 0 38.167 -8 52.5 -24s21.5 -34 21.5 -54zM975 75c0 -50 -25 -75 -75 -75h-600
c-50 0 -75 25 -75 75s25 75 75 75h222v1200h-222c-50 0 -75 25 -75 75s25 75 75 75h600c50 0 75 -25 75 -75s-25 -75 -75 -75h-228v-1200h228c50 0 75 -25 75 -75z" />
    <glyph glyph-name="Icircumflex" unicode="&#xce;" 
d="M901 1727c0 -20 -7.5 -38 -22.5 -54s-32.5 -24 -52.5 -24c-14.667 0 -29 4.66699 -43 14l-183 122l-183 -122c-14 -9.33301 -28.333 -14 -43 -14c-20 0 -37.5 8 -52.5 24s-22.5 34 -22.5 54c0 24.667 11.333 44.667 34 60l219 146c18 12 34 18 48 18s30 -6 48 -18
l219 -146c22.667 -15.333 34 -35.333 34 -60zM975 75c0 -50 -25 -75 -75 -75h-600c-50 0 -75 25 -75 75s25 75 75 75h225v1200h-225c-50 0 -75 25 -75 75s25 75 75 75h600c50 0 75 -25 75 -75s-25 -75 -75 -75h-225v-1200h225c50 0 75 -25 75 -75z" />
    <glyph glyph-name="Idieresis" unicode="&#xcf;" 
d="M938 1763c0 -31.333 -11.167 -58 -33.5 -80s-48.833 -33 -79.5 -33c-31.333 0 -57.833 11 -79.5 33s-32.5 48.667 -32.5 80s10.833 57.833 32.5 79.5s48.167 32.5 79.5 32.5c30.667 0 57.167 -10.833 79.5 -32.5s33.5 -48.167 33.5 -79.5zM488 1763
c0 -31.333 -11.167 -58 -33.5 -80s-48.833 -33 -79.5 -33c-31.333 0 -57.833 11 -79.5 33s-32.5 48.667 -32.5 80s10.833 57.833 32.5 79.5s48.167 32.5 79.5 32.5c30.667 0 57.167 -10.833 79.5 -32.5s33.5 -48.167 33.5 -79.5zM975 75c0 -50 -25 -75 -75 -75h-600
c-50 0 -75 25 -75 75s25 75 75 75h225v1200h-225c-50 0 -75 25 -75 75s25 75 75 75h600c50 0 75 -25 75 -75s-25 -75 -75 -75h-225v-1200h225c50 0 75 -25 75 -75z" />
    <glyph glyph-name="Eth" unicode="&#xd0;" 
d="M1125 750c0 -206.667 -73.333 -383.332 -220 -529.999s-323.334 -220 -530.001 -220c-20 0 -37.5 7.5 -52.5 22.5s-22.5 32.5 -22.5 52.5v600h-150c-50 0 -75 25 -75 75s25 75 75 75h150v600c0 20 7.5 37.5 22.5 52.5s32.5 22.5 52.5 22.5
c206.667 0 383.334 -73.333 530.001 -220s220 -323.334 220 -530.001zM975 750.002c0 150.667 -50 282.83 -150 396.497s-225 179.834 -375 198.501v-520h150c50 0 75 -25 75 -75s-25 -75 -75 -75h-150v-520c150 18.667 275 84.834 375 198.501s150 245.834 150 396.501z
" />
    <glyph glyph-name="Ntilde" unicode="&#xd1;" 
d="M976 1803c0 -16 -6 -34 -18 -54c-38.667 -66 -108 -99 -208 -99c-56.667 0 -115.5 25 -176.5 75s-102.167 75 -123.5 75c-34 0 -60.333 -8 -79 -24c-11.333 -34 -34.333 -51 -69 -51c-52 0 -78 24 -78 72c0 16 6 34 18 54c38.667 66 108 99 208 99
c56.667 0 115.5 -25 176.5 -75s102.167 -75 123.5 -75c40.667 0 69.5 12.5 86.5 37.5s37.5 37.5 61.5 37.5c52 0 78 -24 78 -72zM1026 74c0 -50 -26 -75 -78 -75c-28.667 0 -51.667 17 -69 51l-554 1067v-1042c0 -50 -25 -75 -75 -75s-75 25 -75 75l-1 1351
c0 50 26 75 78 75c28.667 0 51.667 -17 69 -51l554 -1067v1042c0 50 25 75 75 75s75 -25 75 -75z" />
    <glyph glyph-name="Ograve" unicode="&#xd2;" 
d="M841 1727c0 -20 -7.16699 -38 -21.5 -54s-31.833 -24 -52.5 -24c-12 0 -24 3 -36 9l-300 150c-28 14 -42 35.667 -42 65c0 20 7.16699 38 21.5 54s31.833 24 52.5 24c12 0 24 -3 36 -9l300 -150c28 -14 42 -35.667 42 -65zM1125 750c0 -179.333 -42 -342.333 -126 -489
c-100 -174 -233 -261 -399 -261s-299 87 -399 261c-84 146.667 -126 309.667 -126 489s42 342.333 126 489c100 174 233 261 399 261s299 -87 399 -261c84 -146.667 126 -309.667 126 -489zM975 750c0 87.333 -11 169.333 -33 246c-26 90.667 -66 168.667 -120 234
c-66.667 80 -140.667 120 -222 120s-155.333 -40 -222 -120c-54 -65.333 -94 -143.333 -120 -234c-22 -76.667 -33 -158.667 -33 -246s11 -169.333 33 -246c26 -90.667 66 -168.667 120 -234c66.667 -80 140.667 -120 222 -120s155.333 40 222 120
c54 65.333 94 143.333 120 234c22 76.667 33 158.667 33 246z" />
    <glyph glyph-name="Oacute" unicode="&#xd3;" 
d="M841 1873c0 -29.333 -14 -51 -42 -65l-300 -150c-12 -6 -24 -9 -36 -9c-20.667 0 -38.167 8 -52.5 24s-21.5 34 -21.5 54c0 29.333 14 51 42 65l300 150c12 6 24 9 36 9c20.667 0 38.167 -8 52.5 -24s21.5 -34 21.5 -54zM1125 750c0 -179.333 -42 -342.333 -126 -489
c-100 -174 -233 -261 -399 -261s-299 87 -399 261c-84 146.667 -126 309.667 -126 489s42 342.333 126 489c100 174 233 261 399 261s299 -87 399 -261c84 -146.667 126 -309.667 126 -489zM975 750c0 87.333 -11 169.333 -33 246c-26 90.667 -66 168.667 -120 234
c-66.667 80 -140.667 120 -222 120s-155.333 -40 -222 -120c-54 -65.333 -94 -143.333 -120 -234c-22 -76.667 -33 -158.667 -33 -246s11 -169.333 33 -246c26 -90.667 66 -168.667 120 -234c66.667 -80 140.667 -120 222 -120s155.333 40 222 120
c54 65.333 94 143.333 120 234c22 76.667 33 158.667 33 246z" />
    <glyph glyph-name="Ocircumflex" unicode="&#xd4;" 
d="M901 1727c0 -20 -7.5 -38 -22.5 -54s-32.5 -24 -52.5 -24c-14.667 0 -29 4.66699 -43 14l-183 122l-183 -122c-14 -9.33301 -28.333 -14 -43 -14c-20 0 -37.5 8 -52.5 24s-22.5 34 -22.5 54c0 24.667 11.333 44.667 34 60l219 146c18 12 34 18 48 18s30 -6 48 -18
l219 -146c22.667 -15.333 34 -35.333 34 -60zM1125 750c0 -179.333 -42 -342.333 -126 -489c-100 -174 -233 -261 -399 -261s-299 87 -399 261c-84 146.667 -126 309.667 -126 489s42 342.333 126 489c100 174 233 261 399 261s299 -87 399 -261
c84 -146.667 126 -309.667 126 -489zM975 750c0 87.333 -11 169.333 -33 246c-26 90.667 -66 168.667 -120 234c-66.667 80 -140.667 120 -222 120s-155.333 -40 -222 -120c-54 -65.333 -94 -143.333 -120 -234c-22 -76.667 -33 -158.667 -33 -246s11 -169.333 33 -246
c26 -90.667 66 -168.667 120 -234c66.667 -80 140.667 -120 222 -120s155.333 40 222 120c54 65.333 94 143.333 120 234c22 76.667 33 158.667 33 246z" />
    <glyph glyph-name="Otilde" unicode="&#xd5;" 
d="M991 1803c0 -16 -6 -34 -18 -54c-38.667 -66 -108 -99 -208 -99c-56.667 0 -115.5 25 -176.5 75s-102.167 75 -123.5 75c-34 0 -60.333 -8 -79 -24c-11.333 -34 -34.333 -51 -69 -51c-52 0 -78 24 -78 72c0 16 6 34 18 54c38.667 66 108 99 208 99
c56.667 0 115.5 -25 176.5 -75s102.167 -75 123.5 -75c40.667 0 69.5 12.5 86.5 37.5s37.5 37.5 61.5 37.5c52 0 78 -24 78 -72zM1125 750c0 -179.333 -42 -342.333 -126 -489c-100 -174 -233 -261 -399 -261s-299 87 -399 261c-84 146.667 -126 309.667 -126 489
s42 342.333 126 489c100 174 233 261 399 261s299 -87 399 -261c84 -146.667 126 -309.667 126 -489zM975 750c0 87.333 -11 169.333 -33 246c-26 90.667 -66 168.667 -120 234c-66.667 80 -140.667 120 -222 120s-155.333 -40 -222 -120
c-54 -65.333 -94 -143.333 -120 -234c-22 -76.667 -33 -158.667 -33 -246s11 -169.333 33 -246c26 -90.667 66 -168.667 120 -234c66.667 -80 140.667 -120 222 -120s155.333 40 222 120c54 65.333 94 143.333 120 234c22 76.667 33 158.667 33 246z" />
    <glyph glyph-name="Odieresis" unicode="&#xd6;" 
d="M938 1763c0 -31.333 -11 -58 -33 -80s-48.667 -33 -80 -33s-57.833 11 -79.5 33s-32.5 48.667 -32.5 80s10.833 57.833 32.5 79.5s48.167 32.5 79.5 32.5s58 -10.833 80 -32.5s33 -48.167 33 -79.5zM488 1763c0 -31.333 -11 -58 -33 -80s-48.667 -33 -80 -33
s-57.833 11 -79.5 33s-32.5 48.667 -32.5 80s10.833 57.833 32.5 79.5s48.167 32.5 79.5 32.5s58 -10.833 80 -32.5s33 -48.167 33 -79.5zM1125 750c0 -179.333 -42 -342.333 -126 -489c-100 -174 -233 -261 -399 -261s-299 87 -399 261c-84 146.667 -126 309.667 -126 489
s42 342.333 126 489c100 174 233 261 399 261s299 -87 399 -261c84 -146.667 126 -309.667 126 -489zM975 750c0 87.333 -11 169.333 -33 246c-26 90.667 -66 168.667 -120 234c-66.667 80 -140.667 120 -222 120s-155.333 -40 -222 -120
c-54 -65.333 -94 -143.333 -120 -234c-22 -76.667 -33 -158.667 -33 -246s11 -169.333 33 -246c26 -90.667 66 -168.667 120 -234c66.667 -80 140.667 -120 222 -120s155.333 40 222 120c54 65.333 94 143.333 120 234c22 76.667 33 158.667 33 246z" />
    <glyph glyph-name="multiply" unicode="&#xd7;" 
d="M995 207c0 -20 -7.83301 -37.833 -23.5 -53.5s-33.5 -23.5 -53.5 -23.5s-37.667 8 -53 24l-265 265l-265 -265c-15.333 -16 -33 -24 -53 -24s-37.833 7.83301 -53.5 23.5s-23.5 33.5 -23.5 53.5s8 37.667 24 53l265 265l-265 265c-16 15.333 -24 33 -24 53
s7.83301 37.833 23.5 53.5s33.5 23.5 53.5 23.5s37.667 -8 53 -24l265 -265l265 265c15.333 16 33 24 53 24s37.833 -7.83301 53.5 -23.5s23.5 -33.5 23.5 -53.5s-8 -37.667 -24 -53l-265 -265l265 -265c16 -15.333 24 -33 24 -53z" />
    <glyph glyph-name="Oslash" unicode="&#xd8;" 
d="M1126 1426c0 -16.667 -39.667 -83.667 -119 -201c78.667 -139.333 118 -297.666 118 -474.999c0 -179.333 -42 -342.333 -126 -489c-100 -174 -233 -261 -399 -261c-118 0 -222.333 48.333 -313 145l-75 -112c-15.333 -22.667 -35.333 -34 -60 -34
c-20 0 -38 7.33301 -54 22s-24 32.334 -24 53.001c0 16.667 39.667 83.667 119 201c-78.667 139.333 -118 297.666 -118 474.999c0 179.333 42 342.333 126 489c100 174 233 261 399 261c118 0 222.333 -48.333 313 -145l75 112c15.333 22.667 35.333 34 60 34
c20 0 38 -7.33301 54 -22s24 -32.334 24 -53.001zM826 1225c-68.667 83.333 -144.001 125.001 -226.001 125.001c-78.667 0 -150.667 -37.667 -216 -113c-53.333 -62 -93.666 -136.667 -120.999 -224c-25.333 -81.333 -38 -169 -38 -263c0 -122.667 21 -233.334 63 -332.001
zM974.999 750.001c0 122.667 -20.999 233.334 -62.999 332.001l-538 -807c68.667 -83.333 144 -125 226 -125c78.667 0 150.667 38 216 114c53.333 61.333 93.666 135.666 120.999 222.999c25.333 81.333 38 169 38 263z" />
    <glyph glyph-name="Ugrave" unicode="&#xd9;" 
d="M826 1727c0 -20 -7.16699 -38 -21.5 -54s-31.833 -24 -52.5 -24c-12 0 -24 3 -36 9l-300 150c-28 14 -42 35.667 -42 65c0 20 7.16699 38 21.5 54s31.833 24 52.5 24c12 0 24 -3 36 -9l300 -150c28 -14 42 -35.667 42 -65zM1075 475
c0 -131.333 -46.333 -243.333 -139 -336s-204.667 -139 -336 -139s-243.333 46.333 -336 139s-139 204.667 -139 336v950c0 50 25 75 75 75s75 -25 75 -75v-950c0 -89.333 31.833 -165.833 95.5 -229.5s140.167 -95.5 229.5 -95.5s165.833 31.833 229.5 95.5
s95.5 140.167 95.5 229.5v950c0 50 25 75 75 75s75 -25 75 -75v-950z" />
    <glyph glyph-name="Uacute" unicode="&#xda;" 
d="M826 1873c0 -29.333 -14 -51 -42 -65l-300 -150c-12 -6 -24 -9 -36 -9c-20.667 0 -38.167 8 -52.5 24s-21.5 34 -21.5 54c0 29.333 14 51 42 65l300 150c12 6 24 9 36 9c20.667 0 38.167 -8 52.5 -24s21.5 -34 21.5 -54zM1075 475c0 -131.333 -46.333 -243.333 -139 -336
s-204.667 -139 -336 -139s-243.333 46.333 -336 139s-139 204.667 -139 336v950c0 50 25 75 75 75s75 -25 75 -75v-950c0 -89.333 31.833 -165.833 95.5 -229.5s140.167 -95.5 229.5 -95.5s165.833 31.833 229.5 95.5s95.5 140.167 95.5 229.5v950c0 50 25 75 75 75
s75 -25 75 -75v-950z" />
    <glyph glyph-name="Ucircumflex" unicode="&#xdb;" 
d="M901 1727c0 -20 -7.5 -38 -22.5 -54s-32.5 -24 -52.5 -24c-14.667 0 -29 4.66699 -43 14l-183 122l-183 -122c-14 -9.33301 -28.333 -14 -43 -14c-20 0 -37.5 8 -52.5 24s-22.5 34 -22.5 54c0 24.667 11.333 44.667 34 60l219 146c18 12 34 18 48 18s30 -6 48 -18
l219 -146c22.667 -15.333 34 -35.333 34 -60zM1075 475c0 -131.333 -46.333 -243.333 -139 -336s-204.667 -139 -336 -139s-243.333 46.333 -336 139s-139 204.667 -139 336v950c0 50 25 75 75 75s75 -25 75 -75v-950c0 -89.333 31.833 -165.833 95.5 -229.5
s140.167 -95.5 229.5 -95.5s165.833 31.833 229.5 95.5s95.5 140.167 95.5 229.5v950c0 50 25 75 75 75s75 -25 75 -75v-950z" />
    <glyph glyph-name="Udieresis" unicode="&#xdc;" 
d="M938 1763c0 -31.333 -11 -58 -33 -80s-48.667 -33 -80 -33s-57.833 11 -79.5 33s-32.5 48.667 -32.5 80s10.833 57.833 32.5 79.5s48.167 32.5 79.5 32.5s58 -10.833 80 -32.5s33 -48.167 33 -79.5zM488 1763c0 -31.333 -11 -58 -33 -80s-48.667 -33 -80 -33
s-57.833 11 -79.5 33s-32.5 48.667 -32.5 80s10.833 57.833 32.5 79.5s48.167 32.5 79.5 32.5s58 -10.833 80 -32.5s33 -48.167 33 -79.5zM1075 475c0 -131.333 -46.333 -243.333 -139 -336s-204.667 -139 -336 -139s-243.333 46.333 -336 139s-139 204.667 -139 336v950
c0 50 25 75 75 75s75 -25 75 -75v-950c0 -89.333 31.833 -165.833 95.5 -229.5s140.167 -95.5 229.5 -95.5s165.833 31.833 229.5 95.5s95.5 140.167 95.5 229.5v950c0 50 25 75 75 75s75 -25 75 -75v-950z" />
    <glyph glyph-name="Yacute" unicode="&#xdd;" 
d="M826 1873c0 -29.333 -14 -51 -42 -65l-300 -150c-12 -6 -24 -9 -36 -9c-20.667 0 -38.167 8 -52.5 24s-21.5 34 -21.5 54c0 29.333 14 51 42 65l300 150c12 6 24 9 36 9c20.667 0 38.167 -8 52.5 -24s21.5 -34 21.5 -54zM1126 1426c0 -14.667 -4.66699 -29 -14 -43
l-437 -656v-652c0 -50 -25 -75 -75 -75s-75 25 -75 75v652l-437 656c-9.33301 14 -14 28.333 -14 43c0 20 8 37.5 24 52.5s34 22.5 54 22.5c24.667 0 44.667 -11.333 60 -34l388 -582l388 582c15.333 22.667 35.333 34 60 34c20 0 38 -7.5 54 -22.5s24 -32.5 24 -52.5z" />
    <glyph glyph-name="Thorn" unicode="&#xde;" 
d="M1125 750c0 -144.667 -51.333 -268.332 -154 -370.999s-226.334 -154 -371.001 -154h-275v-150c0 -50 -25 -75 -75 -75s-75 25 -75 75v1350c0 50 25 75 75 75s75 -25 75 -75v-150h275c144.667 0 268.334 -51.333 371.001 -154s154 -226.334 154 -371.001zM975 750.002
c0 103.333 -36.667 191.668 -110 265.001s-161.666 110 -264.999 110h-275v-750h275c103.333 0 191.666 36.667 264.999 110s110 161.666 110 264.999z" />
    <glyph glyph-name="germandbls" unicode="&#xdf;" 
d="M1125 338c0 -93.333 -32.9961 -173.001 -98.9961 -239.001s-145.333 -99 -238 -99c-70 0 -134 20 -192 60s-99.333 92.333 -124 157c-4 10.667 -6 20.667 -6 30c0 20 8 37.167 24 51.5s34.333 21.5 55 21.5c23.333 0 44.666 -14.667 63.999 -44
c31.333 -47.333 50.666 -74.666 57.999 -81.999c30.667 -29.333 71 -44 121 -44c51.333 0 95.333 18.333 132 55s55 81 55 133c0 51.333 -18.333 95.333 -55 132s-80.667 55 -132 55c-72.667 0 -134.667 25.667 -186 77s-77 113.333 -77 186s32.167 138.834 96.5 198.501
s96.5 119.834 96.5 180.501c0 50.667 -18 93.834 -54 129.501s-79 53.5 -129 53.5c-58.667 0 -108.834 -20.833 -150.501 -62.5s-62.5 -91.834 -62.5 -150.501v-1062c0 -50 -25 -75 -75 -75s-75 25 -75 75v1062c0 100 35.5 185.5 106.5 256.5s156.5 106.5 256.5 106.5
c91.333 0 169.666 -32.5 234.999 -97.5s98 -143.5 98 -235.5c0 -112.667 -46.667 -207.334 -140 -284.001c-35.333 -28.667 -53 -60.334 -53 -95.001c0 -31.333 11 -58 33 -80s48.667 -33 80 -33c92.667 0 172 -33 238 -99s99 -145.333 99 -238z" />
    <glyph glyph-name="agrave" unicode="&#xe0;" 
d="M801 1277c0 -20 -7.16699 -38 -21.5 -54s-31.833 -24 -52.5 -24c-12 0 -24 3 -36 9l-300 150c-28 14 -42 35.667 -42 65c0 20 7.16699 38 21.5 54s31.833 24 52.5 24c12 0 24 -3 36 -9l300 -150c28 -14 42 -35.667 42 -65zM1075 75c0 -50 -25 -75.001 -75 -75.001
c-51.333 0 -76.333 35.333 -75 106c-98.667 -70.667 -215.334 -106 -350.001 -106c-123.333 0 -233.666 31 -330.999 93c-112.667 72 -169 166 -169 282s56.333 210 169 282c98 62 208.333 93 331 93c134.667 0 251.334 -35.333 350.001 -106v31c0 29.333 -10.333 59 -31 89
c-61.333 90.667 -167.666 136 -318.999 136c-86.667 0 -172.334 -24.667 -257.001 -74c-17.333 -10 -32.333 -15 -45 -15c-20 0 -37.5 7.83301 -52.5 23.5s-22.5 33.834 -22.5 54.501c0 49.333 52.333 90.333 157 123c81.333 25.333 154.666 38 219.999 38
c122.667 0 233 -31 331 -93c112.667 -72 169 -166 169 -282v-600zM925 374.999c0 47.333 -22.667 91.002 -68 131.002c-38 33.333 -83 57.666 -135 72.999c-45.333 14 -94.333 21 -147 21c-154.667 0 -262.334 -47.333 -323.001 -142c-18 -28 -27 -55.667 -27 -83
s9 -55 27 -83c60.667 -94.667 168.334 -142 323.001 -142c52.667 0 101.667 7 147 21c52 15.333 97 39.666 135 72.999c45.333 40 68 83.667 68 131z" />
    <glyph glyph-name="aacute" unicode="&#xe1;" 
d="M801 1423c0 -29.333 -14 -51 -42 -65l-300 -150c-12 -6 -24 -9 -36 -9c-20.667 0 -38.167 8 -52.5 24s-21.5 34 -21.5 54c0 29.333 14 51 42 65l300 150c12 6 24 9 36 9c20.667 0 38.167 -8 52.5 -24s21.5 -34 21.5 -54zM1075 75c0 -50 -25 -75.001 -75 -75.001
c-51.333 0 -76.333 35.333 -75 106c-98.667 -70.667 -215.334 -106 -350.001 -106c-123.333 0 -233.666 31 -330.999 93c-112.667 72 -169 166 -169 282s56.333 210 169 282c98 62 208.333 93 331 93c134.667 0 251.334 -35.333 350.001 -106v31c0 29.333 -10.333 59 -31 89
c-61.333 90.667 -167.666 136 -318.999 136c-86.667 0 -172.334 -24.667 -257.001 -74c-17.333 -10 -32.333 -15 -45 -15c-20 0 -37.5 7.83301 -52.5 23.5s-22.5 33.834 -22.5 54.501c0 49.333 52.333 90.333 157 123c81.333 25.333 154.666 38 219.999 38
c122.667 0 233 -31 331 -93c112.667 -72 169 -166 169 -282v-600zM925 374.999c0 47.333 -22.667 91.002 -68 131.002c-38 33.333 -83 57.666 -135 72.999c-45.333 14 -94.333 21 -147 21c-154.667 0 -262.334 -47.333 -323.001 -142c-18 -28 -27 -55.667 -27 -83
s9 -55 27 -83c60.667 -94.667 168.334 -142 323.001 -142c52.667 0 101.667 7 147 21c52 15.333 97 39.666 135 72.999c45.333 40 68 83.667 68 131z" />
    <glyph glyph-name="acircumflex" unicode="&#xe2;" 
d="M876 1277c0 -20 -7.5 -38 -22.5 -54s-32.5 -24 -52.5 -24c-14.667 0 -29 4.66699 -43 14l-183 122l-183 -122c-14 -9.33301 -28.333 -14 -43 -14c-20 0 -37.5 8 -52.5 24s-22.5 34 -22.5 54c0 24.667 11.333 44.667 34 60l219 146c18 12 34 18 48 18s30 -6 48 -18
l219 -146c22.667 -15.333 34 -35.333 34 -60zM1075 75c0 -50 -25 -75.001 -75 -75.001c-51.333 0 -76.333 35.333 -75 106c-98.667 -70.667 -215.334 -106 -350.001 -106c-123.333 0 -233.666 31 -330.999 93c-112.667 72 -169 166 -169 282s56.333 210 169 282
c98 62 208.333 93 331 93c134.667 0 251.334 -35.333 350.001 -106v31c0 29.333 -10.333 59 -31 89c-61.333 90.667 -167.666 136 -318.999 136c-86.667 0 -172.334 -24.667 -257.001 -74c-17.333 -10 -32.333 -15 -45 -15c-20 0 -37.5 7.83301 -52.5 23.5
s-22.5 33.834 -22.5 54.501c0 49.333 52.333 90.333 157 123c81.333 25.333 154.666 38 219.999 38c122.667 0 233 -31 331 -93c112.667 -72 169 -166 169 -282v-600zM925 374.999c0 47.333 -22.667 91.002 -68 131.002c-38 33.333 -83 57.666 -135 72.999
c-45.333 14 -94.333 21 -147 21c-154.667 0 -262.334 -47.333 -323.001 -142c-18 -28 -27 -55.667 -27 -83s9 -55 27 -83c60.667 -94.667 168.334 -142 323.001 -142c52.667 0 101.667 7 147 21c52 15.333 97 39.666 135 72.999c45.333 40 68 83.667 68 131z" />
    <glyph glyph-name="atilde" unicode="&#xe3;" 
d="M951 1353c0 -16 -6 -34 -18 -54c-38.667 -66 -108 -99 -208 -99c-56.667 0 -115.5 25 -176.5 75s-102.167 75 -123.5 75c-34 0 -60.333 -8 -79 -24c-11.333 -34 -34.333 -51 -69 -51c-52 0 -78 24 -78 72c0 16 6 34 18 54c38.667 66 108 99 208 99
c56.667 0 115.5 -25 176.5 -75s102.167 -75 123.5 -75c40.667 0 69.5 12.5 86.5 37.5s37.5 37.5 61.5 37.5c52 0 78 -24 78 -72zM1075 75c0 -50 -25 -75.001 -75 -75.001c-51.333 0 -76.333 35.333 -75 106c-98.667 -70.667 -215.334 -106 -350.001 -106
c-123.333 0 -233.666 31 -330.999 93c-112.667 72 -169 166 -169 282s56.333 210 169 282c98 62 208.333 93 331 93c134.667 0 251.334 -35.333 350.001 -106v31c0 29.333 -10.333 59 -31 89c-61.333 90.667 -167.666 136 -318.999 136
c-86.667 0 -172.334 -24.667 -257.001 -74c-17.333 -10 -32.333 -15 -45 -15c-20 0 -37.5 7.83301 -52.5 23.5s-22.5 33.834 -22.5 54.501c0 49.333 52.333 90.333 157 123c81.333 25.333 154.666 38 219.999 38c122.667 0 233 -31 331 -93c112.667 -72 169 -166 169 -282
v-600zM925 374.999c0 47.333 -22.667 91.002 -68 131.002c-38 33.333 -83 57.666 -135 72.999c-45.333 14 -94.333 21 -147 21c-154.667 0 -262.334 -47.333 -323.001 -142c-18 -28 -27 -55.667 -27 -83s9 -55 27 -83c60.667 -94.667 168.334 -142 323.001 -142
c52.667 0 101.667 7 147 21c52 15.333 97 39.666 135 72.999c45.333 40 68 83.667 68 131z" />
    <glyph glyph-name="adieresis" unicode="&#xe4;" 
d="M913 1313c0 -31.333 -11.167 -58 -33.5 -80s-48.833 -33 -79.5 -33c-31.333 0 -57.833 11 -79.5 33s-32.5 48.667 -32.5 80s10.833 57.833 32.5 79.5s48.167 32.5 79.5 32.5c30.667 0 57.167 -10.833 79.5 -32.5s33.5 -48.167 33.5 -79.5zM463 1313
c0 -31.333 -11.167 -58 -33.5 -80s-48.833 -33 -79.5 -33c-31.333 0 -57.833 11 -79.5 33s-32.5 48.667 -32.5 80s10.833 57.833 32.5 79.5s48.167 32.5 79.5 32.5c30.667 0 57.167 -10.833 79.5 -32.5s33.5 -48.167 33.5 -79.5zM1075 75c0 -50 -25 -75.001 -75 -75.001
c-51.333 0 -76.333 35.333 -75 106c-98.667 -70.667 -215.334 -106 -350.001 -106c-123.333 0 -233.666 31 -330.999 93c-112.667 72 -169 166 -169 282s56.333 210 169 282c98 62 208.333 93 331 93c134.667 0 251.334 -35.333 350.001 -106v31c0 29.333 -10.333 59 -31 89
c-61.333 90.667 -167.666 136 -318.999 136c-86.667 0 -172.334 -24.667 -257.001 -74c-17.333 -10 -32.333 -15 -45 -15c-20 0 -37.5 7.83301 -52.5 23.5s-22.5 33.834 -22.5 54.501c0 49.333 52.333 90.333 157 123c81.333 25.333 154.666 38 219.999 38
c122.667 0 233 -31 331 -93c112.667 -72 169 -166 169 -282v-600zM925 374.999c0 47.333 -22.667 91.002 -68 131.002c-38 33.333 -83 57.666 -135 72.999c-45.333 14 -94.333 21 -147 21c-154.667 0 -262.334 -47.333 -323.001 -142c-18 -28 -27 -55.667 -27 -83
s9 -55 27 -83c60.667 -94.667 168.334 -142 323.001 -142c52.667 0 101.667 7 147 21c52 15.333 97 39.666 135 72.999c45.333 40 68 83.667 68 131z" />
    <glyph glyph-name="aring" unicode="&#xe5;" 
d="M793 1311c0 -60 -21.333 -110.667 -64 -152s-94 -62 -154 -62s-111.167 20.667 -153.5 62s-63.5 92 -63.5 152c0 59.333 21.167 110.333 63.5 153s93.5 64 153.5 64s111.333 -21.333 154 -64s64 -93.667 64 -153zM1075 75c0 -50 -25 -75.001 -75 -75.001
c-51.333 0 -76.333 35.333 -75 106c-98.667 -70.667 -215.334 -106 -350.001 -106c-123.333 0 -233.666 31 -330.999 93c-112.667 72 -169 166 -169 282s56.333 210 169 282c98 62 208.333 93 331 93c134.667 0 251.334 -35.333 350.001 -106v31c0 29.333 -10.333 59 -31 89
c-61.333 90.667 -167.666 136 -318.999 136c-86.667 0 -172.334 -24.667 -257.001 -74c-17.333 -10 -32.333 -15 -45 -15c-20 0 -37.5 7.83301 -52.5 23.5s-22.5 33.834 -22.5 54.501c0 49.333 52.333 90.333 157 123c81.333 25.333 154.666 38 219.999 38
c122.667 0 233 -31 331 -93c112.667 -72 169 -166 169 -282v-600zM643 1311c0 44.667 -22.667 67 -68 67c-44.667 0 -67 -22.333 -67 -67c0 -42.667 22.333 -64 67 -64c45.333 0 68 21.333 68 64zM925 374.999c0 47.333 -22.667 91.002 -68 131.002
c-38 33.333 -83 57.666 -135 72.999c-45.333 14 -94.333 21 -147 21c-154.667 0 -262.334 -47.333 -323.001 -142c-18 -28 -27 -55.667 -27 -83s9 -55 27 -83c60.667 -94.667 168.334 -142 323.001 -142c52.667 0 101.667 7 147 21c52 15.333 97 39.666 135 72.999
c45.333 40 68 83.667 68 131z" />
    <glyph glyph-name="ae" unicode="&#xe6;" 
d="M1126 758c0 -22 -7.00195 -41.668 -21.002 -59.001l-169 -187c-45.333 -54 -116.666 -131.667 -213.999 -233c32 -86 71.667 -129 119 -129c44 0 89.667 57.333 137 172c14.667 35.333 38 53 70 53c52 0 78 -24 78 -72c0 -8 -1.33301 -16.333 -4 -25
c-22 -74 -55 -136.333 -99 -187c-53.333 -60.667 -114 -91 -182 -91c-93.333 0 -168.333 50.333 -225 151c-58.667 -100.667 -139 -151 -241 -151c-90.667 0 -165 41 -223 123c-51.333 73.333 -77 157.333 -77 252s25.667 178.667 77 252c58 82 132.333 123 223 123
c54.667 0 104.334 -16 149.001 -48c-3.33301 46.667 -17.333 89.334 -42 128.001c-29.333 46.667 -65 70 -107 70c-30 0 -58.833 -14.833 -86.5 -44.5s-51.167 -44.5 -70.5 -44.5c-20.667 0 -39 7.5 -55 22.5s-24 32.5 -24 52.5c0 14 5.66699 29.333 17 46
c52 78.667 125 118 219 118c102 0 182.333 -50.333 241 -151c58.667 100.667 133.667 151 225 151c60 0 122.5 -33.667 187.5 -101s97.5 -131 97.5 -191zM963.998 767.999c-35.333 88 -76.333 132 -123 132c-18.667 0 -39 -11 -61 -33c-70 -70 -105 -184 -105 -342
c0 -18.667 1.33301 -40 4 -64zM524.998 374.999c0 51.333 -12 99.333 -36 144c-29.333 54 -67.333 81 -114 81s-84.667 -27 -114 -81c-24 -44.667 -36 -92.667 -36 -144s12 -99.333 36 -144c29.333 -54 67.333 -81 114 -81s84.667 27 114 81c24 44.667 36 92.667 36 144z
" />
    <glyph glyph-name="ccedilla" unicode="&#xe7;" 
d="M1126 845c0 -20.667 -7.66699 -38.8271 -23 -54.4941s-33 -23.5 -53 -23.5c-14 0 -30.333 6.33301 -49 19c-108 76 -216 114 -324 114c-114.667 0 -216.667 -33.333 -306 -100c-97.333 -72.667 -146 -164.334 -146 -275.001s48.667 -202.334 146 -275.001
c89.333 -66.667 191.333 -100 306 -100c108 0 216 37.667 324 113c18 12.667 34 19 48 19c20.667 0 38.667 -7.83301 54 -23.5s23 -33.5 23 -53.5c0 -57.333 -72.333 -112.333 -217 -165c45.333 -55.333 68 -118.666 68 -189.999c0 -82.667 -29.333 -153.334 -88 -212.001
s-129.334 -88 -212.001 -88c-118 0 -204.667 50.333 -260 151c-7.33301 13.333 -11 26.333 -11 39c0 20 8 37.333 24 52s34.333 22 55 22c20 0 45.833 -19 77.5 -57s69.834 -57 114.501 -57c41.333 0 76.666 14.667 105.999 44s44 64.666 44 105.999
s-14.667 76.666 -44 105.999s-64.666 44 -105.999 44c-156.667 0 -294 47.667 -412 143c-126.667 101.333 -190 228.666 -190 381.999s63.333 280.666 190 381.999c118 95.333 255.333 143 412 143c73.333 0 148.333 -12.667 225 -38c86 -28 151.667 -65.333 197 -112
c18 -18.667 27 -37 27 -55z" />
    <glyph glyph-name="egrave" unicode="&#xe8;" 
d="M858 1277c0 -20 -7.16699 -38 -21.5 -54s-31.5 -24 -51.5 -24c-12 0 -24 3 -36 9l-300 150c-28 14 -42 35.667 -42 65c0 20 7.16699 38 21.5 54s31.5 24 51.5 24c12 0 24 -3 36 -9l300 -150c28 -14 42 -35.667 42 -65zM1126 301c0 -12.667 -4 -26.332 -12 -40.999
c-46 -80 -115 -143.667 -207 -191c-87.333 -46 -179 -69 -275 -69c-150 0 -279.333 49.667 -388 149c-112.667 102 -169 227.333 -169 376s56.333 274 169 376c108.667 99.333 238 149 388 149c54.667 0 111.667 -9.66699 171 -29c66.667 -22 133 -57 199 -105
c82 -60 123 -117 123 -171c0 -26.667 -13 -47 -39 -61l-758 -408c82 -84 183.333 -126 304 -126c128.667 0 232.667 44.667 312 134l42.5 55c19 24.667 39.5 37 61.5 37c20 0 38 -7.33301 54 -22s24 -32.334 24 -53.001zM937 774.002c-81.333 84 -183 126.001 -305 126.001
c-108 0 -202 -35 -282 -105c-83.333 -73.333 -125 -163.333 -125 -270c0 -42.667 7.33301 -83.334 22 -122.001z" />
    <glyph glyph-name="eacute" unicode="&#xe9;" 
d="M858 1423c0 -29.333 -14 -51 -42 -65l-300 -150c-12 -6 -24 -9 -36 -9c-20 0 -37.167 8 -51.5 24s-21.5 34 -21.5 54c0 29.333 14 51 42 65l300 150c12 6 24 9 36 9c20 0 37.167 -8 51.5 -24s21.5 -34 21.5 -54zM1126 301c0 -12.667 -4 -26.332 -12 -40.999
c-46 -80 -115 -143.667 -207 -191c-87.333 -46 -179 -69 -275 -69c-150 0 -279.333 49.667 -388 149c-112.667 102 -169 227.333 -169 376s56.333 274 169 376c108.667 99.333 238 149 388 149c54.667 0 111.667 -9.66699 171 -29c66.667 -22 133 -57 199 -105
c82 -60 123 -117 123 -171c0 -26.667 -13 -47 -39 -61l-758 -408c82 -84 183.333 -126 304 -126c128.667 0 232.667 44.667 312 134l42.5 55c19 24.667 39.5 37 61.5 37c20 0 38 -7.33301 54 -22s24 -32.334 24 -53.001zM937 774.002c-81.333 84 -183 126.001 -305 126.001
c-108 0 -202 -35 -282 -105c-83.333 -73.333 -125 -163.333 -125 -270c0 -42.667 7.33301 -83.334 22 -122.001z" />
    <glyph glyph-name="ecircumflex" unicode="&#xea;" 
d="M933 1277c0 -20 -7.33301 -38 -22 -54s-32 -24 -52 -24c-14.667 0 -29 4.66699 -43 14l-184 122l-183 -122c-14 -9.33301 -28.333 -14 -43 -14c-20 0 -37.5 8 -52.5 24s-22.5 34 -22.5 54c0 24.667 11.667 44.667 35 60l219 146c18 12 33.667 18 47 18c14 0 30 -6 48 -18
l219 -146c22.667 -15.333 34 -35.333 34 -60zM1126 301c0 -12.667 -4 -26.332 -12 -40.999c-46 -80 -115 -143.667 -207 -191c-87.333 -46 -179 -69 -275 -69c-150 0 -279.333 49.667 -388 149c-112.667 102 -169 227.333 -169 376s56.333 274 169 376
c108.667 99.333 238 149 388 149c54.667 0 111.667 -9.66699 171 -29c66.667 -22 133 -57 199 -105c82 -60 123 -117 123 -171c0 -26.667 -13 -47 -39 -61l-758 -408c82 -84 183.333 -126 304 -126c128.667 0 232.667 44.667 312 134l42.5 55c19 24.667 39.5 37 61.5 37
c20 0 38 -7.33301 54 -22s24 -32.334 24 -53.001zM937 774.002c-81.333 84 -183 126.001 -305 126.001c-108 0 -202 -35 -282 -105c-83.333 -73.333 -125 -163.333 -125 -270c0 -42.667 7.33301 -83.334 22 -122.001z" />
    <glyph glyph-name="edieresis" unicode="&#xeb;" 
d="M970 1313c0 -31.333 -11.167 -58 -33.5 -80s-48.833 -33 -79.5 -33c-31.333 0 -57.833 11 -79.5 33s-32.5 48.667 -32.5 80s10.833 57.833 32.5 79.5s48.167 32.5 79.5 32.5s58 -10.833 80 -32.5s33 -48.167 33 -79.5zM520 1313c0 -31.333 -11.167 -58 -33.5 -80
s-48.833 -33 -79.5 -33c-31.333 0 -57.833 11 -79.5 33s-32.5 48.667 -32.5 80s10.833 57.833 32.5 79.5s48.167 32.5 79.5 32.5s58 -10.833 80 -32.5s33 -48.167 33 -79.5zM1126 301c0 -12.667 -4 -26.332 -12 -40.999c-46 -80 -115 -143.667 -207 -191
c-87.333 -46 -179 -69 -275 -69c-150 0 -279.333 49.667 -388 149c-112.667 102 -169 227.333 -169 376s56.333 274 169 376c108.667 99.333 238 149 388 149c54.667 0 111.667 -9.66699 171 -29c66.667 -22 133 -57 199 -105c82 -60 123 -117 123 -171
c0 -26.667 -13 -47 -39 -61l-758 -408c82 -84 183.333 -126 304 -126c128.667 0 232.667 44.667 312 134l42.5 55c19 24.667 39.5 37 61.5 37c20 0 38 -7.33301 54 -22s24 -32.334 24 -53.001zM937 774.002c-81.333 84 -183 126.001 -305 126.001c-108 0 -202 -35 -282 -105
c-83.333 -73.333 -125 -163.333 -125 -270c0 -42.667 7.33301 -83.334 22 -122.001z" />
    <glyph glyph-name="igrave" unicode="&#xec;" 
d="M826 1277c0 -20 -7.16699 -38 -21.5 -54s-31.833 -24 -52.5 -24c-12 0 -24 3 -36 9l-300 150c-28 14 -42 35.667 -42 65c0 20 7.16699 38 21.5 54s31.833 24 52.5 24c12 0 24 -3 36 -9l300 -150c28 -14 42 -35.667 42 -65zM975 75c0 -50 -25 -75 -75 -75h-300
c-50 0 -75 25 -75 75v825h-225c-50 0 -75 25 -75 75s25 75 75 75h301c49.333 0 74 -25 74 -75v-825h225c50 0 75 -25 75 -75z" />
    <glyph glyph-name="iacute" unicode="&#xed;" 
d="M826 1423c0 -29.333 -14 -51 -42 -65l-300 -150c-12 -6 -24 -9 -36 -9c-20.667 0 -38.167 8 -52.5 24s-21.5 34 -21.5 54c0 29.333 14 51 42 65l300 150c12 6 24 9 36 9c20.667 0 38.167 -8 52.5 -24s21.5 -34 21.5 -54zM975 75c0 -50 -25 -75 -75 -75h-300
c-50 0 -75 25 -75 75v825h-225c-50 0 -75 25 -75 75s25 75 75 75h301c49.333 0 74 -25 74 -75v-825h225c50 0 75 -25 75 -75z" />
    <glyph glyph-name="icircumflex" unicode="&#xee;" 
d="M901 1277c0 -20 -7.5 -38 -22.5 -54s-32.5 -24 -52.5 -24c-14.667 0 -29 4.66699 -43 14l-183 122l-183 -122c-14 -9.33301 -28.333 -14 -43 -14c-20 0 -37.5 8 -52.5 24s-22.5 34 -22.5 54c0 24.667 11.333 44.667 34 60l219 146c18 12 34 18 48 18s30 -6 48 -18
l219 -146c22.667 -15.333 34 -35.333 34 -60zM975 75c0 -50 -25 -75 -75 -75h-300c-50 0 -75 25 -75 75v825h-225c-50 0 -75 25 -75 75s25 75 75 75h301c49.333 0 74 -25 74 -75v-825h225c50 0 75 -25 75 -75z" />
    <glyph glyph-name="idieresis" unicode="&#xef;" 
d="M938 1313c0 -31.333 -11.167 -58 -33.5 -80s-49.166 -33 -80.499 -33c-30.667 0 -56.834 11 -78.501 33s-32.5 48.667 -32.5 80s10.833 57.833 32.5 79.5s47.834 32.5 78.501 32.5c31.333 0 58.166 -10.833 80.499 -32.5s33.5 -48.167 33.5 -79.5zM488 1313
c0 -31.333 -11.168 -58 -33.501 -80s-49.166 -33 -80.499 -33c-30.667 0 -56.834 11 -78.501 33s-32.5 48.667 -32.5 80s10.833 57.833 32.5 79.5s47.834 32.5 78.501 32.5c32 0 59 -10.833 81 -32.5s33 -48.167 33 -79.5zM974.999 75c0 -50 -25 -75 -75 -75h-300
c-50.667 0 -76 25 -76 75l1 825h-225c-50 0 -75 25 -75 75s25 75 75 75h300c50 0 75 -28 75 -84v-816h225c50 0 75 -25 75 -75z" />
    <glyph glyph-name="eth" unicode="&#xf0;" 
d="M1125 525c0 -144.667 -51.3311 -268.334 -153.998 -371.001s-226.334 -154 -371.001 -154s-268.334 51.333 -371.001 154s-154 226.334 -154 371.001c0 145.333 52.333 270.166 157 374.499s229.667 154.5 375 150.5l-151 150h-231c-50 0 -75 25 -75 75
c0 38.667 18.333 62.334 55 71.001c12.667 3.33301 46.334 4.66602 101.001 3.99902c-30 26.667 -45 51.334 -45 74.001c0 20.667 7.66699 38.667 23 54s33.333 23 54 23c19.333 0 36.666 -7.66699 51.999 -23l128 -128h457c50 0 75 -25 75 -75s-25 -75 -75 -75h-306
l309 -309c98 -98 147 -220 147 -366zM975.002 525c0 103.333 -36.667 191.666 -110 264.999s-161.666 110 -264.999 110s-191.666 -36.667 -264.999 -110s-110 -161.666 -110 -264.999s36.667 -191.666 110 -264.999s161.666 -110 264.999 -110s191.666 36.667 264.999 110
s110 161.666 110 264.999z" />
    <glyph glyph-name="ntilde" unicode="&#xf1;" 
d="M1001 1353c0 -16 -6 -34 -18 -54c-38.667 -66 -108 -99 -208 -99c-56.667 0 -115.5 25 -176.5 75s-102.167 75 -123.5 75c-34 0 -60.333 -8 -79 -24c-11.333 -34 -34.333 -51 -69 -51c-52 0 -78 24 -78 72c0 16 6 34 18 54c38.667 66 108 99 208 99
c56.667 0 115.5 -25 176.5 -75s102.167 -75 123.5 -75c40.667 0 69.5 12.5 86.5 37.5s37.5 37.5 61.5 37.5c52 0 78 -24 78 -72zM1075 75c0 -50 -24.998 -75 -74.998 -75s-75 25 -75 75v525c0 82.667 -29.333 153.334 -88 212.001s-129.334 88 -212.001 88
s-153.334 -29.333 -212.001 -88s-88 -129.334 -88 -212.001v-525c0 -50 -25 -75 -75 -75s-75 25 -75 75v900c0 50 25 75 75 75c50.667 0 75.667 -38.333 75 -115c85.333 76.667 185.333 115 300 115c124 0 230 -44 318 -132s132 -194 132 -318v-525z" />
    <glyph glyph-name="ograve" unicode="&#xf2;" 
d="M826 1277c0 -20 -7.16699 -38 -21.5 -54s-31.833 -24 -52.5 -24c-12 0 -24 3 -36 9l-300 150c-28 14 -42 35.667 -42 65c0 20 7.16699 38 21.5 54s31.833 24 52.5 24c12 0 24 -3 36 -9l300 -150c28 -14 42 -35.667 42 -65zM1125 525
c0 -144.667 -51.333 -268.334 -154 -371.001s-226.334 -154 -371.001 -154s-268.334 51.333 -371.001 154s-154 226.334 -154 371.001s51.333 268.334 154 371.001s226.334 154 371.001 154s268.334 -51.333 371.001 -154s154 -226.334 154 -371.001zM975 525
c0 103.333 -36.667 191.666 -110 264.999s-161.666 110 -264.999 110s-191.666 -36.667 -264.999 -110s-110 -161.666 -110 -264.999s36.667 -191.666 110 -264.999s161.666 -110 264.999 -110s191.666 36.667 264.999 110s110 161.666 110 264.999z" />
    <glyph glyph-name="oacute" unicode="&#xf3;" 
d="M826 1423c0 -29.333 -14 -51 -42 -65l-300 -150c-12 -6 -24 -9 -36 -9c-20.667 0 -38.167 8 -52.5 24s-21.5 34 -21.5 54c0 29.333 14 51 42 65l300 150c12 6 24 9 36 9c20.667 0 38.167 -8 52.5 -24s21.5 -34 21.5 -54zM1125 525
c0 -144.667 -51.333 -268.334 -154 -371.001s-226.334 -154 -371.001 -154s-268.334 51.333 -371.001 154s-154 226.334 -154 371.001s51.333 268.334 154 371.001s226.334 154 371.001 154s268.334 -51.333 371.001 -154s154 -226.334 154 -371.001zM975 525
c0 103.333 -36.667 191.666 -110 264.999s-161.666 110 -264.999 110s-191.666 -36.667 -264.999 -110s-110 -161.666 -110 -264.999s36.667 -191.666 110 -264.999s161.666 -110 264.999 -110s191.666 36.667 264.999 110s110 161.666 110 264.999z" />
    <glyph glyph-name="ocircumflex" unicode="&#xf4;" 
d="M901 1277c0 -20 -7.5 -38 -22.5 -54s-32.5 -24 -52.5 -24c-14.667 0 -29 4.66699 -43 14l-183 122l-183 -122c-14 -9.33301 -28.333 -14 -43 -14c-20 0 -37.5 8 -52.5 24s-22.5 34 -22.5 54c0 24.667 11.333 44.667 34 60l219 146c18 12 34 18 48 18s30 -6 48 -18
l219 -146c22.667 -15.333 34 -35.333 34 -60zM1125 525c0 -144.667 -51.333 -268.334 -154 -371.001s-226.334 -154 -371.001 -154s-268.334 51.333 -371.001 154s-154 226.334 -154 371.001s51.333 268.334 154 371.001s226.334 154 371.001 154
s268.334 -51.333 371.001 -154s154 -226.334 154 -371.001zM975 525c0 103.333 -36.667 191.666 -110 264.999s-161.666 110 -264.999 110s-191.666 -36.667 -264.999 -110s-110 -161.666 -110 -264.999s36.667 -191.666 110 -264.999s161.666 -110 264.999 -110
s191.666 36.667 264.999 110s110 161.666 110 264.999z" />
    <glyph glyph-name="otilde" unicode="&#xf5;" 
d="M976 1353c0 -16 -6 -34 -18 -54c-38.667 -66 -108 -99 -208 -99c-56.667 0 -115.5 25 -176.5 75s-102.167 75 -123.5 75c-34 0 -60.333 -8 -79 -24c-11.333 -34 -34.333 -51 -69 -51c-52 0 -78 24 -78 72c0 16 6 34 18 54c38.667 66 108 99 208 99
c56.667 0 115.5 -25 176.5 -75s102.167 -75 123.5 -75c40.667 0 69.5 12.5 86.5 37.5s37.5 37.5 61.5 37.5c52 0 78 -24 78 -72zM1125 525c0 -144.667 -51.333 -268.334 -154 -371.001s-226.334 -154 -371.001 -154s-268.334 51.333 -371.001 154s-154 226.334 -154 371.001
s51.333 268.334 154 371.001s226.334 154 371.001 154s268.334 -51.333 371.001 -154s154 -226.334 154 -371.001zM975 525c0 103.333 -36.667 191.666 -110 264.999s-161.666 110 -264.999 110s-191.666 -36.667 -264.999 -110s-110 -161.666 -110 -264.999
s36.667 -191.666 110 -264.999s161.666 -110 264.999 -110s191.666 36.667 264.999 110s110 161.666 110 264.999z" />
    <glyph glyph-name="odieresis" unicode="&#xf6;" 
d="M938 1313c0 -31.333 -11 -58 -33 -80s-48.667 -33 -80 -33s-57.833 11 -79.5 33s-32.5 48.667 -32.5 80s10.833 57.833 32.5 79.5s48.167 32.5 79.5 32.5s58 -10.833 80 -32.5s33 -48.167 33 -79.5zM488 1313c0 -31.333 -11 -58 -33 -80s-48.667 -33 -80 -33
s-57.833 11 -79.5 33s-32.5 48.667 -32.5 80s10.833 57.833 32.5 79.5s48.167 32.5 79.5 32.5s58 -10.833 80 -32.5s33 -48.167 33 -79.5zM1125 525c0 -144.667 -51.333 -268.334 -154 -371.001s-226.334 -154 -371.001 -154s-268.334 51.333 -371.001 154
s-154 226.334 -154 371.001s51.333 268.334 154 371.001s226.334 154 371.001 154s268.334 -51.333 371.001 -154s154 -226.334 154 -371.001zM975 525c0 103.333 -36.667 191.666 -110 264.999s-161.666 110 -264.999 110s-191.666 -36.667 -264.999 -110
s-110 -161.666 -110 -264.999s36.667 -191.666 110 -264.999s161.666 -110 264.999 -110s191.666 36.667 264.999 110s110 161.666 110 264.999z" />
    <glyph glyph-name="divide" unicode="&#xf7;" 
d="M714 1052c0 -31.333 -11.167 -58.166 -33.5 -80.499s-49.166 -33.5 -80.499 -33.5s-58.166 11.167 -80.499 33.5s-33.5 49.166 -33.5 80.499c0 30.667 11.167 56.834 33.5 78.501s49.166 32.5 80.499 32.5s58.166 -10.833 80.499 -32.5s33.5 -47.834 33.5 -78.501z
M975 638c0 -50 -25 -75 -75 -75h-600c-50 0 -75 25 -75 75s25 75 75 75h600c50 0 75 -25 75 -75zM714 227c0 -31.333 -11.167 -58.166 -33.5 -80.499s-49.166 -33.5 -80.499 -33.5s-58.166 11.167 -80.499 33.5s-33.5 49.166 -33.5 80.499
c0 30.667 11.167 56.834 33.5 78.501s49.166 32.5 80.499 32.5s58.166 -10.833 80.499 -32.5s33.5 -47.834 33.5 -78.501z" />
    <glyph glyph-name="oslash" unicode="&#xf8;" 
d="M1126 974c0 -21.333 -35.333 -66.333 -106 -135c70 -92.667 105 -197.334 105 -314.001c0 -144.667 -51.333 -268.334 -154 -371.001s-226.334 -154 -371.001 -154c-116.667 0 -221.334 35 -314.001 105c-68.667 -70.667 -113.667 -106 -135 -106
c-20.667 0 -38.667 7.66699 -54 23s-23 33.333 -23 54c0 21.333 35.333 66.333 106 135c-70 92.667 -105 197.334 -105 314.001c0 144.667 51.333 268.334 154 371.001s226.334 154 371.001 154c116.667 0 221.334 -35 314.001 -105c68.667 70.667 113.667 106 135 106
c20.667 0 38.667 -7.66699 54 -23s23 -33.333 23 -54zM807 838c-62.667 41.333 -131.668 61.999 -207.001 61.999c-103.333 0 -191.666 -36.667 -264.999 -110s-110 -161.666 -110 -264.999c0 -75.333 20.667 -144.333 62 -207zM974.999 524.999
c0 75.333 -20.666 144.334 -61.999 207.001l-520 -520c62.667 -41.333 131.667 -62 207 -62c103.333 0 191.666 36.667 264.999 110s110 161.666 110 264.999z" />
    <glyph glyph-name="ugrave" unicode="&#xf9;" 
d="M826 1277c0 -20 -7.16699 -38 -21.5 -54s-31.833 -24 -52.5 -24c-12 0 -24 3 -36 9l-300 150c-28 14 -42 35.667 -42 65c0 20 7.16699 38 21.5 54s31.833 24 52.5 24c12 0 24 -3 36 -9l300 -150c28 -14 42 -35.667 42 -65zM1075 475
c0 -131.333 -46.333 -243.333 -139 -336s-204.667 -139 -336 -139s-243.333 46.333 -336 139s-139 204.667 -139 336v500c0 50 25 75 75 75s75 -25 75 -75v-500c0 -89.333 31.833 -165.833 95.5 -229.5s140.167 -95.5 229.5 -95.5s165.833 31.833 229.5 95.5
s95.5 140.167 95.5 229.5v500c0 50 25 75 75 75s75 -25 75 -75v-500z" />
    <glyph glyph-name="uacute" unicode="&#xfa;" 
d="M826 1423c0 -29.333 -14 -51 -42 -65l-300 -150c-12 -6 -24 -9 -36 -9c-20.667 0 -38.167 8 -52.5 24s-21.5 34 -21.5 54c0 29.333 14 51 42 65l300 150c12 6 24 9 36 9c20.667 0 38.167 -8 52.5 -24s21.5 -34 21.5 -54zM1075 475c0 -131.333 -46.333 -243.333 -139 -336
s-204.667 -139 -336 -139s-243.333 46.333 -336 139s-139 204.667 -139 336v500c0 50 25 75 75 75s75 -25 75 -75v-500c0 -89.333 31.833 -165.833 95.5 -229.5s140.167 -95.5 229.5 -95.5s165.833 31.833 229.5 95.5s95.5 140.167 95.5 229.5v500c0 50 25 75 75 75
s75 -25 75 -75v-500z" />
    <glyph glyph-name="ucircumflex" unicode="&#xfb;" 
d="M901 1277c0 -20 -7.5 -38 -22.5 -54s-32.5 -24 -52.5 -24c-14.667 0 -29 4.66699 -43 14l-183 122l-183 -122c-14 -9.33301 -28.333 -14 -43 -14c-20 0 -37.5 8 -52.5 24s-22.5 34 -22.5 54c0 24.667 11.333 44.667 34 60l219 146c18 12 34 18 48 18s30 -6 48 -18
l219 -146c22.667 -15.333 34 -35.333 34 -60zM1075 475c0 -131.333 -46.333 -243.333 -139 -336s-204.667 -139 -336 -139s-243.333 46.333 -336 139s-139 204.667 -139 336v500c0 50 25 75 75 75s75 -25 75 -75v-500c0 -89.333 31.833 -165.833 95.5 -229.5
s140.167 -95.5 229.5 -95.5s165.833 31.833 229.5 95.5s95.5 140.167 95.5 229.5v500c0 50 25 75 75 75s75 -25 75 -75v-500z" />
    <glyph glyph-name="udieresis" unicode="&#xfc;" 
d="M938 1313c0 -31.333 -11 -58 -33 -80s-48.667 -33 -80 -33s-57.833 11 -79.5 33s-32.5 48.667 -32.5 80s10.833 57.833 32.5 79.5s48.167 32.5 79.5 32.5s58 -10.833 80 -32.5s33 -48.167 33 -79.5zM488 1313c0 -31.333 -11 -58 -33 -80s-48.667 -33 -80 -33
s-57.833 11 -79.5 33s-32.5 48.667 -32.5 80s10.833 57.833 32.5 79.5s48.167 32.5 79.5 32.5s58 -10.833 80 -32.5s33 -48.167 33 -79.5zM1075 475c0 -131.333 -46.333 -243.333 -139 -336s-204.667 -139 -336 -139s-243.333 46.333 -336 139s-139 204.667 -139 336v500
c0 50 25 75 75 75s75 -25 75 -75v-500c0 -89.333 31.833 -165.833 95.5 -229.5s140.167 -95.5 229.5 -95.5s165.833 31.833 229.5 95.5s95.5 140.167 95.5 229.5v500c0 50 25 75 75 75s75 -25 75 -75v-500z" />
    <glyph glyph-name="yacute" unicode="&#xfd;" 
d="M801 1423c0 -29.333 -14 -51 -42 -65l-300 -150c-12 -6 -24 -9 -36 -9c-20.667 0 -38.167 8 -52.5 24s-21.5 34 -21.5 54c0 29.333 14 51 42 65l300 150c12 6 24 9 36 9c20.667 0 38.167 -8 52.5 -24s21.5 -34 21.5 -54zM1025 975l-0.00195312 -974.999
c0 -124 -44 -230 -132 -318s-194 -132 -318 -132c-78.667 0 -153.334 20 -224.001 60c-73.333 41.333 -128.333 95.666 -165 162.999c-7.33301 14.667 -11 28 -11 40c0 20 8 37.333 24 52s34 22 54 22c22.667 0 43.667 -12.667 63 -38c74.667 -99.333 161 -149 259 -149
c82.667 0 153.334 29.333 212.001 88s88 129.334 88 212.001v115c-85.333 -76.667 -185.333 -115 -300 -115c-124 0 -230 44 -318 132s-132 194 -132 318v525c0 50 25 75 75 75s75 -25 75 -75v-525c0 -82.667 29.333 -153.334 88 -212.001s129.334 -88 212.001 -88
s153.334 29.333 212.001 88s88 129 88 211v526c0 50 25 75 75 75s75 -25 75 -75z" />
    <glyph glyph-name="thorn" unicode="&#xfe;" 
d="M1125 525c0 -138.667 -44 -259.667 -132 -363c-92 -108 -206.333 -162 -343 -162c-126 -0 -234.333 47.333 -325 142v-517c0 -50 -25 -75 -75 -75s-75 25 -75 75v1800c0 50 25 75 75 75s75 -25 75 -75v-517c90.667 94.667 199 142 325 142c136.667 0 251 -54 343 -162
c88 -103.333 132 -224.333 132 -363zM975 525c0 97.333 -29.333 182.666 -88 255.999c-63.333 79.333 -142.333 119 -237 119s-173.667 -39.667 -237 -119c-58.667 -73.333 -88 -158.666 -88 -255.999s29.333 -182.666 88 -255.999c63.333 -79.333 142.333 -119 237 -119
s173.667 39.667 237 119c58.667 73.333 88 158.666 88 255.999z" />
    <glyph glyph-name="ydieresis" unicode="&#xff;" 
d="M913 1300c0 -31.333 -11 -58 -33 -80s-48.667 -33 -80 -33s-57.833 11 -79.5 33s-32.5 48.667 -32.5 80s10.833 57.833 32.5 79.5s48.167 32.5 79.5 32.5s58 -10.833 80 -32.5s33 -48.167 33 -79.5zM463 1300c0 -31.333 -11 -58 -33 -80s-48.667 -33 -80 -33
s-57.833 11 -79.5 33s-32.5 48.667 -32.5 80s10.833 57.833 32.5 79.5s48.167 32.5 79.5 32.5s58 -10.833 80 -32.5s33 -48.167 33 -79.5zM1025 975l-0.00195312 -974.999c0 -124 -44 -230 -132 -318s-194 -132 -318 -132c-78.667 0 -153.334 20 -224.001 60
c-73.333 41.333 -128.333 95.666 -165 162.999c-7.33301 14.667 -11 28 -11 40c0 20 8 37.333 24 52s34 22 54 22c22.667 0 43.667 -12.667 63 -38c74.667 -99.333 161 -149 259 -149c82.667 0 153.334 29.333 212.001 88s88 129.334 88 212.001v115
c-85.333 -76.667 -185.333 -115 -300 -115c-124 0 -230 44 -318 132s-132 194 -132 318v525c0 50 25 75 75 75s75 -25 75 -75v-525c0 -82.667 29.333 -153.334 88 -212.001s129.334 -88 212.001 -88s153.334 29.333 212.001 88s88 129 88 211v526c0 50 25 75 75 75
s75 -25 75 -75z" />
    <glyph glyph-name="Amacron" unicode="&#x100;" 
d="M1125 1800c0 -50 -25 -75 -75 -75h-900c-50 0 -75 25 -75 75s25 75 75 75h900c50 0 75 -25 75 -75zM1126 72c0 -48 -26 -72 -78 -72c-34.667 0 -57.667 17 -69 51l-133 399h-492l-133 -399c-11.333 -34 -34.333 -51 -69 -51c-52 0 -78 24 -78 72
c0 8.66699 1.66699 17.667 5 27l446 1338c14 42 39 63 75 63s61 -21 75 -63l446 -1338c3.33301 -9.33301 5 -18.333 5 -27zM796 600l-196 588l-196 -588h392z" />
    <glyph glyph-name="amacron" unicode="&#x101;" 
d="M1075 1350c0 -50 -25 -75 -75 -75h-850c-50 0 -75 25 -75 75s25 75 75 75h850c50 0 75 -25 75 -75zM1075 75c0 -50 -25 -75.001 -75 -75.001c-51.333 0 -76.333 35.333 -75 106c-98.667 -70.667 -215.334 -106 -350.001 -106c-123.333 0 -233.666 31 -330.999 93
c-112.667 72 -169 166 -169 282s56.333 210 169 282c98 62 208.333 93 331 93c134.667 0 251.334 -35.333 350.001 -106v31c0 29.333 -10.333 59 -31 89c-61.333 90.667 -167.666 136 -318.999 136c-86.667 0 -172.334 -24.667 -257.001 -74
c-17.333 -10 -32.333 -15 -45 -15c-20 0 -37.5 7.83301 -52.5 23.5s-22.5 33.834 -22.5 54.501c0 49.333 52.333 90.333 157 123c81.333 25.333 154.666 38 219.999 38c122.667 0 233 -31 331 -93c112.667 -72 169 -166 169 -282v-600zM925 374.999
c0 47.333 -22.667 91.002 -68 131.002c-38 33.333 -83 57.666 -135 72.999c-45.333 14 -94.333 21 -147 21c-154.667 0 -262.334 -47.333 -323.001 -142c-18 -28 -27 -55.667 -27 -83s9 -55 27 -83c60.667 -94.667 168.334 -142 323.001 -142c52.667 0 101.667 7 147 21
c52 15.333 97 39.666 135 72.999c45.333 40 68 83.667 68 131z" />
    <glyph glyph-name="Abreve" unicode="&#x102;" 
d="M903 1875c0 -18 -14.334 -42.668 -43.001 -74.001c-92 -100.667 -178.667 -151 -260 -151c-47.333 0 -100 19.667 -158 59c-51.333 35.333 -93.333 75 -126 119c-11.333 16.667 -17 32.334 -17 47.001c0 20.667 7.83301 38.5 23.5 53.5s33.834 22.5 54.501 22.5
c19.333 0 53.333 -25.167 102 -75.5s89 -75.5 121 -75.5s72.333 25.167 121 75.5s82.667 75.5 102 75.5c20.667 0 39.167 -7.5 55.5 -22.5s24.5 -32.833 24.5 -53.5zM1126 71.999c0 -48 -26 -72 -78 -72c-34.667 0 -57.667 17 -69 51l-133 399h-492l-133 -399
c-11.333 -34 -34.333 -51 -69 -51c-52 0 -78 24 -78 72c0 8.66699 1.66699 17.667 5 27l446 1338c14 42 39 63 75 63s61 -21 75 -63l446 -1338c3.33301 -9.33301 5 -18.333 5 -27zM795.999 599.999l-196 588l-196 -588h392z" />
    <glyph glyph-name="abreve" unicode="&#x103;" 
d="M878 1425c0 -18.667 -14.335 -43.334 -43.002 -74.001c-91.333 -99.333 -180 -149 -266 -149c-101.333 0 -194 58.667 -278 176c-11.333 16.667 -17 32.334 -17 47.001c0 20.667 7.83301 38.5 23.5 53.5s33.834 22.5 54.501 22.5s53.167 -24.833 97.5 -74.5
s85.833 -74.5 124.5 -74.5c39.333 0 81.333 24.833 126 74.5s77.334 74.5 98.001 74.5s39.167 -7.5 55.5 -22.5s24.5 -32.833 24.5 -53.5zM1075 75c0 -50 -25 -75.001 -75 -75.001c-51.333 0 -76.333 35.333 -75 106c-98.667 -70.667 -215.334 -106 -350.001 -106
c-123.333 0 -233.666 31 -330.999 93c-112.667 72 -169 166 -169 282s56.333 210 169 282c98 62 208.333 93 331 93c134.667 0 251.334 -35.333 350.001 -106v31c0 29.333 -10.333 59 -31 89c-61.333 90.667 -167.666 136 -318.999 136
c-86.667 0 -172.334 -24.667 -257.001 -74c-17.333 -10 -32.333 -15 -45 -15c-20 0 -37.5 7.83301 -52.5 23.5s-22.5 33.834 -22.5 54.501c0 49.333 52.333 90.333 157 123c81.333 25.333 154.666 38 219.999 38c122.667 0 233 -31 331 -93c112.667 -72 169 -166 169 -282
v-600zM924.998 374.999c0 47.333 -22.667 91.002 -68 131.002c-38 33.333 -83 57.666 -135 72.999c-45.333 14 -94.333 21 -147 21c-154.667 0 -262.334 -47.333 -323.001 -142c-18 -28 -27 -55.667 -27 -83s9 -55 27 -83c60.667 -94.667 168.334 -142 323.001 -142
c52.667 0 101.667 7 147 21c52 15.333 97 39.666 135 72.999c45.333 40 68 83.667 68 131z" />
    <glyph glyph-name="Aogonek" unicode="&#x104;" 
d="M1126 68c0 -45.333 -25.332 -68 -75.999 -68c-41.333 -0 -76.666 -14.667 -105.999 -44s-44 -64.666 -44 -105.999s14.667 -76.666 44 -105.999s64.666 -44 105.999 -44c50 0 75 -25 75 -75s-25 -75 -75 -75c-82.667 0 -153.334 29.333 -212.001 88
s-88 129.334 -88 212.001c0 63.333 18.5 121.166 55.5 173.499s85.5 88.833 145.5 109.5l-105 317h-492l-133 -399c-11.333 -34 -34.333 -51 -69 -51c-52 0 -78 24 -78 72c0 18 114 365 342 1041c22.667 72.667 59 180.667 109 324c16.667 42 41.667 63 75 63
c34 0 59 -21 75 -63c0 -0.666992 36.667 -109.334 110 -326.001c227.333 -674.667 341 -1022.33 341 -1043zM796.001 600l-196 588l-196 -588h392z" />
    <glyph glyph-name="aogonek" unicode="&#x105;" 
d="M1138 -386c0 -42.667 -46.667 -64.0039 -140 -64.0039c-82.667 0 -153.334 29.333 -212.001 88s-88 129.334 -88 212.001c0 64.667 18.667 123 56 175c-58.667 -16.667 -118.334 -25 -179.001 -25c-123.333 0 -233.666 31 -330.999 93c-112.667 72 -169 166 -169 282
s56.333 210 169 282c98 62 208.333 93 331 93c134.667 0 251.334 -35.333 350.001 -106v31c0 29.333 -10.333 59 -31 89c-62 90.667 -168.333 136 -319 136c-86.667 0 -172.334 -24.667 -257.001 -74c-17.333 -10 -32.333 -15 -45 -15c-20 0 -37.5 7.83301 -52.5 23.5
s-22.5 33.834 -22.5 54.501s11 40.334 33 59.001c78.667 68 193.334 102 344.001 102c123.333 0 233.666 -31 330.999 -93c112.667 -72 169 -166 169 -282v-320c0 -30.667 -0.333008 -77.334 -1 -140.001s-1 -109.334 -1 -140.001c0 -20 -7.66699 -37.5 -23 -52.5
s-32.666 -22.5 -51.999 -22.5c-41.333 0 -76.666 -14.667 -105.999 -44s-44 -64.666 -44 -105.999s14.667 -76.666 44 -105.999s64.666 -44 105.999 -44c28 0 57 -7.33301 87 -22c35.333 -17.333 53 -38.666 53 -63.999zM925 374.996c0 71.333 -42.333 128.668 -127 172.001
c-70 35.333 -144.333 53 -223 53c-145.333 0 -250.333 -43.333 -315 -130c-23.333 -31.333 -35 -63 -35 -95s11.667 -63.667 35 -95c64.667 -86.667 169.667 -130 315 -130c78.667 0 153 17.667 223 53c84.667 43.333 127 100.666 127 171.999zM924 389.998
c1.33301 -10.667 1.33301 -21 0 -31v31z" />
    <glyph glyph-name="Cacute" unicode="&#x106;" 
d="M903 1873c0 -29.333 -14 -51 -42 -65l-300 -150c-12 -6 -24 -9 -36 -9c-20 0 -37.167 8 -51.5 24s-21.5 34 -21.5 54c0 29.333 14 51 42 65l300 150c12 6 24 9 36 9c20 0 37.167 -8 51.5 -24s21.5 -34 21.5 -54zM1126 273c0 -14.667 -5.66504 -30.3311 -16.998 -46.998
c-46.667 -66.667 -109.834 -121 -189.501 -163s-160.5 -63 -242.5 -63c-180.667 0 -329.334 82 -446.001 246c-104 147.333 -156 315.333 -156 504s52 356.667 156 504c116.667 164 265.334 246 446.001 246c82 0 162.833 -21 242.5 -63s142.834 -96.333 189.501 -163
c11.333 -16.667 17 -32.334 17 -47.001c0 -20 -7.83301 -37.667 -23.5 -53s-33.834 -23 -54.501 -23c-12.667 0 -27.834 6.16699 -45.501 18.5s-28.167 24.166 -31.5 35.499c0 1.33301 -7 9 -21 23c-81.333 81.333 -172.333 122 -273 122
c-92.667 0 -177.667 -35.667 -255 -107c-68.667 -62.667 -120 -141.667 -154 -237c-28.667 -80 -43 -165.333 -43 -256s14.333 -176 43 -256c34 -95.333 85 -174.333 153 -237c77.333 -71.333 162.666 -107 255.999 -107c100 0 191 40.667 273 122c6 4.66699 13 12 21 22
c0.666992 10 10.667 21.667 30 35s35 20 47 20c20.667 0 38.834 -7.66699 54.501 -23s23.5 -33 23.5 -53z" />
    <glyph glyph-name="cacute" unicode="&#x107;" 
d="M903 1423c0 -29.333 -14 -51 -42 -65l-300 -150c-12 -6 -24 -9 -36 -9c-20 0 -37.167 8 -51.5 24s-21.5 34 -21.5 54c0 29.333 14 51 42 65l300 150c12 6 24 9 36 9c20 0 37.167 -8 51.5 -24s21.5 -34 21.5 -54zM1126 845c0 -20.667 -7.66895 -38.8291 -23.002 -54.4961
s-33 -23.5 -53 -23.5c-14 0 -30.333 6.33301 -49 19c-107.333 76 -215.333 114 -324 114c-114.667 0 -216.667 -33.333 -306 -100c-97.333 -72.667 -146 -164.334 -146 -275.001s49 -202.334 147 -275.001c88.667 -66.667 190.334 -100 305.001 -100
c108 0 216 37.667 324 113c18 12.667 34 19 48 19c20.667 0 38.667 -7.83301 54 -23.5s23 -33.5 23 -53.5c0 -19.333 -9.33301 -38 -28 -56c-46.667 -46.667 -112 -83.667 -196 -111c-76.667 -25.333 -151.667 -38 -225 -38c-156.667 0 -294 47.667 -412 143
c-126.667 101.333 -190 228.666 -190 381.999s63.333 280.666 190 381.999c118 95.333 255.333 143 412 143c73.333 0 148.333 -12.667 225 -38c84.667 -28 150.334 -65.333 197.001 -112c18 -18 27 -36.333 27 -55z" />
    <glyph glyph-name="Ccircumflex" unicode="&#x108;" 
d="M978 1727c0 -20 -7.33203 -38 -21.999 -54s-32.334 -24 -53.001 -24c-14 0 -28 4.66699 -42 14l-184 122l-183 -122c-14 -9.33301 -28.333 -14 -43 -14c-20 0 -37.5 8 -52.5 24s-22.5 34 -22.5 54c0 24.667 11.667 44.667 35 60l219 146c18 12 33.667 18 47 18
c14 0 30 -6 48 -18l219 -146c22.667 -15.333 34 -35.333 34 -60zM1126 273c0 -14.667 -5.66504 -30.3311 -16.998 -46.998c-46.667 -66.667 -109.834 -121 -189.501 -163s-160.5 -63 -242.5 -63c-180.667 0 -329.334 82 -446.001 246c-104 147.333 -156 315.333 -156 504
s52 356.667 156 504c116.667 164 265.334 246 446.001 246c82 0 162.833 -21 242.5 -63s142.834 -96.333 189.501 -163c11.333 -16.667 17 -32.334 17 -47.001c0 -20 -7.83301 -37.667 -23.5 -53s-33.834 -23 -54.501 -23c-12.667 0 -27.834 6.16699 -45.501 18.5
s-28.167 24.166 -31.5 35.499c0 1.33301 -7 9 -21 23c-81.333 81.333 -172.333 122 -273 122c-92.667 0 -177.667 -35.667 -255 -107c-68.667 -62.667 -120 -141.667 -154 -237c-28.667 -80 -43 -165.333 -43 -256s14.333 -176 43 -256c34 -95.333 85 -174.333 153 -237
c77.333 -71.333 162.666 -107 255.999 -107c100 0 191 40.667 273 122c6 4.66699 13 12 21 22c0.666992 10 10.667 21.667 30 35s35 20 47 20c20.667 0 38.834 -7.66699 54.501 -23s23.5 -33 23.5 -53z" />
    <glyph glyph-name="ccircumflex" unicode="&#x109;" 
d="M978 1277c0 -20 -7.33203 -38 -21.999 -54s-32.334 -24 -53.001 -24c-14 0 -28 4.66699 -42 14l-184 122l-183 -122c-14 -9.33301 -28.333 -14 -43 -14c-20 0 -37.5 8 -52.5 24s-22.5 34 -22.5 54c0 24.667 11.667 44.667 35 60l219 146c18 12 33.667 18 47 18
c14 0 30 -6 48 -18l219 -146c22.667 -15.333 34 -35.333 34 -60zM1126 845c0 -20.667 -7.66895 -38.8291 -23.002 -54.4961s-33 -23.5 -53 -23.5c-14 0 -30.333 6.33301 -49 19c-107.333 76 -215.333 114 -324 114c-114.667 0 -216.667 -33.333 -306 -100
c-97.333 -72.667 -146 -164.334 -146 -275.001s49 -202.334 147 -275.001c88.667 -66.667 190.334 -100 305.001 -100c108 0 216 37.667 324 113c18 12.667 34 19 48 19c20.667 0 38.667 -7.83301 54 -23.5s23 -33.5 23 -53.5c0 -19.333 -9.33301 -38 -28 -56
c-46.667 -46.667 -112 -83.667 -196 -111c-76.667 -25.333 -151.667 -38 -225 -38c-156.667 0 -294 47.667 -412 143c-126.667 101.333 -190 228.666 -190 381.999s63.333 280.666 190 381.999c118 95.333 255.333 143 412 143c73.333 0 148.333 -12.667 225 -38
c84.667 -28 150.334 -65.333 197.001 -112c18 -18 27 -36.333 27 -55z" />
    <glyph glyph-name="Cdot" unicode="&#x10a;" 
d="M790 1763c0 -31.333 -11 -58 -33 -80s-48.667 -33 -80 -33c-30.667 0 -57 11 -79 33s-33 48.667 -33 80s10.833 57.833 32.5 79.5s48.167 32.5 79.5 32.5s58 -10.833 80 -32.5s33 -48.167 33 -79.5zM1126 273c0 -14.667 -5.66504 -30.3311 -16.998 -46.998
c-46.667 -66.667 -109.834 -121 -189.501 -163s-160.5 -63 -242.5 -63c-180.667 0 -329.334 82 -446.001 246c-104 147.333 -156 315.333 -156 504s52 356.667 156 504c116.667 164 265.334 246 446.001 246c82 0 162.833 -21 242.5 -63s142.834 -96.333 189.501 -163
c11.333 -16.667 17 -32.334 17 -47.001c0 -20 -7.83301 -37.667 -23.5 -53s-33.834 -23 -54.501 -23c-12.667 0 -27.834 6.16699 -45.501 18.5s-28.167 24.166 -31.5 35.499c0 1.33301 -7 9 -21 23c-81.333 81.333 -172.333 122 -273 122
c-92.667 0 -177.667 -35.667 -255 -107c-68.667 -62.667 -120 -141.667 -154 -237c-28.667 -80 -43 -165.333 -43 -256s14.333 -176 43 -256c34 -95.333 85 -174.333 153 -237c77.333 -71.333 162.666 -107 255.999 -107c100 0 191 40.667 273 122c6 4.66699 13 12 21 22
c0.666992 10 10.667 21.667 30 35s35 20 47 20c20.667 0 38.834 -7.66699 54.501 -23s23.5 -33 23.5 -53z" />
    <glyph glyph-name="cdot" unicode="&#x10b;" 
d="M791 1386c0 -31.333 -11.1689 -57.666 -33.502 -78.999s-49.166 -32 -80.499 -32s-58.166 10.667 -80.499 32s-33.5 47.666 -33.5 78.999s11.333 58.166 34 80.499s49.334 33.5 80.001 33.5c31.333 0 58.166 -11.167 80.499 -33.5s33.5 -49.166 33.5 -80.499zM1126 845
c0 -20.667 -7.66895 -38.8291 -23.002 -54.4961s-33 -23.5 -53 -23.5c-14 0 -30.333 6.33301 -49 19c-107.333 76 -215.333 114 -324 114c-114.667 0 -216.667 -33.333 -306 -100c-97.333 -72.667 -146 -164.334 -146 -275.001s49 -202.334 147 -275.001
c88.667 -66.667 190.334 -100 305.001 -100c108 0 216 37.667 324 113c18 12.667 34 19 48 19c20.667 0 38.667 -7.83301 54 -23.5s23 -33.5 23 -53.5c0 -19.333 -9.33301 -38 -28 -56c-46.667 -46.667 -112 -83.667 -196 -111c-76.667 -25.333 -151.667 -38 -225 -38
c-156.667 0 -294 47.667 -412 143c-126.667 101.333 -190 228.666 -190 381.999s63.333 280.666 190 381.999c118 95.333 255.333 143 412 143c73.333 0 148.333 -12.667 225 -38c84.667 -28 150.334 -65.333 197.001 -112c18 -18 27 -36.333 27 -55z" />
    <glyph glyph-name="Ccaron" unicode="&#x10c;" 
d="M978 1873c0 -24.667 -11.334 -44.667 -34.001 -60l-219 -146c-18 -12 -34 -18 -48 -18c-13.333 0 -29 6 -47 18l-219 146c-23.333 15.333 -35 35.333 -35 60c0 20 7.5 38 22.5 54s32.5 24 52.5 24c14.667 0 29 -4.66699 43 -14l183 -122l184 122c14 9.33301 28 14 42 14
c20.667 0 38.334 -8 53.001 -24s22 -34 22 -54zM1126 273c0 -14.667 -5.66504 -30.3311 -16.998 -46.998c-46.667 -66.667 -109.834 -121 -189.501 -163s-160.5 -63 -242.5 -63c-180.667 0 -329.334 82 -446.001 246c-104 147.333 -156 315.333 -156 504s52 356.667 156 504
c116.667 164 265.334 246 446.001 246c82 0 162.833 -21 242.5 -63s142.834 -96.333 189.501 -163c11.333 -16.667 17 -32.334 17 -47.001c0 -20 -7.83301 -37.667 -23.5 -53s-33.834 -23 -54.501 -23c-12.667 0 -27.834 6.16699 -45.501 18.5s-28.167 24.166 -31.5 35.499
c0 1.33301 -7 9 -21 23c-81.333 81.333 -172.333 122 -273 122c-92.667 0 -177.667 -35.667 -255 -107c-68.667 -62.667 -120 -141.667 -154 -237c-28.667 -80 -43 -165.333 -43 -256s14.333 -176 43 -256c34 -95.333 85 -174.333 153 -237
c77.333 -71.333 162.666 -107 255.999 -107c100 0 191 40.667 273 122c6 4.66699 13 12 21 22c0.666992 10 10.667 21.667 30 35s35 20 47 20c20.667 0 38.834 -7.66699 54.501 -23s23.5 -33 23.5 -53z" />
    <glyph glyph-name="ccaron" unicode="&#x10d;" 
d="M978 1423c0 -23.333 -11.334 -43.333 -34.001 -60c-143.333 -106.667 -232.333 -160 -267 -160c-34 0 -122.667 53.333 -266 160c-23.333 16.667 -35 36.667 -35 60c0 20 7.5 38 22.5 54s32.5 24 52.5 24c14.667 0 29 -4.66699 43 -14l183 -122l184 122
c14 9.33301 28 14 42 14c20.667 0 38.334 -8 53.001 -24s22 -34 22 -54zM1126 845c0 -20.667 -7.66895 -38.8291 -23.002 -54.4961s-33 -23.5 -53 -23.5c-14 0 -30.333 6.33301 -49 19c-107.333 76 -215.333 114 -324 114c-114.667 0 -216.667 -33.333 -306 -100
c-97.333 -72.667 -146 -164.334 -146 -275.001s49 -202.334 147 -275.001c88.667 -66.667 190.334 -100 305.001 -100c108 0 216 37.667 324 113c18 12.667 34 19 48 19c20.667 0 38.667 -7.83301 54 -23.5s23 -33.5 23 -53.5c0 -19.333 -9.33301 -38 -28 -56
c-46.667 -46.667 -112 -83.667 -196 -111c-76.667 -25.333 -151.667 -38 -225 -38c-156.667 0 -294 47.667 -412 143c-126.667 101.333 -190 228.666 -190 381.999s63.333 280.666 190 381.999c118 95.333 255.333 143 412 143c73.333 0 148.333 -12.667 225 -38
c84.667 -28 150.334 -65.333 197.001 -112c18 -18 27 -36.333 27 -55z" />
    <glyph glyph-name="Dcaron" unicode="&#x10e;" 
d="M776 1873c0 -24.667 -11.333 -44.667 -34 -60l-219 -146c-18 -12 -34 -18 -48 -18s-30 6 -48 18l-219 146c-22.667 15.333 -34 35.333 -34 60c0 20 7.5 38 22.5 54s32.5 24 52.5 24c14.667 0 29 -4.66699 43 -14l183 -122l183 122c14 9.33301 28.333 14 43 14
c20 0 37.5 -8 52.5 -24s22.5 -34 22.5 -54zM1125 750c0 -206.667 -73.333 -383.332 -220 -529.999s-323.334 -220 -530.001 -220h-125c-20 0 -37.5 7.5 -52.5 22.5s-22.5 32.5 -22.5 52.5v1350c0 20 7.5 37.5 22.5 52.5s32.5 22.5 52.5 22.5h125
c206.667 0 383.334 -73.333 530.001 -220s220 -323.334 220 -530.001zM975 750.002c0 165.333 -58.667 306.668 -176 424.001s-258.666 176 -423.999 176h-50v-1200h50c165.333 0 306.666 58.667 423.999 176s176 258.666 176 423.999z" />
    <glyph glyph-name="dcaron" unicode="&#x10f;" 
d="M851 1873c0 -24.667 -11.333 -44.667 -34 -60l-219 -146c-18 -12 -34 -18 -48 -18s-30 6 -48 18l-219 146c-22.667 15.333 -34 35.333 -34 60c0 20 7.5 38 22.5 54s32.5 24 52.5 24c14.667 0 29 -4.66699 43 -14l183 -122l183 122c14 9.33301 28.333 14 43 14
c20 0 37.5 -8 52.5 -24s22.5 -34 22.5 -54zM1025 75c0 -50 -25 -75 -75 -75c-36.667 0 -59.667 16 -69 48c-4 14 -6 45.333 -6 94c-90.667 -94.667 -199 -142 -325 -142c-136.667 0 -251 54 -343 162c-88 103.333 -132 224.333 -132 363s44 259.667 132 363
c92 108 206.333 162 343 162c126 0 234.333 -47.333 325 -142v517c0 50 25 75 75 75s75 -25 75 -75v-1350zM875 525c0 97.333 -29.333 182.666 -88 255.999c-63.333 79.333 -142.333 119 -237 119s-173.667 -39.667 -237 -119c-58.667 -73.333 -88 -158.666 -88 -255.999
s29.333 -182.666 88 -255.999c63.333 -79.333 142.333 -119 237 -119s173.667 39.667 237 119c58.667 73.333 88 158.666 88 255.999z" />
    <glyph glyph-name="Dslash" unicode="&#x110;" 
d="M1125 750c0 -206.667 -73.333 -383.332 -220 -529.999s-323.334 -220 -530.001 -220c-20 0 -37.5 7.5 -52.5 22.5s-22.5 32.5 -22.5 52.5v600h-150c-50 0 -75 25 -75 75s25 75 75 75h150v600c0 20 7.5 37.5 22.5 52.5s32.5 22.5 52.5 22.5
c206.667 0 383.334 -73.333 530.001 -220s220 -323.334 220 -530.001zM975 750.002c0 150.667 -50 282.83 -150 396.497s-225 179.834 -375 198.501v-520h150c50 0 75 -25 75 -75s-25 -75 -75 -75h-150v-520c150 18.667 275 84.834 375 198.501s150 245.834 150 396.501z
" />
    <glyph glyph-name="dcroat" unicode="&#x111;" 
d="M1125 1200c0 -50.667 -33.333 -75.667 -100 -75v-1050c0 -50 -25 -75 -75 -75c-36.667 0 -59.667 16 -69 48c-4 14 -6 45.333 -6 94c-90.667 -94.667 -199 -142 -325 -142c-136.667 0 -251 54 -343 162c-88 103.333 -132 224.333 -132 363s44 259.667 132 363
c92 108 206.333 162 343 162c126 0 234.333 -47.333 325 -142v217h-325c-50 0 -75 25 -75 75s25 75 75 75h325v150c0 50 25 75 75 75s75 -25 75 -75v-150c66.667 0.666992 100 -24.333 100 -75zM875 525c0 97.333 -29.333 182.666 -88 255.999
c-63.333 79.333 -142.333 119 -237 119s-173.667 -39.667 -237 -119c-58.667 -73.333 -88 -158.666 -88 -255.999s29.333 -182.666 88 -255.999c63.333 -79.333 142.333 -119 237 -119s173.667 39.667 237 119c58.667 73.333 88 158.666 88 255.999z" />
    <glyph glyph-name="Emacron" unicode="&#x112;" 
d="M1125 1800c0 -50 -25 -75 -75 -75h-800c-50 0 -75 25 -75 75s25 75 75 75h800c50 0 75 -25 75 -75zM1125 75c0 -50 -25 -75 -75 -75h-800c-20 0 -37.5 7.5 -52.5 22.5s-22.5 32.5 -22.5 52.5v1350c0 20 7.5 37.5 22.5 52.5s32.5 22.5 52.5 22.5h800c50 0 75 -25 75 -75
s-25 -75 -75 -75h-725v-525h725c50 0 75 -25 75 -75s-25 -75 -75 -75h-725v-525h725c50 0 75 -25 75 -75z" />
    <glyph glyph-name="emacron" unicode="&#x113;" 
d="M1125 1350c0 -50 -25 -75 -75 -75h-900c-50 0 -75 25 -75 75s25 75 75 75h900c50 0 75 -25 75 -75zM1126 301c0 -12.667 -4 -26.332 -12 -40.999c-46 -80 -115 -143.667 -207 -191c-87.333 -46 -179 -69 -275 -69c-150 0 -279.333 49.667 -388 149
c-112.667 102 -169 227.333 -169 376s56.333 274 169 376c108.667 99.333 238 149 388 149c54.667 0 111.667 -9.66699 171 -29c66.667 -22 133 -57 199 -105c82 -60 123 -117 123 -171c0 -26.667 -13 -47 -39 -61l-758 -408c82 -84 183.333 -126 304 -126
c128.667 0 232.667 44.667 312 134l42.5 55c19 24.667 39.5 37 61.5 37c20 0 38 -7.33301 54 -22s24 -32.334 24 -53.001zM937 774.002c-81.333 84 -183 126.001 -305 126.001c-108 0 -202 -35 -282 -105c-83.333 -73.333 -125 -163.333 -125 -270
c0 -42.667 7.33301 -83.334 22 -122.001z" />
    <glyph glyph-name="Ebreve" unicode="&#x114;" 
d="M953 1875c0 -18 -14.334 -42.668 -43.001 -74.001c-92 -100.667 -178.667 -151 -260 -151c-47.333 0 -100 19.667 -158 59c-51.333 35.333 -93.333 75 -126 119c-11.333 16.667 -17 32.334 -17 47.001c0 20.667 7.83301 38.5 23.5 53.5s33.834 22.5 54.501 22.5
c19.333 0 53.333 -25.167 102 -75.5s89 -75.5 121 -75.5s72.333 25.167 121 75.5s82.667 75.5 102 75.5c20.667 0 39.167 -7.5 55.5 -22.5s24.5 -32.833 24.5 -53.5zM1125 74.999c0 -50 -25 -75 -75 -75h-800c-20 0 -37.5 7.5 -52.5 22.5s-22.5 32.5 -22.5 52.5v1350
c0 20 7.5 37.5 22.5 52.5s32.5 22.5 52.5 22.5h800c50 0 75 -25 75 -75s-25 -75 -75 -75h-725v-525h725c50 0 75 -25 75 -75s-25 -75 -75 -75h-725v-525h725c50 0 75 -25 75 -75z" />
    <glyph glyph-name="ebreve" unicode="&#x115;" 
d="M935 1425c0 -18.667 -14.3359 -43.334 -43.0029 -74.001c-91.333 -99.333 -179.666 -149 -264.999 -149c-102 0 -195 58.667 -279 176c-11.333 16.667 -17 32.334 -17 47.001c0 20.667 7.83301 38.5 23.5 53.5s33.834 22.5 54.501 22.5s53.167 -24.833 97.5 -74.5
s86.166 -74.5 125.499 -74.5c38.667 0 80.334 24.833 125.001 74.5s77.334 74.5 98.001 74.5s39.167 -7.5 55.5 -22.5s24.5 -32.833 24.5 -53.5zM1126 301c0 -12.667 -4 -26.332 -12 -40.999c-46 -80 -115 -143.667 -207 -191c-87.333 -46 -179 -69 -275 -69
c-150 0 -279.333 49.667 -388 149c-112.667 102 -169 227.333 -169 376s56.333 274 169 376c108.667 99.333 238 149 388 149c54.667 0 111.667 -9.66699 171 -29c66.667 -22 133 -57 199 -105c82 -60 123 -117 123 -171c0 -26.667 -13 -47 -39 -61l-758 -408
c82 -84 183.333 -126 304 -126c128.667 0 232.667 44.667 312 134l42.5 55c19 24.667 39.5 37 61.5 37c20 0 38 -7.33301 54 -22s24 -32.334 24 -53.001zM936.997 774.002c-81.333 84 -183 126.001 -305 126.001c-108 0 -202 -35 -282 -105
c-83.333 -73.333 -125 -163.333 -125 -270c0 -42.667 7.33301 -83.334 22 -122.001z" />
    <glyph glyph-name="Edot" unicode="&#x116;" 
d="M763 1763c0 -31.333 -11 -58 -33 -80s-48.667 -33 -80 -33s-57.833 11 -79.5 33s-32.5 48.667 -32.5 80s10.833 57.833 32.5 79.5s48.167 32.5 79.5 32.5s58 -10.833 80 -32.5s33 -48.167 33 -79.5zM1125 75c0 -50 -25 -75 -75 -75h-800c-20 0 -37.5 7.5 -52.5 22.5
s-22.5 32.5 -22.5 52.5v1350c0 20 7.5 37.5 22.5 52.5s32.5 22.5 52.5 22.5h800c50 0 75 -25 75 -75s-25 -75 -75 -75h-725v-525h725c50 0 75 -25 75 -75s-25 -75 -75 -75h-725v-525h725c50 0 75 -25 75 -75z" />
    <glyph glyph-name="edot" unicode="&#x117;" 
d="M746 1386c0 -31.333 -11.1689 -57.666 -33.502 -78.999s-49.166 -32 -80.499 -32s-58.166 10.667 -80.499 32s-33.5 47.666 -33.5 78.999s11.333 58.166 34 80.499s49.334 33.5 80.001 33.5c31.333 0 58.166 -11.167 80.499 -33.5s33.5 -49.166 33.5 -80.499zM1126 301
c0 -12.667 -4 -26.332 -12 -40.999c-46 -80 -115 -143.667 -207 -191c-87.333 -46 -179 -69 -275 -69c-150 0 -279.333 49.667 -388 149c-112.667 102 -169 227.333 -169 376s56.333 274 169 376c108.667 99.333 238 149 388 149c54.667 0 111.667 -9.66699 171 -29
c66.667 -22 133 -57 199 -105c82 -60 123 -117 123 -171c0 -26.667 -13 -47 -39 -61l-758 -408c82 -84 183.333 -126 304 -126c128.667 0 232.667 44.667 312 134l42.5 55c19 24.667 39.5 37 61.5 37c20 0 38 -7.33301 54 -22s24 -32.334 24 -53.001zM936.998 774.002
c-81.333 84 -183 126.001 -305 126.001c-108 0 -202 -35 -282 -105c-83.333 -73.333 -125 -163.333 -125 -270c0 -42.667 7.33301 -83.334 22 -122.001z" />
    <glyph glyph-name="Eogonek" unicode="&#x118;" 
d="M1128 75c0 -50 -25.999 -75.0029 -77.999 -75.0029c-41.333 0 -76.666 -14.667 -105.999 -44s-44 -64.666 -44 -105.999s14.667 -76.666 44 -105.999s64.666 -44 105.999 -44c50 0 75 -25 75 -75s-25 -75 -75 -75c-82.667 0 -153.334 29.333 -212.001 88
s-88 129.334 -88 212.001c0 54 13.333 104 40 150h-540c-20 0 -37.5 7.5 -52.5 22.5s-22.5 32.5 -22.5 52.5v1350c0 20 7.5 37.5 22.5 52.5s32.5 22.5 52.5 22.5h800c50 0 75 -25 75 -75s-25 -75 -75 -75h-725v-525h725c50 0 75 -25 75 -75s-25 -75 -75 -75h-725v-525h725
c52 0 78 -25 78 -75z" />
    <glyph glyph-name="eogonek" unicode="&#x119;" 
d="M1126 301c0 -12 -4.00098 -25.668 -12.001 -41.001c-45.333 -80 -114.333 -144 -207 -192c-88.667 -45.333 -181 -68 -277 -68c-41.333 0 -76.666 -14.667 -105.999 -44s-44 -64.666 -44 -105.999s14.667 -76.666 44 -105.999s64.666 -44 105.999 -44
c45.333 0 83.833 19 115.5 57s57.5 57 77.5 57s38 -7.33301 54 -22s24 -32 24 -52c0 -12.667 -3.66699 -25.667 -11 -39c-54 -100.667 -140.667 -151 -260 -151c-82.667 0 -153.334 29.333 -212.001 88s-88 129.334 -88 212.001c0 74.667 24.333 140 73 196
c-98 42 -176.667 105.667 -236 191c-61.333 87.333 -92 183.333 -92 288c0 148.667 56.333 274 169 376c108.667 99.333 238 149 388 149c58.667 0 120.167 -11.333 184.5 -34s127.833 -57.334 190.5 -104.001c78.667 -59.333 118 -115 118 -167c0 -26.667 -13 -47 -39 -61
l-758 -408c82 -84 183.333 -126 304 -126c128 0 232.333 44.667 313 134c8.66699 12.667 22.334 31.167 41.001 55.5s39.334 36.5 62.001 36.5c20 0 38 -7.33301 54 -22s24 -32.334 24 -53.001zM936.999 773.999c-81.333 84 -183 126.001 -305 126.001
c-108 0 -202 -35 -282 -105c-83.333 -73.333 -125 -163.333 -125 -270c0 -42.667 7.33301 -83.334 22 -122.001z" />
    <glyph glyph-name="Ecaron" unicode="&#x11a;" 
d="M951 1873c0 -24.667 -11.333 -44.667 -34 -60l-219 -146c-18 -12 -34 -18 -48 -18s-30 6 -48 18l-219 146c-22.667 15.333 -34 35.333 -34 60c0 20 7.5 38 22.5 54s32.5 24 52.5 24c14.667 0 29 -4.66699 43 -14l183 -122l183 122c14 9.33301 28.333 14 43 14
c20 0 37.5 -8 52.5 -24s22.5 -34 22.5 -54zM1125 75c0 -50 -25 -75 -75 -75h-800c-20 0 -37.5 7.5 -52.5 22.5s-22.5 32.5 -22.5 52.5v1350c0 20 7.5 37.5 22.5 52.5s32.5 22.5 52.5 22.5h800c50 0 75 -25 75 -75s-25 -75 -75 -75h-725v-525h725c50 0 75 -25 75 -75
s-25 -75 -75 -75h-725v-525h725c50 0 75 -25 75 -75z" />
    <glyph glyph-name="ecaron" unicode="&#x11b;" 
d="M933 1423c0 -23.333 -11.334 -43.333 -34.001 -60c-143.333 -106.667 -232.333 -160 -267 -160c-34 0 -122.667 53.333 -266 160c-23.333 16.667 -35 36.667 -35 60c0 20 7.5 38 22.5 54s32.5 24 52.5 24c14.667 0 29 -4.66699 43 -14l183 -122l184 122
c14 9.33301 28 14 42 14c20.667 0 38.334 -8 53.001 -24s22 -34 22 -54zM1126 301c0 -12.667 -4 -26.332 -12 -40.999c-46 -80 -115 -143.667 -207 -191c-87.333 -46 -179 -69 -275 -69c-150 0 -279.333 49.667 -388 149c-112.667 102 -169 227.333 -169 376
s56.333 274 169 376c108.667 99.333 238 149 388 149c54.667 0 111.667 -9.66699 171 -29c66.667 -22 133 -57 199 -105c82 -60 123 -117 123 -171c0 -26.667 -13 -47 -39 -61l-758 -408c82 -84 183.333 -126 304 -126c128.667 0 232.667 44.667 312 134l42.5 55
c19 24.667 39.5 37 61.5 37c20 0 38 -7.33301 54 -22s24 -32.334 24 -53.001zM936.999 774.002c-81.333 84 -183 126.001 -305 126.001c-108 0 -202 -35 -282 -105c-83.333 -73.333 -125 -163.333 -125 -270c0 -42.667 7.33301 -83.334 22 -122.001z" />
    <glyph glyph-name="Gcircumflex" unicode="&#x11c;" 
d="M949 1727c0 -20 -7.33203 -38 -21.999 -54s-32.334 -24 -53.001 -24c-14.667 0 -29 4.66699 -43 14l-183 122l-183 -122c-14 -9.33301 -28.333 -14 -43 -14c-20 0 -37.5 8 -52.5 24s-22.5 34 -22.5 54c0 24.667 11.333 44.667 34 60l219 146c18 12 34 18 48 18
s30 -6 48 -18l219 -146c22.667 -15.333 34 -35.333 34 -60zM1076 1227c0 -20 -7.83203 -37.667 -23.499 -53s-33.834 -23 -54.501 -23c-20 0 -39.333 10.667 -58 32l-42 50c-76 78 -159.333 117 -250 117s-173 -38.333 -247 -115c-63.333 -65.333 -110 -146 -140 -242
c-24 -76 -36 -157 -36 -243s12 -167 36 -243c30 -96 76.667 -176.667 140 -242c74 -76.667 156.333 -115 247 -115c104.667 0 197 49.333 277 148v452c0 50 25 75 75 75s75 -25 75 -75v-478c0 -68.667 -55.333 -133 -166 -193c-98 -52.667 -185 -79 -261 -79
c-175.333 0 -318 84 -428 252c-96.667 146.667 -145 312.667 -145 498s48.333 351.333 145 498c110 168 252.667 252 428 252c79.333 0 157 -21.333 233 -64c74 -42 133.667 -96.667 179 -164c10.667 -15.333 16 -30.333 16 -45z" />
    <glyph glyph-name="gcircumflex" unicode="&#x11d;" 
d="M901 1277c0 -20 -7.5 -38 -22.5 -54s-32.5 -24 -52.5 -24c-14.667 0 -29 4.66699 -43 14l-183 122l-183 -122c-14 -9.33301 -28.333 -14 -43 -14c-20 0 -37.5 8 -52.5 24s-22.5 34 -22.5 54c0 24.667 11.333 44.667 34 60l219 146c18 12 34 18 48 18s30 -6 48 -18
l219 -146c22.667 -15.333 34 -35.333 34 -60zM1125 975c0 -40.667 -21.667 -65 -65 -73c-10.667 -2 -47.667 -2.66699 -111 -2c57.333 -65.333 86 -140.333 86 -225c0 -120 -53.667 -217 -161 -291c167.333 -87.333 251 -215.333 251 -384
c0 -132 -55.667 -241.667 -167 -329c-102.667 -80.667 -222 -121 -358 -121s-255.333 40.333 -358 121c-111.333 87.333 -167 197 -167 329c0 50 25 75 75 75s75 -25 75 -75c0 -90 41.333 -164 124 -222c74 -52 157.667 -78 251 -78s177 26 251 78
c82.667 58 124 132 124 222s-41.333 164 -124 222c-74 52 -157.667 78 -251 78c-112.667 0 -211.667 33.667 -297 101c-92 72.667 -138 164 -138 274s46 201.333 138 274c85.333 67.333 184.333 101 297 101h450c50 0 75 -25 75 -75zM885 675c0 67.333 -31.667 123 -95 167
c-56 38.667 -119.333 58 -190 58s-134 -19.333 -190 -58c-63.333 -44 -95 -99.667 -95 -167s31.667 -123 95 -167c56 -38.667 119.333 -58 190 -58s134 19.333 190 58c63.333 44 95 99.667 95 167z" />
    <glyph glyph-name="Gbreve" unicode="&#x11e;" 
d="M951 1875c0 -18 -14.334 -42.668 -43.001 -74.001c-92 -100.667 -178.667 -151 -260 -151c-47.333 0 -100 19.667 -158 59c-51.333 35.333 -93.333 75 -126 119c-11.333 16.667 -17 32.334 -17 47.001c0 20.667 7.83301 38.5 23.5 53.5s33.834 22.5 54.501 22.5
c19.333 0 53.333 -25.167 102 -75.5s89 -75.5 121 -75.5s72.333 25.167 121 75.5s82.667 75.5 102 75.5c20.667 0 39.167 -7.5 55.5 -22.5s24.5 -32.833 24.5 -53.5zM1076 1227c0 -20 -7.83203 -37.667 -23.499 -53s-33.834 -23 -54.501 -23c-20 0 -39.333 10.667 -58 32
l-42 50c-76 78 -159.333 117 -250 117s-173 -38.333 -247 -115c-63.333 -65.333 -110 -146 -140 -242c-24 -76 -36 -157 -36 -243s12 -167 36 -243c30 -96 76.667 -176.667 140 -242c74 -76.667 156.333 -115 247 -115c104.667 0 197 49.333 277 148v452c0 50 25 75 75 75
s75 -25 75 -75v-478c0 -68.667 -55.333 -133 -166 -193c-98 -52.667 -185 -79 -261 -79c-175.333 0 -318 84 -428 252c-96.667 146.667 -145 312.667 -145 498s48.333 351.333 145 498c110 168 252.667 252 428 252c79.333 0 157 -21.333 233 -64
c74 -42 133.667 -96.667 179 -164c10.667 -15.333 16 -30.333 16 -45z" />
    <glyph glyph-name="gbreve" unicode="&#x11f;" 
d="M903 1425c0 -18 -14.334 -42.668 -43.001 -74.001c-92 -100.667 -178.667 -151 -260 -151c-47.333 0 -100 19.667 -158 59c-51.333 35.333 -93.333 75 -126 119c-11.333 16.667 -17 32.334 -17 47.001c0 20.667 7.83301 38.5 23.5 53.5s33.834 22.5 54.501 22.5
c19.333 0 53.333 -25.167 102 -75.5s89 -75.5 121 -75.5s72.333 25.167 121 75.5s82.667 75.5 102 75.5c20.667 0 39.167 -7.5 55.5 -22.5s24.5 -32.833 24.5 -53.5zM1125 974.999c0 -40.667 -21.667 -65 -65 -73c-10.667 -2 -47.667 -2.66699 -111 -2
c57.333 -65.333 86 -140.333 86 -225c0 -120 -53.667 -217 -161 -291c167.333 -87.333 251 -215.333 251 -384c0 -132 -55.667 -241.667 -167 -329c-102.667 -80.667 -222 -121 -358 -121s-255.333 40.333 -358 121c-111.333 87.333 -167 197 -167 329c0 50 25 75 75 75
s75 -25 75 -75c0 -90 41.333 -164 124 -222c74 -52 157.667 -78 251 -78s177 26 251 78c82.667 58 124 132 124 222s-41.333 164 -124 222c-74 52 -157.667 78 -251 78c-112.667 0 -211.667 33.667 -297 101c-92 72.667 -138 164 -138 274s46 201.333 138 274
c85.333 67.333 184.333 101 297 101h450c50 0 75 -25 75 -75zM884.999 674.999c0 67.333 -31.667 123 -95 167c-56 38.667 -119.333 58 -190 58s-134 -19.333 -190 -58c-63.333 -44 -95 -99.667 -95 -167s31.667 -123 95 -167c56 -38.667 119.333 -58 190 -58
s134 19.333 190 58c63.333 44 95 99.667 95 167z" />
    <glyph glyph-name="Gdot" unicode="&#x120;" 
d="M775 1763c0 -31.333 -11 -58 -33 -80s-48.667 -33 -80 -33s-57.833 11 -79.5 33s-32.5 48.667 -32.5 80s10.833 57.833 32.5 79.5s48.167 32.5 79.5 32.5s58 -10.833 80 -32.5s33 -48.167 33 -79.5zM1076 1227c0 -20 -7.83203 -37.667 -23.499 -53
s-33.834 -23 -54.501 -23c-20 0 -39.333 10.667 -58 32l-42 50c-76 78 -159.333 117 -250 117s-173 -38.333 -247 -115c-63.333 -65.333 -110 -146 -140 -242c-24 -76 -36 -157 -36 -243s12 -167 36 -243c30 -96 76.667 -176.667 140 -242c74 -76.667 156.333 -115 247 -115
c104.667 0 197 49.333 277 148v452c0 50 25 75 75 75s75 -25 75 -75v-478c0 -68.667 -55.333 -133 -166 -193c-98 -52.667 -185 -79 -261 -79c-175.333 0 -318 84 -428 252c-96.667 146.667 -145 312.667 -145 498s48.333 351.333 145 498c110 168 252.667 252 428 252
c79.333 0 157 -21.333 233 -64c74 -42 133.667 -96.667 179 -164c10.667 -15.333 16 -30.333 16 -45z" />
    <glyph glyph-name="gdot" unicode="&#x121;" 
d="M714 1386c0 -31.333 -11.167 -57.666 -33.5 -78.999s-49.166 -32 -80.499 -32s-58.166 10.667 -80.499 32s-33.5 47.666 -33.5 78.999s11.167 58.166 33.5 80.499s49.166 33.5 80.499 33.5s58.166 -11.167 80.499 -33.5s33.5 -49.166 33.5 -80.499zM1125 975
c0 -40.667 -21.667 -65 -65 -73c-10.667 -2 -47.667 -2.66699 -111 -2c57.333 -65.333 86 -140.333 86 -225c0 -120 -53.667 -217 -161 -291c167.333 -87.333 251 -215.333 251 -384c0 -132 -55.667 -241.667 -167 -329c-102.667 -80.667 -222 -121 -358 -121
s-255.333 40.333 -358 121c-111.333 87.333 -167 197 -167 329c0 50 25 75 75 75s75 -25 75 -75c0 -90 41.333 -164 124 -222c74 -52 157.667 -78 251 -78s177 26 251 78c82.667 58 124 132 124 222s-41.333 164 -124 222c-74 52 -157.667 78 -251 78
c-112.667 0 -211.667 33.667 -297 101c-92 72.667 -138 164 -138 274s46 201.333 138 274c85.333 67.333 184.333 101 297 101h450c50 0 75 -25 75 -75zM885 675c0 67.333 -31.667 123 -95 167c-56 38.667 -119.333 58 -190 58s-134 -19.333 -190 -58
c-63.333 -44 -95 -99.667 -95 -167s31.667 -123 95 -167c56 -38.667 119.333 -58 190 -58s134 19.333 190 58c63.333 44 95 99.667 95 167z" />
    <glyph glyph-name="Gcedilla" unicode="&#x122;" 
d="M1076 1227c0 -20 -7.83203 -37.6631 -23.499 -52.9961s-33.834 -23 -54.501 -23c-20 0 -39.333 10.667 -58 32l-48 55c-71.333 74.667 -152.666 112 -243.999 112c-89.333 0 -170.666 -37.333 -243.999 -112c-63.333 -64 -110.333 -143.333 -141 -238
c-25.333 -78 -38 -161.333 -38 -250s12.667 -172 38 -250c30.667 -94.667 77.667 -174 141 -238c73.333 -74.667 154.666 -112 243.999 -112c104.667 0 197 49.333 277 148v452c0 50 25 75 75 75s75 -25 75 -75v-478c0 -80 -70.333 -151.333 -211 -214
c56 -58 84 -127.333 84 -208c0 -82.667 -29.333 -153.334 -88 -212.001s-129.334 -88 -212.001 -88c-118 0 -204.667 50.333 -260 151c-7.33301 13.333 -11 26.333 -11 39c0 20 8 37.333 24 52s34 22 54 22c19.333 0 45.333 -19 78 -57s71 -57 115 -57
c41.333 0 76.666 14.667 105.999 44s44 64.666 44 105.999s-14.667 76.666 -44 105.999s-64.666 44 -105.999 44c-175.333 0 -318 84 -428 252c-96.667 146.667 -145 312.667 -145 498s48.333 351.333 145 498c110 168 252.667 252 428 252c78.667 0 156 -21.333 232 -64
s136 -97.334 180 -164.001c10.667 -16 16 -31 16 -45z" />
    <glyph glyph-name="gcedilla" unicode="&#x123;" 
d="M871 1485c0 -20 -8.00098 -37.3369 -24.001 -52.0039s-34 -22 -54 -22s-46 19 -78 57s-70.333 57 -115 57c-41.333 0 -76.666 -14.667 -105.999 -44s-44 -64.666 -44 -105.999s14.667 -76.666 44 -105.999s64.666 -44 105.999 -44c50 0 75 -25 75 -75s-25 -75 -75 -75
c-82.667 0 -153.334 29.333 -212.001 88s-88 129.334 -88 212.001s29.333 153.334 88 212.001s129.334 88 212.001 88c52.667 0 103.334 -13.833 152.001 -41.5s84.667 -64.167 108 -109.5c7.33301 -14 11 -27 11 -39zM1125 974.996c0 -40.667 -21.667 -65 -65 -73
c-10.667 -2 -47.667 -2.66699 -111 -2c57.333 -65.333 86 -140.333 86 -225c0 -120 -53.667 -217 -161 -291c167.333 -87.333 251 -215.333 251 -384c0 -132 -55.667 -241.667 -167 -329c-102.667 -80.667 -222 -121 -358 -121s-255.333 40.333 -358 121
c-111.333 87.333 -167 197 -167 329c0 50 25 75 75 75s75 -25 75 -75c0 -90 41.333 -164 124 -222c74 -52 157.667 -78 251 -78s177 26 251 78c82.667 58 124 132 124 222s-41.333 164 -124 222c-74 52 -157.667 78 -251 78c-112.667 0 -211.667 33.667 -297 101
c-92 72.667 -138 164 -138 274s46 201.333 138 274c85.333 67.333 184.333 101 297 101h450c50 0 75 -25 75 -75zM884.999 674.996c0 67.333 -31.667 123 -95 167c-56 38.667 -119.333 58 -190 58s-134 -19.333 -190 -58c-63.333 -44 -95 -99.667 -95 -167
s31.667 -123 95 -167c56 -38.667 119.333 -58 190 -58s134 19.333 190 58c63.333 44 95 99.667 95 167z" />
    <glyph glyph-name="Hcircumflex" unicode="&#x124;" 
d="M901 1727c0 -20 -7.5 -38 -22.5 -54s-32.5 -24 -52.5 -24c-14.667 0 -29 4.66699 -43 14l-183 122l-183 -122c-14 -9.33301 -28.333 -14 -43 -14c-20 0 -37.5 8 -52.5 24s-22.5 34 -22.5 54c0 24.667 11.333 44.667 34 60l219 146c18 12 34 18 48 18s30 -6 48 -18
l219 -146c22.667 -15.333 34 -35.333 34 -60zM1025 75c0 -50 -25 -75 -75 -75s-75 25 -75 75v600h-550v-600c0 -50 -25 -75 -75 -75s-75 25 -75 75v1350c0 50 25 75 75 75s75 -25 75 -75v-600h550v600c0 50 25 75 75 75s75 -25 75 -75v-1350z" />
    <glyph glyph-name="hcircumflex" unicode="&#x125;" 
d="M926 1727c0 -20 -7.5 -38 -22.5 -54s-32.5 -24 -52.5 -24c-14.667 0 -29 4.66699 -43 14l-183 122l-183 -122c-14 -9.33301 -28.333 -14 -43 -14c-20 0 -37.5 8 -52.5 24s-22.5 34 -22.5 54c0 24.667 11.333 44.667 34 60l219 146c18 12 34 18 48 18s30 -6 48 -18
l219 -146c22.667 -15.333 34 -35.333 34 -60zM1075 75c0 -50 -24.998 -75 -74.998 -75s-75 25 -75 75v525c0 82.667 -29.333 153.334 -88 212.001s-129.334 88 -212.001 88s-153.334 -29.333 -212.001 -88s-88 -129.334 -88 -212.001v-525c0 -50 -25 -75 -75 -75
s-75 25 -75 75v1350c0 50 25 75 75 75s75 -25 75 -75v-490c85.333 76.667 185.333 115 300 115c124 0 230 -44 318 -132s132 -194 132 -318v-525z" />
    <glyph glyph-name="Hbar" unicode="&#x126;" 
d="M1125 1200c0 -50 -33.333 -75 -100 -75v-1050c0 -50 -25 -75 -75 -75s-75 25 -75 75v600h-550v-600c0 -50 -25 -75 -75 -75s-75 25 -75 75v1050c-66.667 0 -100 25 -100 75s33.333 75 100 75v150c0 50 25 75 75 75s75 -25 75 -75v-150h550v150c0 50 25 75 75 75
s75 -25 75 -75v-150c66.667 0 100 -25 100 -75zM875 825v300h-550v-300h550z" />
    <glyph glyph-name="hbar" unicode="&#x127;" 
d="M1075 75c0 -50 -24.998 -75 -74.998 -75s-75 25 -75 75v525c0 82.667 -29.333 153.334 -88 212.001s-129.334 88 -212.001 88s-153.334 -29.333 -212.001 -88s-88 -129.334 -88 -212.001v-525c0 -50 -25 -75 -75 -75s-75 25 -75 75v1050
c-66.667 -0.666992 -100 24.333 -100 75s33.333 75.667 100 75v150c0 50 25 75 75 75s75 -25 75 -75v-150h300c50 0 75 -25 75 -75s-25 -75 -75 -75h-300v-190c85.333 76.667 185.333 115 300 115c124 0 230 -44 318 -132s132 -194 132 -318v-525z" />
    <glyph glyph-name="Itilde" unicode="&#x128;" 
d="M976 1803c0 -16 -6 -34 -18 -54c-38.667 -66 -108 -99 -208 -99c-56.667 0 -115.5 25 -176.5 75s-102.167 75 -123.5 75c-34 0 -60.333 -8 -79 -24c-11.333 -34 -34.333 -51 -69 -51c-52 0 -78 24 -78 72c0 16 6 34 18 54c38.667 66 108 99 208 99
c56.667 0 115.5 -25 176.5 -75s102.167 -75 123.5 -75c40.667 0 69.5 12.5 86.5 37.5s37.5 37.5 61.5 37.5c52 0 78 -24 78 -72zM975 75c0 -50 -25 -75 -75 -75h-600c-50 0 -75 25 -75 75s25 75 75 75h225v1200h-225c-50 0 -75 25 -75 75s25 75 75 75h600
c50 0 75 -25 75 -75s-25 -75 -75 -75h-225v-1200h225c50 0 75 -25 75 -75z" />
    <glyph glyph-name="itilde" unicode="&#x129;" 
d="M976 1353c0 -16 -6 -34 -18 -54c-38.667 -66 -108 -99 -208 -99c-56.667 0 -115.5 25 -176.5 75s-102.167 75 -123.5 75c-34 0 -60.333 -8 -79 -24c-11.333 -34 -34.333 -51 -69 -51c-52 0 -78 24 -78 72c0 16 6 34 18 54c38.667 66 108 99 208 99
c56.667 0 115.5 -25 176.5 -75s102.167 -75 123.5 -75c40.667 0 69.5 12.5 86.5 37.5s37.5 37.5 61.5 37.5c52 0 78 -24 78 -72zM975 75c0 -50 -25 -75 -75 -75h-300c-50 0 -75 25 -75 75v825h-225c-50 0 -75 25 -75 75s25 75 75 75h301c49.333 0 74 -25 74 -75v-825h225
c50 0 75 -25 75 -75z" />
    <glyph glyph-name="Imacron" unicode="&#x12a;" 
d="M900 1800c0 -50 -25 -75 -75 -75h-450c-50 0 -75 25 -75 75s25 75 75 75h450c50 0 75 -25 75 -75zM975 75c0 -50 -25 -75 -75 -75h-600c-50 0 -75 25 -75 75s25 75 75 75h225v1200h-225c-50 0 -75 25 -75 75s25 75 75 75h600c50 0 75 -25 75 -75s-25 -75 -75 -75h-225
v-1200h225c50 0 75 -25 75 -75z" />
    <glyph glyph-name="imacron" unicode="&#x12b;" 
d="M850 1350c0 -50 -25 -75 -75 -75h-350c-50 0 -75 25 -75 75s25 75 75 75h350c50 0 75 -25 75 -75zM975 75c0 -50 -25 -75 -75 -75h-300c-50 0 -75 25 -75 75v825h-225c-50 0 -75 25 -75 75s25 75 75 75h300c20 0 37.5 -7.5 52.5 -22.5s22.5 -32.5 22.5 -52.5v-825h225
c50 0 75 -25 75 -75z" />
    <glyph glyph-name="Ibreve" unicode="&#x12c;" 
d="M903 1875c0 -18 -14.334 -42.668 -43.001 -74.001c-92 -100.667 -178.667 -151 -260 -151c-47.333 0 -100 19.667 -158 59c-51.333 35.333 -93.333 75 -126 119c-11.333 16.667 -17 32.334 -17 47.001c0 20.667 7.83301 38.5 23.5 53.5s33.834 22.5 54.501 22.5
c19.333 0 53.333 -25.167 102 -75.5s89 -75.5 121 -75.5s72.333 25.167 121 75.5s82.667 75.5 102 75.5c20.667 0 39.167 -7.5 55.5 -22.5s24.5 -32.833 24.5 -53.5zM974.999 74.999c0 -50 -25 -75 -75 -75h-600c-50 0 -75 25 -75 75s25 75 75 75h225v1200h-225
c-50 0 -75 25 -75 75s25 75 75 75h600c50 0 75 -25 75 -75s-25 -75 -75 -75h-225v-1200h225c50 0 75 -25 75 -75z" />
    <glyph glyph-name="ibreve" unicode="&#x12d;" 
d="M903 1425c0 -18 -14.334 -42.668 -43.001 -74.001c-92 -100.667 -178.667 -151 -260 -151c-47.333 0 -100 19.667 -158 59c-51.333 35.333 -93.333 75 -126 119c-11.333 16.667 -17 32.334 -17 47.001c0 20.667 7.83301 38.5 23.5 53.5s33.834 22.5 54.501 22.5
c19.333 0 53.333 -25.167 102 -75.5s89 -75.5 121 -75.5s72.333 25.167 121 75.5s82.667 75.5 102 75.5c20.667 0 39.167 -7.5 55.5 -22.5s24.5 -32.833 24.5 -53.5zM974.999 74.999c0 -50 -25 -75 -75 -75h-300c-50 0 -75 25 -75 75v825h-225c-50 0 -75 25 -75 75
s25 75 75 75h300c20 0 37.5 -7.5 52.5 -22.5s22.5 -32.5 22.5 -52.5v-825h225c50 0 75 -25 75 -75z" />
    <glyph glyph-name="Iogonek" unicode="&#x12e;" 
d="M975 75c0 -50 -24.999 -75.0029 -74.999 -75.0029h-285c-41.333 0 -76.666 -14.667 -105.999 -44s-44 -64.666 -44 -105.999s14.667 -76.666 44 -105.999s64.666 -44 105.999 -44c44.667 0 83 19 115 57s58 57 78 57s38 -7.33301 54 -22s24 -32 24 -52
c0 -12 -3.66699 -25 -11 -39c-24 -46 -60.167 -82.667 -108.5 -110s-98.833 -41 -151.5 -41c-82.667 0 -153.334 29.333 -212.001 88s-88 129.334 -88 212.001c0 54 13.333 104 40 150c-44 -0 -73 2.33301 -87 7c-28.667 10 -43 32.667 -43 68c0 50 25 75 75 75h240v1200
h-240c-50 0 -75 25 -75 75s25 75 75 75h600c50 0 75 -25 75 -75s-25 -75 -75 -75h-210v-1200h210c50 0 75 -25 75 -75z" />
    <glyph glyph-name="iogonek" unicode="&#x12f;" 
d="M714 1386c0 -31.333 -11.167 -57.666 -33.5 -78.999s-49.166 -32 -80.499 -32s-58.166 10.667 -80.499 32s-33.5 47.666 -33.5 78.999s11.167 58.166 33.5 80.499s49.166 33.5 80.499 33.5s58.166 -11.167 80.499 -33.5s33.5 -49.166 33.5 -80.499zM975 75
c0 -50 -24.999 -75.002 -74.999 -75.002h-300c-41.333 0 -76.666 -14.667 -105.999 -44s-44 -64.666 -44 -105.999s14.667 -76.666 44 -105.999s64.666 -44 105.999 -44c45.333 0 83.833 19 115.5 57s57.5 57 77.5 57s38 -7.33301 54 -22s24 -32 24 -52
c0 -11.333 -3.66699 -24.333 -11 -39c-22.667 -45.333 -58.667 -81.833 -108 -109.5s-100 -41.5 -152 -41.5c-82.667 0 -153.334 29.333 -212.001 88s-88 129.334 -88 212.001c0 68 21 129.167 63 183.5s96 90.166 162 107.499v759h-225c-50 0 -75 25 -75 75s25 75 75 75
h300c20 0 37.5 -7.5 52.5 -22.5s22.5 -32.5 22.5 -52.5v-825h225c50 0 75 -25 75 -75z" />
    <glyph glyph-name="Idotaccent" unicode="&#x130;" 
d="M713 1763c0 -31.333 -11.168 -58 -33.501 -80s-49.166 -33 -80.499 -33c-30.667 0 -56.834 11 -78.501 33s-32.5 48.667 -32.5 80s10.833 57.833 32.5 79.5s47.834 32.5 78.501 32.5c32 0 59 -10.833 81 -32.5s33 -48.167 33 -79.5zM974.999 75c0 -50 -25 -75 -75 -75
h-600c-50 0 -75 25 -75 75s25 75 75 75h225v1200h-225c-50 0 -75 25 -75 75s25 75 75 75h600c50 0 75 -25 75 -75s-25 -75 -75 -75h-225v-1200h225c50 0 75 -25 75 -75z" />
    <glyph glyph-name="dotlessi" unicode="&#x131;" 
d="M975 75c0 -50 -25 -75 -75 -75h-300c-50 0 -75 25 -75 75v825h-225c-50 0 -75 25 -75 75s25 75 75 75h300c20 0 37.5 -7.5 52.5 -22.5s22.5 -32.5 22.5 -52.5v-825h225c50 0 75 -25 75 -75z" />
    <glyph glyph-name="IJ" unicode="&#x132;" 
d="M1025 75c0 -144.667 -51.333 -268.332 -154 -370.999s-226.334 -154 -371.001 -154c-76 0 -151.667 17.333 -227 52c-79.333 36 -139.666 83.667 -180.999 143c-12 17.333 -18 33 -18 47c0 20.667 7.83301 38.5 23.5 53.5s33.834 22.5 54.501 22.5
c18 0 36.667 -9.33301 56 -28c94.667 -93.333 192 -140 292 -140c103.333 0 191.666 36.667 264.999 110s110 161.666 110 264.999v1275h-225c-50 0 -75 25 -75 75s25 75 75 75h301c49.333 0 74 -24.667 74 -74v-1351zM525 75.002c0 -50 -25 -75 -75 -75h-300
c-50 0 -75 25 -75 75c0 38 17.333 61.667 52 71c11.333 2.66699 44 4 98 4v1200h-23c-10 -0.666992 -17.667 -1 -23 -1c-69.333 0 -104 25.333 -104 76c0 50 25 75 75 75h300c50 0 75 -25 75 -75c0 -38 -17.333 -61.667 -52 -71c-11.333 -2.66699 -44 -4 -98 -4v-1200h23
c10 0.666992 17.667 1 23 1c69.333 0 104 -25.333 104 -76z" />
    <glyph glyph-name="ij" unicode="&#x133;" 
d="M1064 1386c0 -31.333 -11.167 -57.666 -33.5 -78.999s-49.166 -32 -80.499 -32s-58.166 10.667 -80.499 32s-33.5 47.666 -33.5 78.999s11.167 58.166 33.5 80.499s49.166 33.5 80.499 33.5s58.166 -11.167 80.499 -33.5s33.5 -49.166 33.5 -80.499zM489 1386
c0 -31.333 -11.167 -57.666 -33.5 -78.999s-49.166 -32 -80.499 -32s-58.166 10.667 -80.499 32s-33.5 47.666 -33.5 78.999s11.167 58.166 33.5 80.499s49.166 33.5 80.499 33.5s58.166 -11.167 80.499 -33.5s33.5 -49.166 33.5 -80.499zM675 75c0 -50 -25 -75 -75 -75
h-225c-50 0 -75 25 -75 75v825h-150c-50 0 -75 25 -75 75s25 75 75 75h225c20 0 37.5 -7.5 52.5 -22.5s22.5 -32.5 22.5 -52.5v-825h150c50 0 75 -25 75 -75zM1025 975l-0.000976562 -899.998c0 -144.667 -51.333 -268.334 -154 -371.001s-226.334 -154 -371.001 -154
c-76 0 -151.667 17.333 -227 52c-79.333 36 -139.666 83.667 -180.999 143c-12 17.333 -18 33 -18 47c0 20.667 7.83301 38.5 23.5 53.5s33.834 22.5 54.501 22.5c18.667 0 37.334 -9.33301 56.001 -28c10.667 -12 27 -28.667 49 -50c68.667 -60 149.667 -90 243 -90
c103.333 0 191.666 36.667 264.999 110s110 161.666 110 264.999v825h-150c-50 0 -75 25 -75 75s25 75 75 75h225c20 0 37.5 -7.5 52.5 -22.5s22.5 -32.5 22.5 -52.5z" />
    <glyph glyph-name="Jcircumflex" unicode="&#x134;" 
d="M851 1727c0 -20 -7.5 -38 -22.5 -54s-32.5 -24 -52.5 -24c-14.667 0 -29 4.66699 -43 14l-183 122l-183 -122c-14 -9.33301 -28.333 -14 -43 -14c-20 0 -37.5 8 -52.5 24s-22.5 34 -22.5 54c0 24.667 11.333 44.667 34 60l219 146c18 12 34 18 48 18s30 -6 48 -18
l219 -146c22.667 -15.333 34 -35.333 34 -60zM1025 75c0 -144.667 -51.333 -268.332 -154 -370.999s-226.334 -154 -371.001 -154c-76 0 -151.667 17.333 -227 52c-79.333 36 -139.666 83.667 -180.999 143c-12 17.333 -18 33 -18 47c0 20.667 7.83301 38.5 23.5 53.5
s33.834 22.5 54.501 22.5c18 0 36.667 -9.33301 56 -28c94.667 -93.333 192 -140 292 -140c103.333 0 191.666 36.667 264.999 110s110 161.666 110 264.999v1275h-725c-50 0 -75 25 -75 75s25 75 75 75h801c49.333 0 74 -24.667 74 -74v-1351z" />
    <glyph glyph-name="jcircumflex" unicode="&#x135;" 
d="M1026 1277c0 -20 -7.5 -38 -22.5 -54s-32.5 -24 -52.5 -24c-14.667 0 -29 4.66699 -43 14l-183 122l-183 -122c-14 -9.33301 -28.333 -14 -43 -14c-20 0 -37.5 8 -52.5 24s-22.5 34 -22.5 54c0 24.667 11.333 44.667 34 60l219 146c18 12 34 18 48 18s30 -6 48 -18
l219 -146c22.667 -15.333 34 -35.333 34 -60zM1025 75c0 -144.667 -51.333 -268.332 -154 -370.999s-226.334 -154 -371.001 -154c-76 0 -151.667 17.333 -227 52c-79.333 36 -139.666 83.667 -180.999 143c-12 17.333 -18 33 -18 47c0 20.667 7.83301 38.5 23.5 53.5
s33.834 22.5 54.501 22.5c18 0 36.667 -9.33301 56 -28c94.667 -93.333 192 -140 292 -140c103.333 0 191.666 36.667 264.999 110s110 161.666 110 264.999v825h-225c-50 0 -75 25 -75 75s25 75 75 75h301c49.333 0 74 -24.667 74 -74v-901z" />
    <glyph glyph-name="Kcedilla" unicode="&#x136;" 
d="M1126 75c0 -20 -7.66699 -37.6689 -23 -53.002s-33.333 -23 -54 -23c-20 0 -37.667 8 -53 24l-650 675c-13.333 14 -20.333 26.667 -21 38v-661c0 -50 -25 -75 -75 -75s-75 25 -75 75v1350c0 50 25 75 75 75s75 -25 75 -75v-661c2.66699 14 9.66699 26.667 21 38l650 675
c15.333 16 33 24 53 24c20.667 0 38.667 -7.66699 54 -23s23 -33 23 -53c0 -19.333 -7.33301 -36.666 -22 -51.999l-600 -623l600 -623c14.667 -15.333 22 -32.666 22 -51.999zM863 -150.002c0 -82.667 -29.499 -153.33 -88.499 -211.997s-129.5 -88 -211.5 -88
c-52.667 0 -103.334 13.833 -152.001 41.5s-85 64.167 -109 109.5c-7.33301 14 -11 27 -11 39c0 20 8 37.333 24 52s34.333 22 55 22c19.333 0 45 -19 77 -57s70.667 -57 116 -57c41.333 0 76.666 14.667 105.999 44s44 64.666 44 105.999s-14.667 76.666 -44 105.999
s-64.666 44 -105.999 44c-50 0 -75 25 -75 75s25 75 75 75c82 0 152.5 -29.333 211.5 -88s88.5 -129.334 88.5 -212.001zM333.001 716.002c-4 6.66699 -6.66699 13.667 -8 21v-1c0 -4 2.66699 -10.667 8 -20zM342.001 703.002c-3.33301 3.33301 -6.33301 7.66699 -9 13
c2.66699 -4.66699 5.66699 -9 9 -13zM342.001 702.003c-5.33301 6 -9.33301 12.333 -12 19c4.66699 -8 8.66699 -14.333 12 -19z" />
    <glyph glyph-name="kcedilla" unicode="&#x137;" 
d="M1126 77c0 -20 -7.5 -38 -22.5 -54s-32.5 -24 -52.5 -24c-15.333 0 -30 4.66699 -44 14l-640 444c-24.667 16.667 -38.667 34.667 -42 54v-436c0 -50 -25 -75 -75 -75s-75 25 -75 75v1350c0 50 25 75 75 75s75 -25 75 -75v-886c3.33301 19.333 17.333 37.333 42 54
l640 444c14 9.33301 28.667 14 44 14c20 0 37.5 -8 52.5 -24s22.5 -34 22.5 -54c0 -24.667 -11 -44.667 -33 -60l-561 -388l561 -388c22 -15.333 33 -35.333 33 -60zM885 -150c0 -82.667 -29.333 -153.33 -88 -211.997s-129.334 -88 -212.001 -88c-52 0 -102 13.667 -150 41
c-50 28 -86.667 64.667 -110 110c-7.33301 14 -11 27 -11 39c0 20 8 37.333 24 52s34 22 54 22s46 -19 78 -57s70.333 -57 115 -57c41.333 0 76.666 14.667 105.999 44s44 64.666 44 105.999s-14.667 76.666 -44 105.999s-64.666 44 -105.999 44c-50 0 -75 25 -75 75
s25 75 75 75c82.667 0 153.334 -29.333 212.001 -88s88 -129.334 88 -212.001z" />
    <glyph glyph-name="kgreenlandic" unicode="&#x138;" 
d="M1126 77c0 -20 -7.5 -38 -22.5 -54s-32.5 -24 -52.5 -24c-15.333 0 -30 4.66699 -44 14l-640 444c-24.667 16.667 -38.667 34.667 -42 54v-436c0 -50 -25 -75 -75 -75s-75 25 -75 75v900c0 50 25 75 75 75s75 -25 75 -75v-436c3.33301 19.333 17.333 37.333 42 54
l640 444c14 9.33301 28.667 14 44 14c20 0 37.5 -8 52.5 -24s22.5 -34 22.5 -54c0 -24.667 -11 -44.667 -33 -60l-561 -388l561 -388c22 -15.333 33 -35.333 33 -60z" />
    <glyph glyph-name="Lacute" unicode="&#x139;" 
d="M826 1873c0 -29.333 -14 -51 -42 -65l-300 -150c-12 -6 -24 -9 -36 -9c-20.667 0 -38.167 8 -52.5 24s-21.5 34 -21.5 54c0 29.333 14 51 42 65l300 150c12 6 24 9 36 9c20.667 0 38.167 -8 52.5 -24s21.5 -34 21.5 -54zM1125 75c0 -50 -25 -75 -75 -75h-800
c-50 0 -75 24.667 -75 74v1351c0 50 25 75 75 75s75 -25 75 -75v-1275h725c50 0 75 -25 75 -75z" />
    <glyph glyph-name="lacute" unicode="&#x13a;" 
d="M752 1873c0 -29.333 -14.333 -51 -43 -65l-300 -150c-12 -6 -23.667 -9 -35 -9c-20.667 0 -38.167 8 -52.5 24s-21.5 34 -21.5 54c0 29.333 14 51 42 65l300 150c12 6 24 9 36 9c20 0 37.333 -8 52 -24s22 -34 22 -54zM1126 226c0 -14 -5.33496 -29.332 -16.002 -45.999
c-35.333 -54 -88 -98 -158 -132c-66.667 -32 -134 -48 -202 -48c-124 0 -230 44 -318 132s-132 194 -132 318v975c0 50 25 75 75 75s75 -25 75 -75v-975c0 -82.667 29.333 -153.334 88 -212.001s129.334 -88 212.001 -88c72.667 0 137.5 25.167 194.5 75.5
s91.5 75.5 103.5 75.5c20.667 0 38.834 -7.5 54.501 -22.5s23.5 -32.5 23.5 -52.5z" />
    <glyph glyph-name="Lcedilla" unicode="&#x13b;" 
d="M1125 75c0 -50 -24.999 -74.9971 -74.999 -74.9971h-140c26.667 -46 40 -96 40 -150c0 -82.667 -29.333 -153.334 -88 -212.001s-129.334 -88 -212.001 -88c-52 0 -102.5 13.833 -151.5 41.5s-85.167 64.167 -108.5 109.5c-7.33301 14 -11 27 -11 39c0 20 8 37.333 24 52
s34 22 54 22s46 -19 78 -57s70.333 -57 115 -57c41.333 0 76.666 14.667 105.999 44s44 64.666 44 105.999s-14.667 76.666 -44 105.999s-64.666 44 -105.999 44h-400c-50 0 -75 24.667 -75 74v1351c0 50 25 75 75 75s75 -25 75 -75v-1275h725c50 0 75 -25 75 -75z" />
    <glyph glyph-name="lcedilla" unicode="&#x13c;" 
d="M1126 226c0 -28 -19.999 -60.9961 -59.999 -98.9961c-31.333 -29.333 -64 -53 -98 -71c54.667 -58 82 -126.667 82 -206c0 -82.667 -29.333 -153.334 -88 -212.001s-129.334 -88 -212.001 -88c-52.667 0 -103.334 13.667 -152.001 41s-84.667 64 -108 110
c-7.33301 14 -11 27 -11 39c0 20 8 37.333 24 52s34 22 54 22c19.333 0 45.166 -19 77.499 -57s70.833 -57 115.5 -57c41.333 0 76.666 14.667 105.999 44s44 64.666 44 105.999s-14.667 76.666 -44 105.999s-64.666 44 -105.999 44c-124 0 -230 44 -318 132
s-132 194 -132 318v975c0 50 25 75 75 75s75 -25 75 -75v-975c0 -82.667 29.333 -153.334 88 -212.001s129.334 -88 212.001 -88c72 0 136.833 25.167 194.5 75.5s92.167 75.5 103.5 75.5c20.667 0 38.834 -7.5 54.501 -22.5s23.5 -32.5 23.5 -52.5z" />
    <glyph glyph-name="Lcaron" unicode="&#x13d;" 
d="M901 1873c0 -24.667 -11.333 -44.667 -34 -60l-219 -146c-18 -12 -34 -18 -48 -18s-30 6 -48 18l-219 146c-22.667 15.333 -34 35.333 -34 60c0 20 7.5 38 22.5 54s32.5 24 52.5 24c14.667 0 29 -4.66699 43 -14l183 -122l183 122c14 9.33301 28.333 14 43 14
c20 0 37.5 -8 52.5 -24s22.5 -34 22.5 -54zM1125 75c0 -50 -25 -75 -75 -75h-800c-50 0 -75 24.667 -75 74v1351c0 50 25 75 75 75s75 -25 75 -75v-1275h725c50 0 75 -25 75 -75z" />
    <glyph glyph-name="lcaron" unicode="&#x13e;" 
d="M752 1873c0 -24.667 -11.334 -44.667 -34.001 -60l-219 -146c-18 -12 -34 -18 -48 -18s-30 6 -48 18l-219 146c-22.667 15.333 -34 35.333 -34 60c0 20 7.5 38 22.5 54s32.5 24 52.5 24c14.667 0 29 -4.66699 43 -14l183 -122l183 122c14 9.33301 28.333 14 43 14
c20.667 0 38.334 -8 53.001 -24s22 -34 22 -54zM1126 226c0 -14 -5.33496 -29.332 -16.002 -45.999c-35.333 -54 -88 -98 -158 -132c-66.667 -32 -134 -48 -202 -48c-124 0 -230 44 -318 132s-132 194 -132 318v975c0 50 25 75 75 75s75 -25 75 -75v-975
c0 -82.667 29.333 -153.334 88 -212.001s129.334 -88 212.001 -88c72.667 0 137.5 25.167 194.5 75.5s91.5 75.5 103.5 75.5c20.667 0 38.834 -7.5 54.501 -22.5s23.5 -32.5 23.5 -52.5z" />
    <glyph glyph-name="Ldot" unicode="&#x13f;" 
d="M963 750c0 -31.333 -11 -58 -33 -80s-48.667 -33 -80 -33s-57.833 11 -79.5 33s-32.5 48.667 -32.5 80s10.833 57.833 32.5 79.5s48.167 32.5 79.5 32.5s58 -10.833 80 -32.5s33 -48.167 33 -79.5zM1125 75c0 -50 -25 -75 -75 -75h-800c-50 0 -75 24.667 -75 74v1351
c0 50 25 75 75 75s75 -25 75 -75v-1275h725c50 0 75 -25 75 -75z" />
    <glyph glyph-name="ldot" unicode="&#x140;" 
d="M1088 750c0 -31.333 -11 -58 -33 -80s-48.667 -33 -80 -33s-57.833 11 -79.5 33s-32.5 48.667 -32.5 80s10.833 57.833 32.5 79.5s48.167 32.5 79.5 32.5s58 -10.833 80 -32.5s33 -48.167 33 -79.5zM1126 226c0 -14 -5.33496 -29.332 -16.002 -45.999
c-35.333 -54 -88 -98 -158 -132c-66.667 -32 -134 -48 -202 -48c-124 0 -230 44 -318 132s-132 194 -132 318v975c0 50 25 75 75 75s75 -25 75 -75v-975c0 -82.667 29.333 -153.334 88 -212.001s129.334 -88 212.001 -88c72.667 0 137.5 25.167 194.5 75.5
s91.5 75.5 103.5 75.5c20.667 0 38.834 -7.5 54.501 -22.5s23.5 -32.5 23.5 -52.5z" />
    <glyph glyph-name="Lslash" unicode="&#x141;" 
d="M1125 75c0 -50 -25.001 -74.999 -75.001 -74.999h-800c-50 0 -75 25 -75 75v529c-9.33301 -3.33301 -18.666 -5 -27.999 -5c-48 0 -72 26 -72 78c0 26 11 46 33 60c8 5.33301 30.333 13.666 67 24.999v663c0 50 25 75 75 75s75 -25 75 -75v-613
c176 59.333 268.667 89 278 89c48 0 72 -26 72 -78c0 -34.667 -17 -57.667 -51 -69l-299 -100v-504h725c50 0 75 -25 75 -75z" />
    <glyph glyph-name="lslash" unicode="&#x142;" 
d="M1126 226c0 -14 -5.33594 -29.332 -16.0029 -45.999c-36 -54.667 -88.667 -98.667 -158 -132c-66.667 -32 -134 -48 -202 -48c-124 0 -230 44 -318 132s-132 194 -132 318v196c-92 -31.333 -143 -47 -153 -47c-48 0 -72 26 -72 78c0 34.667 17 57.667 51 69l174 58v621
c0 50 25 75 75 75s75 -25 75 -75v-571c92 31.333 143 47 153 47c48 0 72 -26 72 -78c0 -34.667 -17 -57.667 -51 -69l-174 -58v-246c0 -82.667 29.333 -153.334 88 -212.001s129.334 -88 212.001 -88c56 0 105 13 147 39c20 12.667 48.667 37 86 73
c26.667 26 48.334 39 65.001 39c20.667 0 38.834 -7.5 54.501 -22.5s23.5 -32.5 23.5 -52.5z" />
    <glyph glyph-name="Nacute" unicode="&#x143;" 
d="M826 1873c0 -29.333 -14 -51 -42 -65l-300 -150c-12 -6 -24 -9 -36 -9c-20.667 0 -38.167 8 -52.5 24s-21.5 34 -21.5 54c0 29.333 14 51 42 65l300 150c12 6 24 9 36 9c20.667 0 38.167 -8 52.5 -24s21.5 -34 21.5 -54zM1026 74c0 -50 -26 -75 -78 -75
c-28.667 0 -51.667 17 -69 51l-554 1067v-1042c0 -50 -25 -75 -75 -75s-75 25 -75 75l-1 1351c0 50 26 75 78 75c28.667 0 51.667 -17 69 -51l554 -1067v1042c0 50 25 75 75 75s75 -25 75 -75z" />
    <glyph glyph-name="nacute" unicode="&#x144;" 
d="M851 1423c0 -29.333 -14 -51 -42 -65l-300 -150c-12 -6 -24 -9 -36 -9c-20.667 0 -38.167 8 -52.5 24s-21.5 34 -21.5 54c0 29.333 14 51 42 65l300 150c12 6 24 9 36 9c20.667 0 38.167 -8 52.5 -24s21.5 -34 21.5 -54zM1075 75c0 -50 -24.998 -75 -74.998 -75
s-75 25 -75 75v525c0 82.667 -29.333 153.334 -88 212.001s-129.334 88 -212.001 88s-153.334 -29.333 -212.001 -88s-88 -129.334 -88 -212.001v-525c0 -50 -25 -75 -75 -75s-75 25 -75 75v900c0 50 25 75 75 75c50.667 0 75.667 -38.333 75 -115
c85.333 76.667 185.333 115 300 115c124 0 230 -44 318 -132s132 -194 132 -318v-525z" />
    <glyph glyph-name="Ncedilla" unicode="&#x145;" 
d="M1026 74c0 -50 -26 -75 -78 -75c-28.667 0 -51.667 17 -69 51l-554 1067v-1042c0 -50 -25 -75 -75 -75s-75 25 -75 75l-1 1351c0 50 26 75 78 75c28.667 0 51.667 -17 69 -51l554 -1067v1042c0 50 25 75 75 75s75 -25 75 -75zM900 -150
c0 -82.667 -29.332 -153.33 -87.999 -211.997s-129.334 -88 -212.001 -88c-52.667 0 -103.334 13.833 -152.001 41.5s-84.667 64.167 -108 109.5c-7.33301 14 -11 27 -11 39c0 20 8 37.333 24 52s34 22 54 22s46 -19 78 -57s70.333 -57 115 -57
c41.333 0 76.666 14.667 105.999 44s44 64.666 44 105.999s-14.667 76.666 -44 105.999s-64.666 44 -105.999 44c-50 0 -75 25 -75 75s25 75 75 75c82.667 0 153.334 -29.333 212.001 -88s88 -129.334 88 -212.001z" />
    <glyph glyph-name="ncedilla" unicode="&#x146;" 
d="M1075 75c0 -50 -24.998 -75 -74.998 -75s-75 25 -75 75v525c0 82.667 -29.333 153.334 -88 212.001s-129.334 88 -212.001 88s-153.334 -29.333 -212.001 -88s-88 -129.334 -88 -212.001v-525c0 -50 -25 -75 -75 -75s-75 25 -75 75v900c0 50 25 75 75 75
c50.667 0 75.667 -38.333 75 -115c85.333 76.667 185.333 115 300 115c124 0 230 -44 318 -132s132 -194 132 -318v-525zM925.002 -150c0 -82.667 -29.332 -153.33 -87.999 -211.997s-129.334 -88 -212.001 -88c-52.667 0 -103.334 13.833 -152.001 41.5
s-84.667 64.167 -108 109.5c-7.33301 14 -11 27 -11 39c0 20 8 37.333 24 52s34 22 54 22s46 -19 78 -57s70.333 -57 115 -57c41.333 0 76.666 14.667 105.999 44s44 64.666 44 105.999s-14.667 76.666 -44 105.999s-64.666 44 -105.999 44c-50 0 -75 25 -75 75s25 75 75 75
c82.667 0 153.334 -29.333 212.001 -88s88 -129.334 88 -212.001z" />
    <glyph glyph-name="Ncaron" unicode="&#x147;" 
d="M901 1873c0 -24.667 -11.333 -44.667 -34 -60l-219 -146c-18 -12 -34 -18 -48 -18s-30 6 -48 18l-219 146c-22.667 15.333 -34 35.333 -34 60c0 20 7.5 38 22.5 54s32.5 24 52.5 24c14.667 0 29 -4.66699 43 -14l183 -122l183 122c14 9.33301 28.333 14 43 14
c20 0 37.5 -8 52.5 -24s22.5 -34 22.5 -54zM1026 74c0 -50 -26 -75 -78 -75c-28.667 0 -51.667 17 -69 51l-554 1067v-1042c0 -50 -25 -75 -75 -75s-75 25 -75 75l-1 1351c0 50 26 75 78 75c28.667 0 51.667 -17 69 -51l554 -1067v1042c0 50 25 75 75 75s75 -25 75 -75z" />
    <glyph glyph-name="ncaron" unicode="&#x148;" 
d="M926 1423c0 -24.667 -11.333 -44.667 -34 -60l-219 -146c-18 -12 -34 -18 -48 -18s-30 6 -48 18l-219 146c-22.667 15.333 -34 35.333 -34 60c0 20 7.5 38 22.5 54s32.5 24 52.5 24c14.667 0 29 -4.66699 43 -14l183 -122l183 122c14 9.33301 28.333 14 43 14
c20 0 37.5 -8 52.5 -24s22.5 -34 22.5 -54zM1075 75c0 -50 -24.998 -75 -74.998 -75s-75 25 -75 75v525c0 82.667 -29.333 153.334 -88 212.001s-129.334 88 -212.001 88s-153.334 -29.333 -212.001 -88s-88 -129.334 -88 -212.001v-525c0 -50 -25 -75 -75 -75
s-75 25 -75 75v900c0 50 25 75 75 75c50.667 0 75.667 -38.333 75 -115c85.333 76.667 185.333 115 300 115c124 0 230 -44 318 -132s132 -194 132 -318v-525z" />
    <glyph glyph-name="napostrophe" unicode="&#x149;" 
d="M376 1428c0 -10 -2 -20.333 -6 -31l-150 -375c-12.667 -32 -35.334 -48 -68.001 -48c-20 0 -38 7.16699 -54 21.5s-24 31.5 -24 51.5c0 10 2 20.333 6 31l150 375c12.667 32 35.334 48 68.001 48c20 0 38 -7.16699 54 -21.5s24 -31.5 24 -51.5zM1075 75
c0 -50 -24.999 -75.001 -74.999 -75.001s-75 25 -75 75v600c0 62 -22 115 -66 159s-97 66 -159 66s-115 -22 -159 -66s-66 -97 -66 -159v-600c0 -50 -25 -75 -75 -75s-75 25 -75 75v900c0 50 25 75 75 75s75 -25 75 -75c66.667 50 141.667 75 225 75
c103.333 0 191.666 -36.667 264.999 -110s110 -161.666 110 -264.999v-600z" />
    <glyph glyph-name="Eng" unicode="&#x14a;" 
d="M1026 73c0 -143.333 -51.8359 -266.332 -155.503 -368.999s-227.167 -154 -370.5 -154c-77.333 0 -152.666 17 -225.999 51c-76.667 36 -137.334 84 -182.001 144c-12 16 -18 31.667 -18 47c0 20.667 7.83301 38.5 23.5 53.5s33.834 22.5 54.501 22.5
c18.667 0 37.334 -9.33301 56.001 -28c92 -93.333 189.333 -140 292 -140c100 0 186.333 34.667 259 104s111.334 153.666 116.001 252.999l-550 1060v-1042c0 -50 -25 -75 -75 -75s-75 25 -75 75l-1 1351c0 50 26 75 78 75c28.667 0 51.667 -17 69 -51l554 -1067v1042
c0 50 25 75 75 75s75 -25 75 -75z" />
    <glyph glyph-name="eng" unicode="&#x14b;" 
d="M1075 75c0 -144.667 -51.3291 -268.333 -153.996 -371s-226.334 -154 -371.001 -154c-76.667 0 -152.334 17.333 -227.001 52c-78 36 -138.333 83.667 -181 143c-12 16.667 -18 32.334 -18 47.001c0 20.667 7.83301 38.5 23.5 53.5s33.834 22.5 54.501 22.5
c16 0 39.667 -14.333 71 -43c42 -39.333 76.333 -66.333 103 -81c51.333 -29.333 109.333 -44 174 -44c103.333 0 191.666 36.667 264.999 110s110 161.666 110 264.999v525c0 82.667 -29.333 153.334 -88 212.001s-129.334 88 -212.001 88s-153.334 -29.333 -212.001 -88
s-88 -129.334 -88 -212.001v-525c0 -50 -25 -75 -75 -75s-75 25 -75 75v900c0 50 25 75 75 75c51.333 0 76.333 -38.333 75 -115c85.333 76.667 185.333 115 300 115c124 0 230 -44 318 -132s132 -194 132 -318v-525z" />
    <glyph glyph-name="Omacron" unicode="&#x14c;" 
d="M1125 1800c0 -50 -25 -75 -75 -75h-900c-50 0 -75 25 -75 75s25 75 75 75h900c50 0 75 -25 75 -75zM1125 750c0 -179.333 -42 -342.333 -126 -489c-100 -174 -233 -261 -399 -261s-299 87 -399 261c-84 146.667 -126 309.667 -126 489s42 342.333 126 489
c100 174 233 261 399 261s299 -87 399 -261c84 -146.667 126 -309.667 126 -489zM975 750c0 87.333 -11 169.333 -33 246c-26 90.667 -66 168.667 -120 234c-66.667 80 -140.667 120 -222 120s-155.333 -40 -222 -120c-54 -65.333 -94 -143.333 -120 -234
c-22 -76.667 -33 -158.667 -33 -246s11 -169.333 33 -246c26 -90.667 66 -168.667 120 -234c66.667 -80 140.667 -120 222 -120s155.333 40 222 120c54 65.333 94 143.333 120 234c22 76.667 33 158.667 33 246z" />
    <glyph glyph-name="omacron" unicode="&#x14d;" 
d="M1125 1350c0 -50 -25 -75 -75 -75h-900c-50 0 -75 25 -75 75s25 75 75 75h900c50 0 75 -25 75 -75zM1125 525c0 -144.667 -51.333 -268.334 -154 -371.001s-226.334 -154 -371.001 -154s-268.334 51.333 -371.001 154s-154 226.334 -154 371.001
s51.333 268.334 154 371.001s226.334 154 371.001 154s268.334 -51.333 371.001 -154s154 -226.334 154 -371.001zM975 525c0 103.333 -36.667 191.666 -110 264.999s-161.666 110 -264.999 110s-191.666 -36.667 -264.999 -110s-110 -161.666 -110 -264.999
s36.667 -191.666 110 -264.999s161.666 -110 264.999 -110s191.666 36.667 264.999 110s110 161.666 110 264.999z" />
    <glyph glyph-name="Obreve" unicode="&#x14e;" 
d="M903 1875c0 -18 -14.334 -42.668 -43.001 -74.001c-92 -100.667 -178.667 -151 -260 -151c-47.333 0 -100 19.667 -158 59c-51.333 35.333 -93.333 75 -126 119c-11.333 16.667 -17 32.334 -17 47.001c0 20.667 7.83301 38.5 23.5 53.5s33.834 22.5 54.501 22.5
c19.333 0 53.333 -25.167 102 -75.5s89 -75.5 121 -75.5s72.333 25.167 121 75.5s82.667 75.5 102 75.5c20.667 0 39.167 -7.5 55.5 -22.5s24.5 -32.833 24.5 -53.5zM1125 749.999c0 -179.333 -42 -342.333 -126 -489c-100 -174 -233 -261 -399 -261s-299 87 -399 261
c-84 146.667 -126 309.667 -126 489s42 342.333 126 489c100 174 233 261 399 261s299 -87 399 -261c84 -146.667 126 -309.667 126 -489zM974.999 749.999c0 87.333 -11 169.333 -33 246c-26 90.667 -66 168.667 -120 234c-66.667 80 -140.667 120 -222 120
s-155.333 -40 -222 -120c-54 -65.333 -94 -143.333 -120 -234c-22 -76.667 -33 -158.667 -33 -246s11 -169.333 33 -246c26 -90.667 66 -168.667 120 -234c66.667 -80 140.667 -120 222 -120s155.333 40 222 120c54 65.333 94 143.333 120 234c22 76.667 33 158.667 33 246z
" />
    <glyph glyph-name="obreve" unicode="&#x14f;" 
d="M903 1425c0 -18 -14.334 -42.668 -43.001 -74.001c-92 -100.667 -178.667 -151 -260 -151c-47.333 0 -100 19.667 -158 59c-51.333 35.333 -93.333 75 -126 119c-11.333 16.667 -17 32.334 -17 47.001c0 20.667 7.83301 38.5 23.5 53.5s33.834 22.5 54.501 22.5
c19.333 0 53.333 -25.167 102 -75.5s89 -75.5 121 -75.5s72.333 25.167 121 75.5s82.667 75.5 102 75.5c20.667 0 39.167 -7.5 55.5 -22.5s24.5 -32.833 24.5 -53.5zM1125 524.999c0 -144.667 -51.333 -268.334 -154 -371.001s-226.334 -154 -371.001 -154
s-268.334 51.333 -371.001 154s-154 226.334 -154 371.001s51.333 268.334 154 371.001s226.334 154 371.001 154s268.334 -51.333 371.001 -154s154 -226.334 154 -371.001zM974.999 524.999c0 103.333 -36.667 191.666 -110 264.999s-161.666 110 -264.999 110
s-191.666 -36.667 -264.999 -110s-110 -161.666 -110 -264.999s36.667 -191.666 110 -264.999s161.666 -110 264.999 -110s191.666 36.667 264.999 110s110 161.666 110 264.999z" />
    <glyph glyph-name="Odblacute" unicode="&#x150;" 
d="M1051 1873c0 -29.333 -14 -51 -42 -65l-300 -150c-12 -6 -24 -9 -36 -9c-20.667 0 -38.167 8 -52.5 24s-21.5 34 -21.5 54c0 29.333 14 51 42 65l300 150c12 6 24 9 36 9c20.667 0 38.167 -8 52.5 -24s21.5 -34 21.5 -54zM601 1873c0 -29.333 -14 -51 -42 -65l-300 -150
c-12 -6 -24 -9 -36 -9c-20.667 0 -38.167 8 -52.5 24s-21.5 34 -21.5 54c0 29.333 14 51 42 65l300 150c12 6 24 9 36 9c20.667 0 38.167 -8 52.5 -24s21.5 -34 21.5 -54zM1125 750c0 -179.333 -42 -342.333 -126 -489c-100 -174 -233 -261 -399 -261s-299 87 -399 261
c-84 146.667 -126 309.667 -126 489s42 342.333 126 489c100 174 233 261 399 261s299 -87 399 -261c84 -146.667 126 -309.667 126 -489zM975 750c0 87.333 -11 169.333 -33 246c-26 90.667 -66 168.667 -120 234c-66.667 80 -140.667 120 -222 120s-155.333 -40 -222 -120
c-54 -65.333 -94 -143.333 -120 -234c-22 -76.667 -33 -158.667 -33 -246s11 -169.333 33 -246c26 -90.667 66 -168.667 120 -234c66.667 -80 140.667 -120 222 -120s155.333 40 222 120c54 65.333 94 143.333 120 234c22 76.667 33 158.667 33 246z" />
    <glyph glyph-name="odblacute" unicode="&#x151;" 
d="M1051 1423c0 -29.333 -14 -51 -42 -65l-300 -150c-12 -6 -24 -9 -36 -9c-20.667 0 -38.167 8 -52.5 24s-21.5 34 -21.5 54c0 29.333 14 51 42 65l300 150c12 6 24 9 36 9c20.667 0 38.167 -8 52.5 -24s21.5 -34 21.5 -54zM601 1423c0 -29.333 -14 -51 -42 -65l-300 -150
c-12 -6 -24 -9 -36 -9c-20.667 0 -38.167 8 -52.5 24s-21.5 34 -21.5 54c0 29.333 14 51 42 65l300 150c12 6 24 9 36 9c20.667 0 38.167 -8 52.5 -24s21.5 -34 21.5 -54zM1125 525c0 -144.667 -51.333 -268.334 -154 -371.001s-226.334 -154 -371.001 -154
s-268.334 51.333 -371.001 154s-154 226.334 -154 371.001s51.333 268.334 154 371.001s226.334 154 371.001 154s268.334 -51.333 371.001 -154s154 -226.334 154 -371.001zM975 525c0 103.333 -36.667 191.666 -110 264.999s-161.666 110 -264.999 110
s-191.666 -36.667 -264.999 -110s-110 -161.666 -110 -264.999s36.667 -191.666 110 -264.999s161.666 -110 264.999 -110s191.666 36.667 264.999 110s110 161.666 110 264.999z" />
    <glyph glyph-name="OE" unicode="&#x152;" 
d="M1125 75c0 -50 -25 -75 -75 -75h-450c-166 0 -299 87 -399 261c-84 146.667 -126 309.667 -126 489s42 342.333 126 489c100 174 233 261 399 261h450c50 0 75 -25 75 -75s-25 -75 -75 -75h-132c138 -150.667 207 -350.667 207 -600c0 -248.667 -69 -448.667 -207 -600
h132c50 0 75 -25 75 -75zM975 750c0 121.333 -23 235.332 -69 341.999c-54.667 128.667 -131.667 210.334 -231 245.001v-512h225c50 0 75 -25 75 -75s-25 -75 -75 -75h-225v-512c100 34.667 177.333 116 232 244c45.333 106 68 220.333 68 343zM525 162.999v1174
c-100 -35.333 -177.333 -117 -232 -245c-45.333 -105.333 -68 -219.333 -68 -342s22.667 -236.667 68 -342c54.667 -128 132 -209.667 232 -245z" />
    <glyph glyph-name="oe" unicode="&#x153;" 
d="M1126 759c0 -20 -6.66602 -39.6689 -19.999 -59.002l-151 -172c-46.667 -57.333 -120 -139.666 -220 -246.999c30 -87.333 67.667 -131 113 -131c30 0 57.667 22 83 66c3.33301 5.33301 19 40.333 47 105c16 36 39.333 54 70 54c52 0 78 -24 78 -72
c0 -8 -1.33301 -16.333 -4 -25c-54.667 -185.333 -146 -278 -274 -278c-98.667 0 -176 58.333 -232 175c-58 -116.667 -135.667 -175 -233 -175c-104 0 -184.667 64.667 -242 194c-44 100.667 -66 211 -66 331s22 230.333 66 331c57.333 129.333 138 194 242 194
c97.333 0 175 -58.333 233 -175c57.333 116.667 134.666 175 231.999 175c58.667 0 119.667 -33.667 183 -101s95 -130.666 95 -189.999zM965.001 766.998c-34 88.667 -73 133.001 -117 133.001c-14.667 0 -31 -8.66699 -49 -26c-72 -66.667 -108 -183 -108 -349
c0 -16.667 1 -36.334 3 -59.001zM541.001 524.999c0 155.333 -33 268.668 -99 340.001c-22 23.333 -41.667 35 -59 35c-14.667 0 -31.334 -8.66699 -50.001 -26c-72 -66.667 -108 -183 -108 -349s36 -282.333 108 -349c18.667 -17.333 35.334 -26 50.001 -26
c17.333 0 37 11.667 59 35c66 71.333 99 184.666 99 339.999z" />
    <glyph glyph-name="Racute" unicode="&#x154;" 
d="M826 1873c0 -29.333 -14 -51 -42 -65l-300 -150c-12 -6 -24 -9 -36 -9c-20.667 0 -38.167 8 -52.5 24s-21.5 34 -21.5 54c0 29.333 14 51 42 65l300 150c12 6 24 9 36 9c20.667 0 38.167 -8 52.5 -24s21.5 -34 21.5 -54zM1051 76
c0 -20.667 -7.66797 -38.668 -23.001 -54.001s-33.333 -23 -54 -23c-19.333 0 -36.666 7.66699 -51.999 23l-590 590c-18 18 -28.667 34.333 -32 49v-586c0 -50 -25 -75 -75 -75s-75 25 -75 75v1351c0 49.333 24.667 74 74 74h376c124 0 230 -44 318 -132s132 -194 132 -318
s-44 -230 -132 -318s-194 -132 -318 -132h-44l472 -472c15.333 -15.333 23 -32.666 23 -51.999zM899.999 1050c0 82.667 -29.333 153.332 -88 211.999s-129.334 88 -212.001 88h-300v-662c8 41.333 37.667 62 89 62h211c82.667 0 153.334 29.333 212.001 88
s88 129.334 88 212.001z" />
    <glyph glyph-name="racute" unicode="&#x155;" 
d="M841 1423c0 -29.333 -14 -51 -42 -65l-300 -150c-12 -6 -24 -9 -36 -9c-20.667 0 -38.167 8 -52.5 24s-21.5 34 -21.5 54c0 29.333 14 51 42 65l300 150c12 6 24 9 36 9c20.667 0 38.167 -8 52.5 -24s21.5 -34 21.5 -54zM886 860c0 -20 -8.00098 -37.335 -24.001 -52.002
s-34 -22 -54 -22s-46 19 -78 57s-70.333 57 -115 57c-41.333 0 -76.666 -14.667 -105.999 -44s-44 -64.666 -44 -105.999v-675c0 -50 -25 -75 -75 -75s-75 25 -75 75v900c0 50 25 75 75 75c34 0 57 -14.667 69 -44c48 29.333 100 44 156 44c52 0 102.333 -13.667 151 -41
s85 -63.666 109 -108.999c7.33301 -14.667 11 -28 11 -40z" />
    <glyph glyph-name="Rcedilla" unicode="&#x156;" 
d="M1051 76c0 -20.667 -7.66797 -38.668 -23.001 -54.001s-33.333 -23 -54 -23c-19.333 0 -36.666 7.66699 -51.999 23l-590 590c-18 18 -28.667 34.333 -32 49v-586c0 -50 -25 -75 -75 -75s-75 25 -75 75v1351c0 49.333 24.667 74 74 74h376c124 0 230 -44 318 -132
s132 -194 132 -318s-44 -230 -132 -318s-194 -132 -318 -132h-44l472 -472c15.333 -15.333 23 -32.666 23 -51.999zM899.999 -150.001c0 -82.667 -29.332 -153.33 -87.999 -211.997s-129.334 -88 -212.001 -88c-52.667 0 -103.334 13.833 -152.001 41.5
s-84.667 64.167 -108 109.5c-7.33301 14 -11 27 -11 39c0 20 8 37.333 24 52s34 22 54 22s46 -19 78 -57s70.333 -57 115 -57c41.333 0 76.666 14.667 105.999 44s44 64.666 44 105.999s-14.667 76.666 -44 105.999s-64.666 44 -105.999 44c-50 0 -75 25 -75 75s25 75 75 75
c82.667 0 153.334 -29.333 212.001 -88s88 -129.334 88 -212.001zM900 1050c0 82.667 -29.333 153.332 -88 211.999s-129.334 88 -212.001 88h-300v-662c8 41.333 37.667 62 89 62h211c82.667 0 153.334 29.333 212.001 88s88 129.334 88 212.001z" />
    <glyph glyph-name="rcedilla" unicode="&#x157;" 
d="M984 860c0 -20 -8.00098 -37.3311 -24.001 -51.998s-34.333 -22 -55 -22c-19.333 0 -45.166 19 -77.499 57s-70.5 57 -114.5 57c-41.333 0 -76.666 -14.667 -105.999 -44s-44 -64.666 -44 -105.999v-609c66 -17.333 120 -53.166 162 -107.499s63 -115.5 63 -183.5
c0 -82.667 -29.5 -153.334 -88.5 -212.001s-129.5 -88 -211.5 -88c-52.667 0 -103 13.667 -151 41c-50 28 -86.667 64.667 -110 110c-7.33301 14.667 -11 27.667 -11 39c0 20 8 37.333 24 52s34.333 22 55 22c19.333 0 45 -19 77 -57s70.667 -57 116 -57
c41.333 0 76.666 14.667 105.999 44s44 64.666 44 105.999s-14.667 76.666 -44 105.999s-64.666 44 -105.999 44c-20 0 -37.5 7.5 -52.5 22.5s-22.5 32.5 -22.5 52.5v900c0 50 25 75 75 75c34 0 57 -14.667 69 -44c47.333 29.333 99.333 44 156 44
c51.333 0 101.666 -13.833 150.999 -41.5s85.333 -63.834 108 -108.501c8 -14.667 12 -28 12 -40z" />
    <glyph glyph-name="Rcaron" unicode="&#x158;" 
d="M901 1873c0 -24.667 -11.333 -44.667 -34 -60l-219 -146c-18 -12 -34 -18 -48 -18s-30 6 -48 18l-219 146c-22.667 15.333 -34 35.333 -34 60c0 20 7.5 38 22.5 54s32.5 24 52.5 24c14.667 0 29 -4.66699 43 -14l183 -122l183 122c14 9.33301 28.333 14 43 14
c20 0 37.5 -8 52.5 -24s22.5 -34 22.5 -54zM1126 76c0 -20.667 -7.66797 -38.6699 -23.001 -54.0029s-33.333 -23 -54 -23c-19.333 0 -36.666 7.66699 -51.999 23l-590 590c-22 22 -33 42.667 -33 62c0 50.667 30 76 90 76h211c82.667 0 153.334 29.333 212.001 88
s88 129.334 88 212.001s-29.333 153.334 -88 212.001s-129.334 88 -212.001 88h-350v-1275c0 -50 -25 -75 -75 -75s-75 25 -75 75v1351c0 49.333 24.667 74 74 74h426c124 0 230 -44 318 -132s132 -194 132 -318s-44 -230 -132 -318s-194 -132 -318 -132h-44l472 -472
c15.333 -15.333 23 -32.666 23 -51.999z" />
    <glyph glyph-name="rcaron" unicode="&#x159;" 
d="M1001 1423c0 -24.667 -11.333 -44.667 -34 -60l-219 -146c-18 -12 -34 -18 -48 -18s-30 6 -48 18l-219 146c-22.667 15.333 -34 35.333 -34 60c0 20 7.5 38 22.5 54s32.5 24 52.5 24c14.667 0 29 -4.66699 43 -14l183 -122l183 122c14 9.33301 28.333 14 43 14
c20 0 37.5 -8 52.5 -24s22.5 -34 22.5 -54zM1126 808c0 -20.667 -7.83105 -38.501 -23.498 -53.501s-33.834 -22.5 -54.501 -22.5c-18.667 0 -37.334 9.66699 -56.001 29c-92 92.667 -189.333 139 -292 139c-103.333 0 -191.666 -36.667 -264.999 -110
s-110 -161.666 -110 -264.999v-450c0 -50 -25 -75 -75 -75s-75 25 -75 75v900c0 50 25 75 75 75c38.667 0 62.667 -18.667 72 -56c2.66699 -12 3.66699 -46 3 -102c102.667 105.333 227.667 158 375 158c76 0 151.667 -17.333 227 -52
c79.333 -36 139.666 -83.667 180.999 -143c12 -17.333 18 -33 18 -47z" />
    <glyph glyph-name="Sacute" unicode="&#x15a;" 
d="M801 1873c0 -29.333 -14 -51 -42 -65l-300 -150c-12 -6 -24 -9 -36 -9c-20.667 0 -38.167 8 -52.5 24s-21.5 34 -21.5 54c0 29.333 14.333 51 43 65l300 150c12 6 23.667 9 35 9c20.667 0 38.167 -8 52.5 -24s21.5 -34 21.5 -54zM1125 450
c0 -135.333 -60.665 -246.336 -181.998 -333.003c-109.333 -78 -234.333 -117 -375 -117c-91.333 0 -180 18 -266 54c-94 40 -164.667 94.667 -212 164c-10.667 16 -16 31.333 -16 46c0 20 7.83301 37.5 23.5 52.5s33.834 22.5 54.501 22.5
c19.333 0 38.666 -10.333 57.999 -31c9.33301 -11.333 24 -27.333 44 -48c81.333 -73.333 186 -110 314 -110c98 0 187.333 25 268 75c92.667 58 139 133 139 225s-46.333 167 -139 225c-80.667 50 -170 75 -268 75c-116.667 0 -220.334 32.667 -311.001 98
c-100 72 -150 164.333 -150 277s50 205 150 277c90.667 65.333 194.334 98 311.001 98c75.333 0 148 -15 218 -45c77.333 -32 135.666 -76.667 174.999 -134c11.333 -15.333 17 -30.666 17 -45.999c0 -20 -8 -37.5 -24 -52.5s-34 -22.5 -54 -22.5
c-18.667 0 -38.334 10.333 -59.001 31c-78 79.333 -169 119 -273 119c-74 0 -141.667 -18.667 -203 -56c-72 -43.333 -108 -99.666 -108 -168.999s36 -125.666 108 -168.999c61.333 -37.333 129 -56 203 -56c140.667 0 265.667 -39 375 -117
c121.333 -86.667 182 -197.667 182 -333z" />
    <glyph glyph-name="sacute" unicode="&#x15b;" 
d="M812 1423c0 -29.333 -14 -51 -42 -65l-300 -150c-12 -6 -24 -9 -36 -9c-20 0 -37.167 8 -51.5 24s-21.5 34 -21.5 54c0 29.333 14 51 42 65l300 150c12 6 24 9 36 9c20 0 37.167 -8 51.5 -24s21.5 -34 21.5 -54zM1056 338c0 -106.667 -53.666 -192.002 -160.999 -256.002
c-91.333 -54.667 -194 -82 -308 -82c-85.333 0 -167 16.333 -245 49c-90 38 -152.667 90.667 -188 158c-7.33301 14 -11 27 -11 39c0 20 8 37.333 24 52s34 22 54 22c22.667 0 43.667 -13 63 -39c66 -87.333 167 -131 303 -131c134.667 0 230.667 37 288 111
c20.667 26.667 31 52.334 31 77.001c0 40.667 -23.333 78.334 -70 113.001c-37.333 26.667 -80 46 -128 58c-40 10.667 -85.333 16 -136 16c-86 0 -163 21.667 -231 65c-78.667 50 -118 116 -118 198s40.333 148 121 198c69.333 42.667 148 64 236 64
c54.667 0 109 -9.66699 163 -29c62 -22 107.333 -52 136 -90c13.333 -17.333 20 -33.666 20 -48.999c0 -20 -7.83301 -37.667 -23.5 -53s-33.834 -23 -54.501 -23c-8.66699 0 -36.167 15.667 -82.5 47s-99.166 47 -158.499 47c-88.667 0 -152.334 -24.667 -191.001 -74
c-10.667 -14 -16 -26.667 -16 -38c0 -48 41.667 -82.333 125 -103c28 -6.66699 61.333 -10 100 -10c112 0 212.667 -27.667 302 -83c104 -64.667 156 -149.334 156 -254.001z" />
    <glyph glyph-name="Scircumflex" unicode="&#x15c;" 
d="M876 1727c0 -20 -7.33203 -38 -21.999 -54s-32.334 -24 -53.001 -24c-14.667 0 -29 4.66699 -43 14l-183 122l-183 -122c-14 -9.33301 -28.333 -14 -43 -14c-20 0 -37.5 8 -52.5 24s-22.5 34 -22.5 54c0 24.667 11.333 44.667 34 60l219 146c18 12 34 18 48 18
s30 -6 48 -18l219 -146c22.667 -15.333 34 -35.333 34 -60zM1125 450c0 -135.333 -60.665 -246.336 -181.998 -333.003c-109.333 -78 -234.333 -117 -375 -117c-91.333 0 -180 18 -266 54c-94 40 -164.667 94.667 -212 164c-10.667 16 -16 31.333 -16 46
c0 20 7.83301 37.5 23.5 52.5s33.834 22.5 54.501 22.5c19.333 0 38.666 -10.333 57.999 -31c9.33301 -11.333 24 -27.333 44 -48c81.333 -73.333 186 -110 314 -110c98 0 187.333 25 268 75c92.667 58 139 133 139 225s-46.333 167 -139 225c-80.667 50 -170 75 -268 75
c-116.667 0 -220.334 32.667 -311.001 98c-100 72 -150 164.333 -150 277s50 205 150 277c90.667 65.333 194.334 98 311.001 98c75.333 0 148 -15 218 -45c77.333 -32 135.666 -76.667 174.999 -134c11.333 -15.333 17 -30.666 17 -45.999c0 -20 -8 -37.5 -24 -52.5
s-34 -22.5 -54 -22.5c-18.667 0 -38.334 10.333 -59.001 31c-78 79.333 -169 119 -273 119c-74 0 -141.667 -18.667 -203 -56c-72 -43.333 -108 -99.666 -108 -168.999s36 -125.666 108 -168.999c61.333 -37.333 129 -56 203 -56c140.667 0 265.667 -39 375 -117
c121.333 -86.667 182 -197.667 182 -333z" />
    <glyph glyph-name="scircumflex" unicode="&#x15d;" 
d="M887 1277c0 -20 -7.33301 -38 -22 -54s-32 -24 -52 -24c-14.667 0 -29 4.66699 -43 14l-184 122l-183 -122c-14 -9.33301 -28.333 -14 -43 -14c-20 0 -37.5 8 -52.5 24s-22.5 34 -22.5 54c0 24.667 11.667 44.667 35 60l219 146c18 12 33.667 18 47 18c14 0 30 -6 48 -18
l219 -146c22.667 -15.333 34 -35.333 34 -60zM1056 338c0 -106.667 -53.666 -192.002 -160.999 -256.002c-91.333 -54.667 -194 -82 -308 -82c-85.333 0 -167 16.333 -245 49c-90 38 -152.667 90.667 -188 158c-7.33301 14 -11 27 -11 39c0 20 8 37.333 24 52s34 22 54 22
c22.667 0 43.667 -13 63 -39c66 -87.333 167 -131 303 -131c134.667 0 230.667 37 288 111c20.667 26.667 31 52.334 31 77.001c0 40.667 -23.333 78.334 -70 113.001c-37.333 26.667 -80 46 -128 58c-40 10.667 -85.333 16 -136 16c-86 0 -163 21.667 -231 65
c-78.667 50 -118 116 -118 198s40.333 148 121 198c69.333 42.667 148 64 236 64c54.667 0 109 -9.66699 163 -29c62 -22 107.333 -52 136 -90c13.333 -17.333 20 -33.666 20 -48.999c0 -20 -7.83301 -37.667 -23.5 -53s-33.834 -23 -54.501 -23
c-8.66699 0 -36.167 15.667 -82.5 47s-99.166 47 -158.499 47c-88.667 0 -152.334 -24.667 -191.001 -74c-10.667 -14 -16 -26.667 -16 -38c0 -48 41.667 -82.333 125 -103c28 -6.66699 61.333 -10 100 -10c112 0 212.667 -27.667 302 -83
c104 -64.667 156 -149.334 156 -254.001z" />
    <glyph glyph-name="Scedilla" unicode="&#x15e;" 
d="M1125 450c0 -93.333 -31.6641 -177.332 -94.9971 -251.999c-57.333 -68 -132.333 -119.667 -225 -155c46.667 -56 70 -120.333 70 -193c0 -82.667 -29.333 -153.334 -88 -212.001s-129.334 -88 -212.001 -88c-118 0 -204.667 50.333 -260 151
c-7.33301 13.333 -11 26.333 -11 39c0 20 8 37.333 24 52s34 22 54 22c19.333 0 45.333 -19 78 -57s71 -57 115 -57c41.333 0 76.666 14.667 105.999 44s44 64.666 44 105.999c0 43.333 -15.167 79.166 -45.5 107.499s-67.5 42.5 -111.5 42.5c-91.333 0 -180 18 -266 54
c-95.333 40.667 -166 95.334 -212 164.001c-10.667 16 -16 31.333 -16 46c0 20 7.83301 37.5 23.5 52.5s33.834 22.5 54.501 22.5c19.333 0 38.666 -10.333 57.999 -31c10 -12 26 -29 48 -51c79.333 -71.333 182.666 -107 309.999 -107c98 0 187.333 25 268 75
c92.667 58 139 133 139 225s-46.333 167 -139 225c-80.667 50 -170 75 -268 75c-116.667 0 -220.334 32.667 -311.001 98c-100 72 -150 164.333 -150 277s50 205 150 277c90.667 65.333 194.334 98 311.001 98c74.667 0 147.334 -15 218.001 -45
c78.667 -32.667 137 -77.334 175 -134.001c11.333 -16 17 -31.333 17 -46c0 -20 -8 -37.5 -24 -52.5s-34 -22.5 -54 -22.5c-18.667 0 -38.334 10.333 -59.001 31c-78 79.333 -169 119 -273 119c-74 0 -141.667 -18.667 -203 -56c-72 -43.333 -108 -99.666 -108 -168.999
s36 -125.666 108 -168.999c61.333 -37.333 129 -56 203 -56c140.667 0 265.667 -39 375 -117c121.333 -86.667 182 -197.667 182 -333z" />
    <glyph glyph-name="scedilla" unicode="&#x15f;" 
d="M1056 338c0 -132.667 -78.6631 -230.667 -235.996 -294c47.333 -56 71 -120.667 71 -194c0 -82.667 -29.333 -153.334 -88 -212.001s-129.334 -88 -212.001 -88c-52 0 -102.333 13.833 -151 41.5s-85 64.167 -109 109.5c-7.33301 14 -11 27 -11 39c0 20 8 37.333 24 52
s34.333 22 55 22c20 0 45.667 -19 77 -57s69.666 -57 114.999 -57c41.333 0 76.666 14.667 105.999 44s44 64.666 44 105.999c0 42.667 -14.833 78.334 -44.5 107.001s-66.167 43 -109.5 43c-85.333 0 -167 16.333 -245 49c-90.667 38 -153.334 90.667 -188.001 158
c-7.33301 14 -11 27 -11 39c0 20 8 37.333 24 52s34 22 54 22c23.333 0 44.333 -13 63 -39c64 -87.333 165 -131 303 -131c133.333 0 229.333 36.667 288 110c20.667 26.667 31 52.667 31 78c0 40 -22.667 77 -68 111c-35.333 26.667 -76.333 46.334 -123 59.001
c-42 11.333 -89.667 17 -143 17c-86 0 -163 21.667 -231 65c-78.667 50 -118 116 -118 198s40.333 148 121 198c69.333 42.667 148 64 236 64c54.667 0 109 -9.66699 163 -29c62 -22 107.333 -52 136 -90c13.333 -17.333 20 -33.666 20 -48.999
c0 -20 -7.83301 -37.667 -23.5 -53s-33.834 -23 -54.501 -23c-8.66699 0 -36.167 15.667 -82.5 47s-99.166 47 -158.499 47c-88 0 -150.667 -23.333 -188 -70c-12.667 -15.333 -19 -29.333 -19 -42s6.33301 -26.667 19 -42c38 -47.333 106.667 -71 206 -71
c112 0 212.667 -27.667 302 -83c104 -64.667 156 -149.334 156 -254.001z" />
    </font>
</defs>
</svg>
